<?xml version="1.0" encoding="utf-8"?>
<!-- Generator: Adobe Illustrator 20.1.0, SVG Export Plug-In . SVG Version: 6.00 Build 0)  -->
<svg version="1.1" id="Layer_1" xmlns="http://www.w3.org/2000/svg" xmlns:xlink="http://www.w3.org/1999/xlink" x="0px" y="0px"
	 viewBox="0 0 191.3 171.9" style="enable-background:new 0 0 191.3 171.9;" xml:space="preserve">
<style type="text/css">
	.st0{fill:url(#SVGID_1_);}
	.st1{fill:url(#SVGID_2_);}
	.st2{fill:#361688;}
	.st3{fill:url(#SVGID_3_);}
	.st4{fill:url(#SVGID_4_);}
	.st5{fill:url(#SVGID_5_);}
	.st6{fill:url(#SVGID_6_);}
	.st7{fill:url(#SVGID_7_);}
	.st8{fill:url(#SVGID_8_);}
	.st9{fill:url(#SVGID_9_);}
	.st10{fill:url(#SVGID_10_);}
	.st11{fill:url(#SVGID_11_);}
	.st12{fill:url(#SVGID_12_);}
	.st13{fill:url(#SVGID_13_);}
	.st14{fill:url(#SVGID_14_);}
	.st15{fill:url(#SVGID_15_);}
	.st16{fill:url(#SVGID_16_);}
	.st17{fill:url(#SVGID_17_);}
	.st18{fill:url(#SVGID_18_);}
	.st19{fill:url(#SVGID_19_);}
	.st20{fill:url(#SVGID_20_);}
	.st21{fill:url(#SVGID_21_);}
	.st22{fill:url(#SVGID_22_);}
	.st23{fill:url(#SVGID_23_);}
	.st24{fill:#4C18B2;}
	.st25{fill:url(#SVGID_24_);}
	.st26{fill:url(#SVGID_25_);}
	.st27{fill:url(#SVGID_26_);}
	.st28{fill:url(#SVGID_27_);}
	.st29{fill:url(#SVGID_28_);}
</style>
<g>
	
		<linearGradient id="SVGID_1_" gradientUnits="userSpaceOnUse" x1="86.1919" y1="1774.7871" x2="112.129" y2="1639.6417" gradientTransform="matrix(1 0 0 -1 0 1804.6666)">
		<stop  offset="0" style="stop-color:#9855FC"/>
		<stop  offset="1" style="stop-color:#752EE5"/>
	</linearGradient>
	<path class="st0" d="M141,171.9c6.1-4.4,11.9-9.5,17.3-15.2c5-5.3,9.4-11,13.2-16.8l-92.3-13.6l-29.9,45.6H141z"/>
	<g>
		<g>
			
				<linearGradient id="SVGID_2_" gradientUnits="userSpaceOnUse" x1="123.5439" y1="1799.2982" x2="154.2085" y2="1639.5197" gradientTransform="matrix(1 0 0 -1 0 1804.6666)">
				<stop  offset="0" style="stop-color:#9855FC"/>
				<stop  offset="1" style="stop-color:#752EE5"/>
			</linearGradient>
			<path class="st1" d="M148.9,12.3C134,4.5,116.8,1.8,99.3,4l15.8,59.9L148.9,12.3z"/>
			
				<linearGradient id="SVGID_3_" gradientUnits="userSpaceOnUse" x1="127.3225" y1="1800.0234" x2="157.9872" y2="1640.2449" gradientTransform="matrix(1 0 0 -1 0 1804.6666)">
				<stop  offset="0" style="stop-color:#9855FC"/>
				<stop  offset="1" style="stop-color:#752EE5"/>
			</linearGradient>
			<path class="st3" d="M165.1,23.8c-3.9-3.6-8-6.7-12.4-9.4L96.9,99.5l87.7,12.9C194.7,80,188.5,45.8,165.1,23.8z"/>
			
				<linearGradient id="SVGID_4_" gradientUnits="userSpaceOnUse" x1="111.0345" y1="1796.8975" x2="141.699" y2="1637.1189" gradientTransform="matrix(1 0 0 -1 0 1804.6666)">
				<stop  offset="0" style="stop-color:#9855FC"/>
				<stop  offset="1" style="stop-color:#752EE5"/>
			</linearGradient>
			<path class="st4" d="M81.9,122.4l92.1,13.5c3.7-6.3,6.7-12.7,9.1-19.3l-88.9-13.1L81.9,122.4z"/>
		</g>
		<path class="st2" d="M112.2,68.2l2.9-4.3L99.3,4c-1.4,0.2-2.9,0.4-4.3,0.6l16.8,63.7L112.2,68.2z"/>
		<polygon class="st2" points="116,67.3 115.1,63.9 112.2,68.2 		"/>
		<path class="st2" d="M94.2,103.6l88.9,13.1c0.5-1.4,1-2.8,1.4-4.1L96.8,99.7L94.2,103.6z"/>
		<polygon class="st2" points="94.7,99.3 94.1,103.5 94.2,103.6 96.8,99.6 		"/>
		<path class="st2" d="M79.3,126.3l92.3,13.6c0.9-1.3,1.7-2.6,2.5-4L82,122.4L79.3,126.3z"/>
		<polygon class="st2" points="78.6,121.9 78,126.1 79.3,126.3 81.9,122.4 		"/>
	</g>
	<path class="st2" d="M44.2,171.9h5.1l29.9-45.6l-1.3-0.2l0.6-4.3l3.3,0.5l12.3-18.8H94l0.6-4.3l2.1,0.3l55.8-85.1
		c-1.2-0.7-2.5-1.5-3.8-2.1l-33.8,51.6l0.9,3.4l-3.7,1L44.2,171.9z"/>
	
		<linearGradient id="SVGID_5_" gradientUnits="userSpaceOnUse" x1="42.8038" y1="1784.0991" x2="72.0071" y2="1631.9338" gradientTransform="matrix(1 0 0 -1 0 1804.6666)">
		<stop  offset="0" style="stop-color:#9855FC"/>
		<stop  offset="1" style="stop-color:#752EE5"/>
	</linearGradient>
	<path class="st5" d="M26.2,171.7c0.1,0.1,0.1,0.1,0.2,0.2h17.8l68-103.7l-0.4,0.1L95,4.6C72.8,8.4,50.6,20,32.9,38.8
		C-5.5,79.7-8.5,139.2,26.2,171.7z"/>
</g>
</svg>
