<?xml version="1.0" encoding="utf-8"?>
<!-- Generator: Adobe Illustrator 20.1.0, SVG Export Plug-In . SVG Version: 6.00 Build 0)  -->
<svg version="1.1" id="Layer_1" xmlns="http://www.w3.org/2000/svg" xmlns:xlink="http://www.w3.org/1999/xlink" x="0px" y="0px"
	 viewBox="0 0 186 175.5" style="enable-background:new 0 0 186 175.5;" xml:space="preserve">
<style type="text/css">
	.st0{fill:url(#SVGID_1_);}
	.st1{fill:url(#SVGID_2_);}
	.st2{fill:#361688;}
	.st3{fill:url(#SVGID_3_);}
	.st4{fill:url(#SVGID_4_);}
	.st5{fill:url(#SVGID_5_);}
	.st6{fill:url(#SVGID_6_);}
	.st7{fill:url(#SVGID_7_);}
	.st8{fill:url(#SVGID_8_);}
	.st9{fill:url(#SVGID_9_);}
	.st10{fill:url(#SVGID_10_);}
	.st11{fill:url(#SVGID_11_);}
	.st12{fill:url(#SVGID_12_);}
	.st13{fill:url(#SVGID_13_);}
	.st14{fill:url(#SVGID_14_);}
	.st15{fill:url(#SVGID_15_);}
	.st16{fill:url(#SVGID_16_);}
	.st17{fill:url(#SVGID_17_);}
	.st18{fill:url(#SVGID_18_);}
	.st19{fill:url(#SVGID_19_);}
	.st20{fill:url(#SVGID_20_);}
	.st21{fill:url(#SVGID_21_);}
	.st22{fill:url(#SVGID_22_);}
	.st23{fill:url(#SVGID_23_);}
	.st24{fill:#4C18B2;}
	.st25{fill:url(#SVGID_24_);}
	.st26{fill:url(#SVGID_25_);}
	.st27{fill:url(#SVGID_26_);}
	.st28{fill:url(#SVGID_27_);}
	.st29{fill:url(#SVGID_28_);}
</style>
<g>
	<g>
		
			<linearGradient id="SVGID_1_" gradientUnits="userSpaceOnUse" x1="3665.03" y1="1637.5066" x2="3600.4734" y2="1789.5742" gradientTransform="matrix(1 0 0 -1 -3513.2258 1789.5)">
			<stop  offset="0" style="stop-color:#9855FC"/>
			<stop  offset="1" style="stop-color:#752EE5"/>
		</linearGradient>
		<path class="st0" d="M132.2,20.9l-7.1,115.8l-24.9-20.8l6.7-107.8c8.7,3.2,17.3,7.5,25.5,12.9L132.2,20.9z"/>
		
			<linearGradient id="SVGID_2_" gradientUnits="userSpaceOnUse" x1="3628.408" y1="1621.9595" x2="3563.8513" y2="1774.0271" gradientTransform="matrix(1 0 0 -1 -3513.2258 1789.5)">
			<stop  offset="0" style="stop-color:#9855FC"/>
			<stop  offset="1" style="stop-color:#752EE5"/>
		</linearGradient>
		<path class="st1" d="M102.7,7l-6.6,105.3L0,31.8c0,0-0.1,0.1,0,0C10.2,19.6,23.4,11,38,6.1l36.7,37.3L71.9,1.2
			c10.8,0.4,21.9,2.4,32.8,6.1L102.7,7z"/>
		
			<linearGradient id="SVGID_3_" gradientUnits="userSpaceOnUse" x1="3682.3528" y1="1644.8605" x2="3617.7957" y2="1796.9281" gradientTransform="matrix(1 0 0 -1 -3513.2258 1789.5)">
			<stop  offset="0" style="stop-color:#9855FC"/>
			<stop  offset="1" style="stop-color:#752EE5"/>
		</linearGradient>
		<path class="st3" d="M166.2,171.2C166.1,171.3,166.2,171.2,166.2,171.2l-37.1-31.1l7.3-116.4c2.4,1.8,4.8,3.6,7.2,5.6
			C189.5,67.8,199.7,131.3,166.2,171.2z"/>
	</g>
	<path class="st2" d="M106.8,8.1l-6.7,107.8l-4.1-3.4l6.6-105.3l2.1,0.1C105.4,7.5,106.1,7.8,106.8,8.1z"/>
	<path class="st2" d="M136.4,23.7l-7.3,116.4l-4.1-3.4L132.2,21h0.2C133.7,21.8,135,22.7,136.4,23.7z"/>
</g>
</svg>
