<?xml version="1.0" encoding="utf-8"?>
<!-- Generator: Adobe Illustrator 20.1.0, SVG Export Plug-In . SVG Version: 6.00 Build 0)  -->
<svg version="1.1" id="Layer_1" xmlns="http://www.w3.org/2000/svg" xmlns:xlink="http://www.w3.org/1999/xlink" x="0px" y="0px"
	 viewBox="0 0 203.7 223.7" style="enable-background:new 0 0 203.7 223.7;" xml:space="preserve">
<style type="text/css">
	.st0{fill:url(#SVGID_1_);}
	.st1{fill:url(#SVGID_2_);}
	.st2{fill:#361688;}
	.st3{fill:url(#SVGID_3_);}
	.st4{fill:url(#SVGID_4_);}
	.st5{fill:url(#SVGID_5_);}
	.st6{fill:url(#SVGID_6_);}
	.st7{fill:url(#SVGID_7_);}
	.st8{fill:url(#SVGID_8_);}
	.st9{fill:url(#SVGID_9_);}
	.st10{fill:url(#SVGID_10_);}
	.st11{fill:url(#SVGID_11_);}
	.st12{fill:url(#SVGID_12_);}
	.st13{fill:url(#SVGID_13_);}
	.st14{fill:url(#SVGID_14_);}
	.st15{fill:url(#SVGID_15_);}
	.st16{fill:url(#SVGID_16_);}
	.st17{fill:url(#SVGID_17_);}
	.st18{fill:url(#SVGID_18_);}
	.st19{fill:url(#SVGID_19_);}
	.st20{fill:url(#SVGID_20_);}
	.st21{fill:url(#SVGID_21_);}
	.st22{fill:url(#SVGID_22_);}
	.st23{fill:url(#SVGID_23_);}
	.st24{fill:#4C18B2;}
	.st25{fill:url(#SVGID_24_);}
	.st26{fill:url(#SVGID_25_);}
	.st27{fill:url(#SVGID_26_);}
	.st28{fill:url(#SVGID_27_);}
	.st29{fill:url(#SVGID_28_);}
</style>
<g>
	<g>
		<g>
			
				<linearGradient id="SVGID_1_" gradientUnits="userSpaceOnUse" x1="7171.6553" y1="2420.9414" x2="7051.1484" y2="2595.2454" gradientTransform="matrix(-0.9844 0.1761 -0.1761 -0.9844 7591.0693 1331.6787)">
				<stop  offset="0" style="stop-color:#9855FC"/>
				<stop  offset="1" style="stop-color:#752EE5"/>
			</linearGradient>
			<path class="st0" d="M109.2,103.9l91.6-12.3c0.6,13.1-0.9,26.7-4.7,40.2L79.4,147.5L109.2,103.9z"/>
			
				<linearGradient id="SVGID_2_" gradientUnits="userSpaceOnUse" x1="7173.4766" y1="2422.2009" x2="7052.9702" y2="2596.5046" gradientTransform="matrix(-0.9844 0.1761 -0.1761 -0.9844 7591.0693 1331.6787)">
				<stop  offset="0" style="stop-color:#9855FC"/>
				<stop  offset="1" style="stop-color:#752EE5"/>
			</linearGradient>
			<path class="st1" d="M167,19.3c19.5,16.1,31.2,40.7,33.5,68l-88,11.8L167,19.3z"/>
			
				<linearGradient id="SVGID_3_" gradientUnits="userSpaceOnUse" x1="7175.8804" y1="2423.8625" x2="7055.374" y2="2598.1665" gradientTransform="matrix(-0.9844 0.1761 -0.1761 -0.9844 7591.0693 1331.6787)">
				<stop  offset="0" style="stop-color:#9855FC"/>
				<stop  offset="1" style="stop-color:#752EE5"/>
			</linearGradient>
			<path class="st3" d="M76.2,152.3l118.6-15.9c-1.6,4.8-3.4,9.6-5.6,14.4c-25.9,57.1-86.1,85.6-134.5,63.6
				c-5.3-2.4-10.3-5.4-14.9-8.7L76.2,152.3z"/>
		</g>
		<path class="st2" d="M107.7,99.8l0.6,4.3l1-0.1l-29.8,43.6l-4.8,0.6l0.6,4.3l1-0.1l-36.4,53.4c-1.2-0.9-2.3-1.7-3.4-2.6
			L163.6,16.6c1.2,0.9,2.3,1.7,3.4,2.7l-54.5,79.8L107.7,99.8z"/>
		<path class="st2" d="M112.5,99.1l88-11.8c0.1,1.4,0.2,2.9,0.3,4.3l-91.6,12.3L112.5,99.1z"/>
		<polygon class="st2" points="107.7,99.8 112.5,99.1 109.2,103.9 108.3,104 		"/>
		<path class="st2" d="M79.4,147.5l116.7-15.7c-0.4,1.5-0.9,3-1.4,4.5L76.1,152.2L79.4,147.5z"/>
		<polygon class="st2" points="74.7,148.1 79.4,147.5 76.2,152.3 75.2,152.4 		"/>
	</g>
	
		<linearGradient id="SVGID_4_" gradientUnits="userSpaceOnUse" x1="7254.5767" y1="2493.2166" x2="7114.7031" y2="2628.7861" gradientTransform="matrix(-0.9844 0.1761 -0.1761 -0.9844 7591.0693 1331.6787)">
		<stop  offset="0" style="stop-color:#9855FC"/>
		<stop  offset="1" style="stop-color:#752EE5"/>
	</linearGradient>
	<path class="st4" d="M13.8,71.3C28.1,39.8,52.8,17,80.2,6.6l17.7,49L131.2,2c5.8,1.2,11.5,3.1,17.1,5.6c5.5,2.5,10.6,5.5,15.2,9
		L36.3,203C2,174.9-8.5,120.5,13.8,71.3z"/>
</g>
</svg>
