<?xml version="1.0" encoding="utf-8"?>
<!-- Generator: Adobe Illustrator 20.1.0, SVG Export Plug-In . SVG Version: 6.00 Build 0)  -->
<svg version="1.1" id="Layer_1" xmlns="http://www.w3.org/2000/svg" xmlns:xlink="http://www.w3.org/1999/xlink" x="0px" y="0px"
	 viewBox="0 0 150.1 160" style="enable-background:new 0 0 150.1 160;" xml:space="preserve">
<style type="text/css">
	.st0{fill:url(#SVGID_1_);}
	.st1{fill:url(#SVGID_2_);}
	.st2{fill:#361688;}
	.st3{fill:url(#SVGID_3_);}
	.st4{fill:url(#SVGID_4_);}
	.st5{fill:url(#SVGID_5_);}
	.st6{fill:url(#SVGID_6_);}
	.st7{fill:url(#SVGID_7_);}
	.st8{fill:url(#SVGID_8_);}
	.st9{fill:url(#SVGID_9_);}
	.st10{fill:url(#SVGID_10_);}
	.st11{fill:url(#SVGID_11_);}
	.st12{fill:url(#SVGID_12_);}
	.st13{fill:url(#SVGID_13_);}
	.st14{fill:url(#SVGID_14_);}
	.st15{fill:url(#SVGID_15_);}
	.st16{fill:url(#SVGID_16_);}
	.st17{fill:url(#SVGID_17_);}
	.st18{fill:url(#SVGID_18_);}
	.st19{fill:url(#SVGID_19_);}
	.st20{fill:url(#SVGID_20_);}
	.st21{fill:url(#SVGID_21_);}
	.st22{fill:url(#SVGID_22_);}
	.st23{fill:url(#SVGID_23_);}
	.st24{fill:#4C18B2;}
	.st25{fill:url(#SVGID_24_);}
	.st26{fill:url(#SVGID_25_);}
	.st27{fill:url(#SVGID_26_);}
	.st28{fill:url(#SVGID_27_);}
	.st29{fill:url(#SVGID_28_);}
</style>
<g>
	<g>
		
			<linearGradient id="SVGID_1_" gradientUnits="userSpaceOnUse" x1="4854.7715" y1="1425.1027" x2="4991.5825" y2="1425.1027" gradientTransform="matrix(-0.9771 -0.2129 0.2129 -0.9771 4571.731 2531.2617)">
			<stop  offset="0" style="stop-color:#9855FC"/>
			<stop  offset="1" style="stop-color:#752EE5"/>
		</linearGradient>
		<path class="st0" d="M20.1,17.8l103.1,126.3c-1.9,1.5-3.9,2.8-6,4.1c-33,19.7-78.6,4.2-101.8-34.6C-4.5,80.4-1.7,40.9,20.1,17.8z"
			/>
		
			<linearGradient id="SVGID_2_" gradientUnits="userSpaceOnUse" x1="4840.1543" y1="1452.4437" x2="4981.123" y2="1452.4437" gradientTransform="matrix(-0.9771 -0.2129 0.2129 -0.9771 4571.731 2531.2617)">
			<stop  offset="0" style="stop-color:#9855FC"/>
			<stop  offset="1" style="stop-color:#752EE5"/>
		</linearGradient>
		<path class="st1" d="M21.6,16.2c3.4-3.3,7.1-6.3,11.3-8.8c1.4-0.8,2.7-1.5,4.1-2.2l35,41.4L81.3,1c20.7,5.1,40.5,19.5,53.4,41.1
			c20.9,34.9,16.7,76.8-8.3,99.3L23.3,14.8L21.6,16.2z"/>
	</g>
	<path class="st2" d="M21.6,16.2l1.6-1.3l103.2,126.5c-1.1,1-2.2,1.9-3.3,2.8L20.1,17.8C20.6,17.2,21.1,16.7,21.6,16.2z"/>
</g>
</svg>
