<?xml version="1.0" encoding="utf-8"?>
<!-- Generator: Adobe Illustrator 20.1.0, SVG Export Plug-In . SVG Version: 6.00 Build 0)  -->
<svg version="1.1" id="Layer_1" xmlns="http://www.w3.org/2000/svg" xmlns:xlink="http://www.w3.org/1999/xlink" x="0px" y="0px"
	 viewBox="0 0 149.5 157.7" style="enable-background:new 0 0 149.5 157.7;" xml:space="preserve">
<style type="text/css">
	.st0{fill:url(#SVGID_1_);}
	.st1{fill:url(#SVGID_2_);}
	.st2{fill:#361688;}
	.st3{fill:url(#SVGID_3_);}
	.st4{fill:url(#SVGID_4_);}
	.st5{fill:url(#SVGID_5_);}
	.st6{fill:url(#SVGID_6_);}
	.st7{fill:url(#SVGID_7_);}
	.st8{fill:url(#SVGID_8_);}
	.st9{fill:url(#SVGID_9_);}
	.st10{fill:url(#SVGID_10_);}
	.st11{fill:url(#SVGID_11_);}
	.st12{fill:url(#SVGID_12_);}
	.st13{fill:url(#SVGID_13_);}
	.st14{fill:url(#SVGID_14_);}
	.st15{fill:url(#SVGID_15_);}
	.st16{fill:url(#SVGID_16_);}
	.st17{fill:url(#SVGID_17_);}
	.st18{fill:url(#SVGID_18_);}
	.st19{fill:url(#SVGID_19_);}
	.st20{fill:url(#SVGID_20_);}
	.st21{fill:url(#SVGID_21_);}
	.st22{fill:url(#SVGID_22_);}
	.st23{fill:url(#SVGID_23_);}
	.st24{fill:#4C18B2;}
	.st25{fill:url(#SVGID_24_);}
	.st26{fill:url(#SVGID_25_);}
	.st27{fill:url(#SVGID_26_);}
	.st28{fill:url(#SVGID_27_);}
	.st29{fill:url(#SVGID_28_);}
</style>
<g>
	<g>
		
			<linearGradient id="SVGID_1_" gradientUnits="userSpaceOnUse" x1="-180.097" y1="2435.6226" x2="-43.3289" y2="2435.6226" gradientTransform="matrix(0.9771 -0.2129 -0.2129 -0.9771 713.3842 2446.6484)">
			<stop  offset="0" style="stop-color:#9855FC"/>
			<stop  offset="1" style="stop-color:#752EE5"/>
		</linearGradient>
		<path class="st0" d="M130.4,17.7L27.3,144c1.9,1.5,3.9,2.8,6,4.1c33,19.7,78.6,4.2,101.8-34.6C155,80.3,152.1,40.8,130.4,17.7z"/>
		
			<linearGradient id="SVGID_2_" gradientUnits="userSpaceOnUse" x1="-194.6664" y1="2462.9851" x2="-53.6979" y2="2462.9851" gradientTransform="matrix(0.9771 -0.2129 -0.2129 -0.9771 713.3842 2446.6484)">
			<stop  offset="0" style="stop-color:#9855FC"/>
			<stop  offset="1" style="stop-color:#752EE5"/>
		</linearGradient>
		<path class="st1" d="M128.8,16.1c-3.4-3.3-7.1-6.3-11.3-8.8c-1.4-0.8-2.7-1.5-4.1-2.2l-35,41.4L69.1,0.9C48.4,6,28.6,20.4,15.7,42
			C-5.2,76.9-1,118.8,24,141.3L127.2,14.8L128.8,16.1z"/>
	</g>
	<path class="st2" d="M128.8,16.1l-1.6-1.3L24,141.3c1.1,1,2.2,1.9,3.3,2.8L130.4,17.8C129.9,17.1,129.4,16.6,128.8,16.1z"/>
</g>
</svg>
