<?xml version="1.0" encoding="utf-8"?>
<!-- Generator: Adobe Illustrator 20.1.0, SVG Export Plug-In . SVG Version: 6.00 Build 0)  -->
<svg version="1.1" id="Layer_1" xmlns="http://www.w3.org/2000/svg" xmlns:xlink="http://www.w3.org/1999/xlink" x="0px" y="0px"
	 viewBox="0 0 200.1 223.7" style="enable-background:new 0 0 200.1 223.7;" xml:space="preserve">
<style type="text/css">
	.st0{fill:url(#SVGID_1_);}
	.st1{fill:url(#SVGID_2_);}
	.st2{fill:#361688;}
	.st3{fill:url(#SVGID_3_);}
	.st4{fill:url(#SVGID_4_);}
	.st5{fill:url(#SVGID_5_);}
	.st6{fill:url(#SVGID_6_);}
	.st7{fill:url(#SVGID_7_);}
	.st8{fill:url(#SVGID_8_);}
	.st9{fill:url(#SVGID_9_);}
	.st10{fill:url(#SVGID_10_);}
	.st11{fill:url(#SVGID_11_);}
	.st12{fill:url(#SVGID_12_);}
	.st13{fill:url(#SVGID_13_);}
	.st14{fill:url(#SVGID_14_);}
	.st15{fill:url(#SVGID_15_);}
	.st16{fill:url(#SVGID_16_);}
	.st17{fill:url(#SVGID_17_);}
	.st18{fill:url(#SVGID_18_);}
	.st19{fill:url(#SVGID_19_);}
	.st20{fill:url(#SVGID_20_);}
	.st21{fill:url(#SVGID_21_);}
	.st22{fill:url(#SVGID_22_);}
	.st23{fill:url(#SVGID_23_);}
	.st24{fill:#4C18B2;}
	.st25{fill:url(#SVGID_24_);}
	.st26{fill:url(#SVGID_25_);}
	.st27{fill:url(#SVGID_26_);}
	.st28{fill:url(#SVGID_27_);}
	.st29{fill:url(#SVGID_28_);}
</style>
<g>
	<g>
		<g>
			
				<linearGradient id="SVGID_1_" gradientUnits="userSpaceOnUse" x1="3818.8911" y1="2152.0942" x2="3698.3843" y2="2326.3982" gradientTransform="matrix(0.9844 0.1761 0.1761 -0.9844 -4042.1833 1656.4473)">
				<stop  offset="0" style="stop-color:#9855FC"/>
				<stop  offset="1" style="stop-color:#752EE5"/>
			</linearGradient>
			<path class="st0" d="M121.7,146.5L5,130.8c-3.8-13.5-5.3-27.1-4.7-40.2l91.6,12.3L121.7,146.5z"/>
			
				<linearGradient id="SVGID_2_" gradientUnits="userSpaceOnUse" x1="3820.7126" y1="2153.3535" x2="3700.2063" y2="2327.6575" gradientTransform="matrix(0.9844 0.1761 0.1761 -0.9844 -4042.1833 1656.4473)">
				<stop  offset="0" style="stop-color:#9855FC"/>
				<stop  offset="1" style="stop-color:#752EE5"/>
			</linearGradient>
			<path class="st1" d="M88.6,98.1l-88-11.8c2.3-27.3,14-51.9,33.5-68L88.6,98.1z"/>
			
				<linearGradient id="SVGID_3_" gradientUnits="userSpaceOnUse" x1="3823.1162" y1="2155.0154" x2="3702.6099" y2="2329.3193" gradientTransform="matrix(0.9844 0.1761 0.1761 -0.9844 -4042.1833 1656.4473)">
				<stop  offset="0" style="stop-color:#9855FC"/>
				<stop  offset="1" style="stop-color:#752EE5"/>
			</linearGradient>
			<path class="st3" d="M161.3,204.7c-4.6,3.3-9.6,6.3-14.9,8.7c-48.4,22-108.6-6.5-134.5-63.6c-2.2-4.8-4-9.6-5.6-14.4l118.6,15.9
				L161.3,204.7z"/>
		</g>
		<path class="st2" d="M88.6,98.1L34.1,18.3c1.1-1,2.2-1.8,3.4-2.7l127.1,186.6c-1.1,0.9-2.2,1.7-3.4,2.6l-36.4-53.4l1,0.1l0.6-4.3
			l-4.8-0.6L91.8,103l1,0.1l0.6-4.3L88.6,98.1z"/>
		<path class="st2" d="M91.9,102.9L0.3,90.6c0.1-1.4,0.2-2.9,0.3-4.3l88,11.8L91.9,102.9z"/>
		<polygon class="st2" points="92.8,103 91.9,102.9 88.6,98.1 93.4,98.8 		"/>
		<path class="st2" d="M125,151.2L6.4,135.3c-0.5-1.5-1-3-1.4-4.5l116.7,15.7L125,151.2z"/>
		<polygon class="st2" points="125.9,151.4 124.9,151.3 121.7,146.5 126.4,147.1 		"/>
	</g>
	
		<linearGradient id="SVGID_4_" gradientUnits="userSpaceOnUse" x1="3901.8125" y1="2224.3694" x2="3761.939" y2="2359.939" gradientTransform="matrix(0.9844 0.1761 0.1761 -0.9844 -4042.1833 1656.4473)">
		<stop  offset="0" style="stop-color:#9855FC"/>
		<stop  offset="1" style="stop-color:#752EE5"/>
	</linearGradient>
	<path class="st4" d="M164.8,202L37.6,15.6c4.6-3.5,9.7-6.5,15.2-9C58.4,4.1,64.1,2.2,69.9,1l33.3,53.6l17.7-49
		C148.3,16,173,38.8,187.3,70.3C209.6,119.5,199.1,173.9,164.8,202z"/>
</g>
</svg>
