<?xml version="1.0" encoding="utf-8"?>
<!-- Generator: Adobe Illustrator 20.1.0, SVG Export Plug-In . SVG Version: 6.00 Build 0)  -->
<svg version="1.1" id="Layer_1" xmlns="http://www.w3.org/2000/svg" xmlns:xlink="http://www.w3.org/1999/xlink" x="0px" y="0px"
	 viewBox="0 0 192.2 169.6" style="enable-background:new 0 0 192.2 169.6;" xml:space="preserve">
<style type="text/css">
	.st0{fill:url(#SVGID_1_);}
	.st1{fill:url(#SVGID_2_);}
	.st2{fill:#361688;}
	.st3{fill:url(#SVGID_3_);}
	.st4{fill:url(#SVGID_4_);}
	.st5{fill:url(#SVGID_5_);}
	.st6{fill:url(#SVGID_6_);}
	.st7{fill:url(#SVGID_7_);}
	.st8{fill:url(#SVGID_8_);}
	.st9{fill:url(#SVGID_9_);}
	.st10{fill:url(#SVGID_10_);}
	.st11{fill:url(#SVGID_11_);}
	.st12{fill:url(#SVGID_12_);}
	.st13{fill:url(#SVGID_13_);}
	.st14{fill:url(#SVGID_14_);}
	.st15{fill:url(#SVGID_15_);}
	.st16{fill:url(#SVGID_16_);}
	.st17{fill:url(#SVGID_17_);}
	.st18{fill:url(#SVGID_18_);}
	.st19{fill:url(#SVGID_19_);}
	.st20{fill:url(#SVGID_20_);}
	.st21{fill:url(#SVGID_21_);}
	.st22{fill:url(#SVGID_22_);}
	.st23{fill:url(#SVGID_23_);}
	.st24{fill:#4C18B2;}
	.st25{fill:url(#SVGID_24_);}
	.st26{fill:url(#SVGID_25_);}
	.st27{fill:url(#SVGID_26_);}
	.st28{fill:url(#SVGID_27_);}
	.st29{fill:url(#SVGID_28_);}
</style>
<g>
	<g>
		<g>
			
				<linearGradient id="SVGID_1_" gradientUnits="userSpaceOnUse" x1="5318.6377" y1="1809.8363" x2="5349.3022" y2="1650.0576" gradientTransform="matrix(-1 0 0 -1 5386.3423 1812.9249)">
				<stop  offset="0" style="stop-color:#9855FC"/>
				<stop  offset="1" style="stop-color:#752EE5"/>
			</linearGradient>
			<path class="st0" d="M42.4,10C57.3,2.2,74.5-0.5,92,1.7L76.2,61.6L42.4,10z"/>
			
				<linearGradient id="SVGID_2_" gradientUnits="userSpaceOnUse" x1="5322.4165" y1="1810.5615" x2="5353.0811" y2="1650.7828" gradientTransform="matrix(-1 0 0 -1 5386.3423 1812.9249)">
				<stop  offset="0" style="stop-color:#9855FC"/>
				<stop  offset="1" style="stop-color:#752EE5"/>
			</linearGradient>
			<path class="st1" d="M26.2,21.5c3.9-3.6,8-6.7,12.4-9.4l55.8,85.1L6.7,110.1C-3.4,77.7,2.8,43.5,26.2,21.5z"/>
			
				<linearGradient id="SVGID_3_" gradientUnits="userSpaceOnUse" x1="5306.1284" y1="1807.4354" x2="5336.793" y2="1647.6569" gradientTransform="matrix(-1 0 0 -1 5386.3423 1812.9249)">
				<stop  offset="0" style="stop-color:#9855FC"/>
				<stop  offset="1" style="stop-color:#752EE5"/>
			</linearGradient>
			<path class="st3" d="M109.4,120.1l-92.1,13.5c-3.7-6.3-6.7-12.7-9.1-19.3l88.9-13.1L109.4,120.1z"/>
		</g>
		<path class="st2" d="M79,65.9l-2.9-4.3L91.9,1.7c1.4,0.2,2.9,0.4,4.3,0.6L79.4,66L79,65.9z"/>
		<polygon class="st2" points="75.3,65 76.2,61.6 79,65.9 		"/>
		<path class="st2" d="M97,101.3L8.1,114.4c-0.5-1.4-1-2.8-1.4-4.1l87.7-12.9L97,101.3z"/>
		<polygon class="st2" points="96.5,97 97.1,101.2 97,101.3 94.4,97.3 		"/>
		<path class="st2" d="M112,124l-92.3,13.6c-0.9-1.3-1.7-2.6-2.5-4l92.1-13.5L112,124z"/>
		<polygon class="st2" points="112.6,119.6 113.3,123.8 112,124 109.4,120.1 		"/>
	</g>
	
		<linearGradient id="SVGID_4_" gradientUnits="userSpaceOnUse" x1="118.9513" y1="1808.1414" x2="152.3976" y2="1633.8684" gradientTransform="matrix(1 0 0 -1 0 1812.9249)">
		<stop  offset="0" style="stop-color:#9855FC"/>
		<stop  offset="1" style="stop-color:#752EE5"/>
	</linearGradient>
	<path class="st4" d="M164.9,169.6c0.1-0.1,0.1-0.1,0.2-0.2c34.6-32.5,31.6-92-6.7-132.9C140.7,17.6,118.5,6,96.3,2.3L79.5,66
		l-0.4-0.1l68,103.7L164.9,169.6L164.9,169.6z"/>
	
		<linearGradient id="SVGID_5_" gradientUnits="userSpaceOnUse" x1="58.5774" y1="1774.6467" x2="83.6267" y2="1644.127" gradientTransform="matrix(1 0 0 -1 0 1812.9249)">
		<stop  offset="0" style="stop-color:#9855FC"/>
		<stop  offset="1" style="stop-color:#752EE5"/>
	</linearGradient>
	<path class="st5" d="M50.2,169.6h91.6L112,124l-92.3,13.6c3.8,5.9,8.2,11.5,13.2,16.8C38.3,160.2,44.1,165.2,50.2,169.6z"/>
	<path class="st2" d="M96.5,97l0.6,4.3H97l12.3,18.8l3.3-0.5l0.6,4.3l-1.3,0.2l29.9,45.6h5.1L78.9,66l-3.7-1l0.9-3.4L42.4,10
		c-1.3,0.7-2.5,1.4-3.8,2.1l55.8,85.1L96.5,97z"/>
</g>
</svg>
