<?xml version="1.0" encoding="utf-8"?>
<!-- Generator: Adobe Illustrator 20.1.0, SVG Export Plug-In . SVG Version: 6.00 Build 0)  -->
<svg version="1.1" id="Layer_1" xmlns="http://www.w3.org/2000/svg" xmlns:xlink="http://www.w3.org/1999/xlink" x="0px" y="0px"
	 viewBox="0 0 190.2 173.9" style="enable-background:new 0 0 190.2 173.9;" xml:space="preserve">
<style type="text/css">
	.st0{fill:url(#SVGID_1_);}
	.st1{fill:url(#SVGID_2_);}
	.st2{fill:#361688;}
	.st3{fill:url(#SVGID_3_);}
	.st4{fill:url(#SVGID_4_);}
	.st5{fill:url(#SVGID_5_);}
	.st6{fill:url(#SVGID_6_);}
	.st7{fill:url(#SVGID_7_);}
	.st8{fill:url(#SVGID_8_);}
	.st9{fill:url(#SVGID_9_);}
	.st10{fill:url(#SVGID_10_);}
	.st11{fill:url(#SVGID_11_);}
	.st12{fill:url(#SVGID_12_);}
	.st13{fill:url(#SVGID_13_);}
	.st14{fill:url(#SVGID_14_);}
	.st15{fill:url(#SVGID_15_);}
	.st16{fill:url(#SVGID_16_);}
	.st17{fill:url(#SVGID_17_);}
	.st18{fill:url(#SVGID_18_);}
	.st19{fill:url(#SVGID_19_);}
	.st20{fill:url(#SVGID_20_);}
	.st21{fill:url(#SVGID_21_);}
	.st22{fill:url(#SVGID_22_);}
	.st23{fill:url(#SVGID_23_);}
	.st24{fill:#4C18B2;}
	.st25{fill:url(#SVGID_24_);}
	.st26{fill:url(#SVGID_25_);}
	.st27{fill:url(#SVGID_26_);}
	.st28{fill:url(#SVGID_27_);}
	.st29{fill:url(#SVGID_28_);}
</style>
<g>
	<g>
		
			<linearGradient id="SVGID_1_" gradientUnits="userSpaceOnUse" x1="6410.9956" y1="1640.1805" x2="6346.439" y2="1792.2482" gradientTransform="matrix(-1 0 0 -1 6449.4258 1794.8478)">
			<stop  offset="0" style="stop-color:#9855FC"/>
			<stop  offset="1" style="stop-color:#752EE5"/>
		</linearGradient>
		<path class="st0" d="M57.8,23.7C66,18.3,74.6,14,83.3,10.8L90,118.6l-24.9,20.8L58,23.6L57.8,23.7z"/>
		
			<linearGradient id="SVGID_2_" gradientUnits="userSpaceOnUse" x1="6374.3735" y1="1624.6334" x2="6309.8169" y2="1776.701" gradientTransform="matrix(-1 0 0 -1 6449.4258 1794.8478)">
			<stop  offset="0" style="stop-color:#9855FC"/>
			<stop  offset="1" style="stop-color:#752EE5"/>
		</linearGradient>
		<path class="st1" d="M85.5,10c10.9-3.7,22-5.7,32.8-6.1l-2.8,42.2l36.7-37.3c14.6,4.9,27.8,13.5,38,25.7c0.1,0.1,0,0,0,0L94.1,115
			L87.5,9.7L85.5,10z"/>
		
			<linearGradient id="SVGID_3_" gradientUnits="userSpaceOnUse" x1="6428.3184" y1="1647.5344" x2="6363.7612" y2="1799.6021" gradientTransform="matrix(-1 0 0 -1 6449.4258 1794.8478)">
			<stop  offset="0" style="stop-color:#9855FC"/>
			<stop  offset="1" style="stop-color:#752EE5"/>
		</linearGradient>
		<path class="st3" d="M46.6,32c2.4-2,4.8-3.8,7.2-5.6l7.3,116.4L24,173.9c0,0,0.1,0.1,0,0C-9.5,134,0.7,70.5,46.6,32z"/>
	</g>
	<path class="st2" d="M85.5,10l2.1-0.1l6.6,105.3l-4.1,3.4L83.4,10.8C84.1,10.5,84.8,10.2,85.5,10z"/>
	<path class="st2" d="M57.8,23.7H58l7.2,115.7l-4.1,3.4L53.8,26.4C55.2,25.4,56.5,24.5,57.8,23.7z"/>
</g>
</svg>
