<svg width="20" height="20" viewBox="0 0 20 20" fill="none" xmlns="http://www.w3.org/2000/svg">
<path d="M9.36459 9.02314C9.61266 8.77507 9.61266 8.37197 9.36459 8.12391C9.11653 7.87585 8.71343 7.87585 8.46537 8.12391L5.10103 11.4883C4.52739 12.0619 4.21731 12.8061 4.21731 13.6123C4.21731 14.4185 4.52739 15.1627 5.10103 15.7363C6.27932 16.9146 8.1863 16.9146 9.34909 15.7363L16.946 8.13941C17.7367 7.34872 18.1708 6.29445 18.1708 5.17817C18.1708 4.06189 17.7367 3.00763 16.946 2.21693C15.3026 0.573522 12.6514 0.573522 11.008 2.21693L3.42661 9.79833C2.40335 10.8216 1.84521 12.1704 1.84521 13.6123C1.84521 15.0541 2.40335 16.4185 3.42661 17.4262C4.44987 18.4495 5.7987 19.0076 7.24056 19.0076C8.68242 19.0076 10.0468 18.4495 11.0545 17.4262L14.4189 14.0619C14.6669 13.8138 14.6669 13.4107 14.4189 13.1627C14.1708 12.9146 13.7677 12.9146 13.5196 13.1627L10.1553 16.527C9.3801 17.3022 8.34134 17.7363 7.24056 17.7363C6.13979 17.7363 5.10103 17.3022 4.32583 16.527C3.55064 15.7518 3.11653 14.7131 3.11653 13.6123C3.11653 12.5115 3.55064 11.4727 4.32583 10.6976L11.9072 3.11616C12.4654 2.55802 13.1941 2.26344 13.9692 2.26344C14.7444 2.26344 15.4886 2.57352 16.0313 3.11616C16.5894 3.6743 16.884 4.40298 16.884 5.17817C16.884 5.95337 16.5739 6.69755 16.0313 7.24019L8.43436 14.8371C7.7677 15.5038 6.66692 15.5038 5.98475 14.8371C5.65917 14.5115 5.47312 14.0774 5.47312 13.6123C5.47312 13.1472 5.65917 12.7131 5.98475 12.3875L9.36459 9.02314Z" fill="#A11D54"/>
</svg>
