<svg width="65" height="65" viewBox="0 0 65 65" fill="none" xmlns="http://www.w3.org/2000/svg">
<path d="M45.1288 34.9939C51.2706 34.5561 56.0726 29.3031 56.0726 23.0153C56.0726 17.55 52.3583 12.7082 47.2777 11.3684C46.19 4.82857 40.5655 0 33.8134 0C28.9185 0 24.3818 2.65306 21.9675 6.8449C21.5032 6.75204 21.0124 6.71224 20.5349 6.71224C16.4094 6.71224 13.0532 10.0684 13.0532 14.1939C13.0532 14.7245 13.1063 15.2418 13.2124 15.7459C10.5461 17.6827 8.92773 20.8133 8.92773 24.1296C8.92773 29.7275 13.4247 34.7153 18.7441 35.0071C18.7706 35.0071 18.7971 35.0071 18.8237 35.0071H45.0492C45.0624 35.0071 45.1022 35.0071 45.1288 34.9939ZM18.8502 32.3806C14.8839 32.1418 11.5543 28.3745 11.5543 24.1296C11.5543 21.3837 13.0267 18.8235 15.4012 17.4439C15.9583 17.1255 16.1971 16.449 15.9716 15.852C15.7726 15.3347 15.6798 14.7776 15.6798 14.1939C15.6798 11.5143 17.8553 9.33878 20.5349 9.33878C21.1053 9.33878 21.6624 9.43163 22.193 9.63061C22.8298 9.86939 23.5461 9.57755 23.8379 8.95408C25.642 5.10714 29.5686 2.62653 33.8267 2.62653C39.5441 2.62653 44.2665 6.91122 44.8104 12.5888C44.8634 13.1857 45.3145 13.6633 45.8981 13.7561C50.2094 14.499 53.4594 18.4786 53.4594 23.0153C53.4594 27.8306 49.6655 32.0224 44.9961 32.3806H18.8502Z" fill="white"/>
<path d="M32.5002 39.4377C31.7706 39.4377 31.1869 40.0214 31.1869 40.751V56.1387C29.3696 56.6959 28.0165 58.3806 27.9767 60.3571C27.9502 61.5642 28.3879 62.7183 29.2237 63.5938C30.0594 64.4693 31.1869 64.9734 32.3941 65H32.5002C34.941 65 36.9706 63.0102 37.0237 60.5826C37.0502 59.3755 36.6124 58.2214 35.7767 57.3459C35.2328 56.7755 34.5563 56.3642 33.8135 56.1387V40.751C33.8135 40.0214 33.2298 39.4377 32.5002 39.4377ZM33.8798 59.1632C34.2247 59.5347 34.4237 60.0122 34.4104 60.5163C34.3839 61.5377 33.5349 62.3734 32.5135 62.3734H32.4604C31.9563 62.3602 31.4788 62.1479 31.1339 61.7898C30.789 61.4183 30.59 60.9408 30.6033 60.4367C30.6298 59.4153 31.4788 58.5796 32.5002 58.5796H32.5532C33.0573 58.5796 33.5216 58.7918 33.8798 59.1632Z" fill="#A11D54"/>
<path d="M24.0634 40.751V48.1132C24.0634 49.3867 23.0287 50.4081 21.7685 50.4081H17.895C17.3246 48.551 15.6001 47.1847 13.5572 47.1847C11.0634 47.1847 9.02051 49.2142 9.02051 51.7214C9.02051 54.2285 11.0501 56.2581 13.5572 56.2581C15.6001 56.2581 17.3246 54.9051 17.895 53.0347H21.7685C24.4879 53.0347 26.6899 50.8193 26.6899 48.1132V40.751C26.6899 40.0214 26.1062 39.4377 25.3766 39.4377C24.6603 39.4377 24.0634 40.0214 24.0634 40.751ZM13.5572 53.6316C12.5093 53.6316 11.647 52.7826 11.647 51.7214C11.647 50.6602 12.496 49.8112 13.5572 49.8112C14.6052 49.8112 15.4674 50.6602 15.4674 51.7214C15.4674 52.7826 14.6185 53.6316 13.5572 53.6316Z" fill="#A11D54"/>
<path d="M43.232 53.0479H47.1054C47.6759 54.9051 49.4003 56.2714 51.4432 56.2714C53.9371 56.2714 55.9799 54.2418 55.9799 51.7347C55.9799 49.2275 53.9503 47.1979 51.4432 47.1979C49.4003 47.1979 47.6759 48.551 47.1054 50.4214H43.232C41.9585 50.4214 40.9371 49.3867 40.9371 48.1265V40.7643C40.9371 40.0347 40.3534 39.451 39.6238 39.451C38.8942 39.451 38.3105 40.0347 38.3105 40.7643V48.1265C38.3105 50.8326 40.5126 53.0479 43.232 53.0479ZM51.4432 49.8245C52.4912 49.8245 53.3534 50.6734 53.3534 51.7347C53.3534 52.7959 52.5044 53.6449 51.4432 53.6449C50.382 53.6449 49.533 52.7959 49.533 51.7347C49.533 50.6734 50.382 49.8245 51.4432 49.8245Z" fill="#A11D54"/>
</svg>
