<svg width="65" height="65" viewBox="0 0 65 65" fill="none" xmlns="http://www.w3.org/2000/svg">
<path d="M15.4768 59.5247C17.3351 59.5247 18.835 58.0115 18.835 56.1665V49.6094C18.835 47.7512 17.3218 46.2513 15.4768 46.2513H10.6187V37.2519H31.2988V46.2513H26.4407C24.5824 46.2513 23.0825 47.7644 23.0825 49.6094V56.1665C23.0825 58.0248 24.5957 59.5247 26.4407 59.5247H38.5593C40.4176 59.5247 41.9175 58.0115 41.9175 56.1665V49.6094C41.9175 47.7512 40.4043 46.2513 38.5593 46.2513H33.7012V37.2519H54.3813V46.2513H49.5232C47.6649 46.2513 46.165 47.7644 46.165 49.6094V56.1665C46.165 58.0248 47.6782 59.5247 49.5232 59.5247H61.6418C63.5001 59.5247 65 58.0115 65 56.1665V49.6094C65 47.7512 63.4868 46.2513 61.6418 46.2513H56.797V36.0573C56.797 35.3936 56.2528 34.8494 55.5891 34.8494H33.7145V28.5711H43.5369C45.9659 28.5711 47.9436 26.5933 47.9436 24.1643V9.88206C47.9436 7.45302 45.9659 5.47528 43.5369 5.47528H21.4764C19.0474 5.47528 17.0696 7.45302 17.0696 9.88206V24.151C17.0696 26.58 19.0474 28.5578 21.4764 28.5578H31.2988V34.8361H9.41086C8.74719 34.8361 8.20298 35.3803 8.20298 36.044V46.238H3.35818C1.4999 46.238 0 47.7512 0 49.5962V56.1532C0 58.0115 1.51317 59.5114 3.35818 59.5114H15.4768V59.5247ZM39.515 49.6094V56.1665C39.515 56.6975 39.0903 57.1222 38.5593 57.1222H26.4407C25.9097 57.1222 25.485 56.6975 25.485 56.1665V49.6094C25.485 49.0785 25.9097 48.6538 26.4407 48.6538H38.5593C39.0903 48.6405 39.515 49.0785 39.515 49.6094ZM62.6108 49.6094V56.1665C62.6108 56.6975 62.186 57.1222 61.6551 57.1222H49.5365C49.0055 57.1222 48.5808 56.6975 48.5808 56.1665V49.6094C48.5808 49.0785 49.0055 48.6538 49.5365 48.6538H61.6551C62.186 48.6405 62.6108 49.0785 62.6108 49.6094ZM19.4721 24.151V9.88206C19.4721 8.78036 20.3747 7.87777 21.4764 7.87777H43.5369C44.6386 7.87777 45.5411 8.78036 45.5411 9.88206V24.151C45.5411 25.2527 44.6386 26.1553 43.5369 26.1553H21.4764C20.3747 26.1553 19.4721 25.2527 19.4721 24.151ZM2.40249 56.1665V49.6094C2.40249 49.0785 2.82724 48.6538 3.35818 48.6538H15.4768C16.0078 48.6538 16.4325 49.0785 16.4325 49.6094V56.1665C16.4325 56.6975 16.0078 57.1222 15.4768 57.1222H3.35818C2.82724 57.1222 2.40249 56.6975 2.40249 56.1665Z" fill="white"/>
<path d="M18.4 9.4C18.4 7.96405 19.5641 6.79999 21 6.79999H44C45.4359 6.79999 46.6 7.96405 46.6 9.39999V24.7C46.6 26.1359 45.4359 27.3 44 27.3H21C19.5641 27.3 18.4 26.1359 18.4 24.7V9.4Z" stroke="#A11D54" stroke-width="2.8"/>
</svg>
