<svg width="65" height="65" viewBox="0 0 65 65" fill="none" xmlns="http://www.w3.org/2000/svg">
<path d="M45.1285 34.9939C51.2703 34.5561 56.0724 29.3031 56.0724 23.0153C56.0724 17.55 52.3581 12.7082 47.2775 11.3684C46.1897 4.82857 40.5652 0 33.8132 0C28.9183 0 24.3816 2.65306 21.9673 6.8449C21.503 6.75204 21.0122 6.71224 20.5346 6.71224C16.4091 6.71224 13.053 10.0684 13.053 14.1939C13.053 14.7245 13.1061 15.2418 13.2122 15.7459C10.5459 17.6827 8.92749 20.8133 8.92749 24.1296C8.92749 29.7275 13.4244 34.7153 18.7438 35.0071C18.7703 35.0071 18.7969 35.0071 18.8234 35.0071H45.0489C45.0622 35.0071 45.102 35.0071 45.1285 34.9939ZM18.8499 32.3806C14.8836 32.1418 11.554 28.3745 11.554 24.1296C11.554 21.3837 13.0265 18.8235 15.401 17.4439C15.9581 17.1255 16.1969 16.449 15.9714 15.852C15.7724 15.3347 15.6795 14.7776 15.6795 14.1939C15.6795 11.5143 17.855 9.33878 20.5346 9.33878C21.105 9.33878 21.6622 9.43163 22.1928 9.63061C22.8295 9.86939 23.5459 9.57755 23.8377 8.95408C25.6418 5.10714 29.5683 2.62653 33.8265 2.62653C39.5438 2.62653 44.2663 6.91122 44.8101 12.5888C44.8632 13.1857 45.3142 13.6633 45.8979 13.7561C50.2091 14.499 53.4591 18.4786 53.4591 23.0153C53.4591 27.8306 49.6652 32.0224 44.9959 32.3806H18.8499Z" fill="#535353"/>
<path d="M32.4999 39.4377C31.7704 39.4377 31.1867 40.0214 31.1867 40.751V56.1388C29.3693 56.6959 28.0163 58.3806 27.9765 60.3571C27.9499 61.5643 28.3877 62.7184 29.2234 63.5939C30.0591 64.4694 31.1867 64.9735 32.3938 65H32.4999C34.9408 65 36.9703 63.0102 37.0234 60.5826C37.0499 59.3755 36.6122 58.2214 35.7765 57.3459C35.2326 56.7755 34.5561 56.3643 33.8132 56.1388V40.751C33.8132 40.0214 33.2295 39.4377 32.4999 39.4377ZM33.8795 59.1633C34.2244 59.5347 34.4234 60.0122 34.4101 60.5163C34.3836 61.5377 33.5346 62.3735 32.5132 62.3735H32.4601C31.9561 62.3602 31.4785 62.1479 31.1336 61.7898C30.7887 61.4184 30.5897 60.9408 30.603 60.4367C30.6295 59.4153 31.4785 58.5796 32.4999 58.5796H32.553C33.0571 58.5796 33.5214 58.7918 33.8795 59.1633Z" fill="#A11D54"/>
<path d="M24.0634 40.751V48.1133C24.0634 49.3867 23.0287 50.4082 21.7685 50.4082H17.895C17.3246 48.551 15.6001 47.1847 13.5572 47.1847C11.0634 47.1847 9.02051 49.2143 9.02051 51.7214C9.02051 54.2286 11.0501 56.2582 13.5572 56.2582C15.6001 56.2582 17.3246 54.9051 17.895 53.0347H21.7685C24.4879 53.0347 26.6899 50.8194 26.6899 48.1133V40.751C26.6899 40.0214 26.1062 39.4377 25.3766 39.4377C24.6603 39.4377 24.0634 40.0214 24.0634 40.751ZM13.5572 53.6316C12.5093 53.6316 11.647 52.7826 11.647 51.7214C11.647 50.6602 12.496 49.8112 13.5572 49.8112C14.6052 49.8112 15.4674 50.6602 15.4674 51.7214C15.4674 52.7826 14.6185 53.6316 13.5572 53.6316Z" fill="#A11D54"/>
<path d="M43.2317 53.048H47.1052C47.6756 54.9051 49.4001 56.2715 51.443 56.2715C53.9368 56.2715 55.9797 54.2419 55.9797 51.7347C55.9797 49.2276 53.9501 47.198 51.443 47.198C49.4001 47.198 47.6756 48.5511 47.1052 50.4215H43.2317C41.9583 50.4215 40.9368 49.3868 40.9368 48.1266V40.7643C40.9368 40.0347 40.3532 39.451 39.6236 39.451C38.894 39.451 38.3103 40.0347 38.3103 40.7643V48.1266C38.3103 50.8327 40.5123 53.048 43.2317 53.048ZM51.443 49.8245C52.4909 49.8245 53.3532 50.6735 53.3532 51.7347C53.3532 52.7959 52.5042 53.6449 51.443 53.6449C50.3817 53.6449 49.5328 52.7959 49.5328 51.7347C49.5328 50.6735 50.3817 49.8245 51.443 49.8245Z" fill="#A11D54"/>
</svg>
