<svg width="20" height="20" viewBox="0 0 20 20" fill="none" xmlns="http://www.w3.org/2000/svg">
<path d="M14.5961 0H5.40395C2.42422 0 0 2.42422 0 5.40395V14.5961C0 17.5758 2.42422 20 5.40395 20H14.5961C17.5758 20 20 17.5758 20 14.5961V5.40395C20 2.42422 17.5758 0 14.5961 0ZM18.3842 14.5961C18.3842 16.6848 16.6849 18.3842 14.5961 18.3842H5.40395C3.31516 18.3842 1.61578 16.6849 1.61578 14.5961V5.40395C1.61578 3.31516 3.31512 1.61578 5.40395 1.61578H14.5961C16.6848 1.61578 18.3842 3.31512 18.3842 5.40395V14.5961Z" fill="#2A2A2A"/>
<path d="M14.4756 9.30234C14.3335 8.34347 13.896 7.47441 13.2106 6.78898C12.5251 6.10359 11.6561 5.6661 10.6972 5.52395C10.2607 5.45922 9.81806 5.45922 9.38154 5.52395C8.19654 5.69969 7.15095 6.32633 6.43732 7.28848C5.72369 8.25062 5.4274 9.43312 5.60314 10.618C5.77888 11.803 6.40553 12.8486 7.36767 13.5623C8.14877 14.1416 9.07494 14.4458 10.0299 14.4458C10.2513 14.4458 10.4742 14.4295 10.6972 14.3964C11.8822 14.2207 12.9278 13.594 13.6414 12.6319C14.3551 11.6698 14.6514 10.4873 14.4756 9.30234ZM10.4602 12.7981C9.7022 12.9107 8.94576 12.721 8.33025 12.2645C7.71474 11.808 7.31388 11.1391 7.2015 10.381C7.08908 9.62304 7.27857 8.8666 7.7351 8.25109C8.19166 7.63558 8.86053 7.23473 9.61857 7.1223C9.75818 7.1016 9.89877 7.09125 10.0394 7.09125C10.1799 7.09125 10.3206 7.1016 10.4602 7.12234C11.7192 7.30902 12.6906 8.28035 12.8773 9.53941C13.1093 11.1042 12.0251 12.566 10.4602 12.7981Z" fill="#2A2A2A"/>
<path d="M15.6263 4.37306C15.4758 4.22262 15.2676 4.13641 15.055 4.13641C14.8424 4.13641 14.6342 4.22259 14.4837 4.37306C14.3333 4.52352 14.2471 4.73142 14.2471 4.94435C14.2471 5.15728 14.3333 5.36517 14.4837 5.51564C14.6342 5.66607 14.8424 5.75228 15.055 5.75228C15.2676 5.75228 15.4758 5.66611 15.6263 5.51564C15.7767 5.36517 15.8629 5.15693 15.8629 4.94435C15.8629 4.73173 15.7767 4.52349 15.6263 4.37306Z" fill="#2A2A2A"/>
</svg>
