<svg width="65" height="65" viewBox="0 0 65 65" fill="none" xmlns="http://www.w3.org/2000/svg">
<g clip-path="url(#clip0)">
<path d="M1.21211 62.0051H63.7922C64.4557 62.0051 64.9998 61.4611 64.9998 60.7976C64.9998 60.572 64.9334 60.3464 64.8273 60.1739L58.763 47.8729V14.7383C58.763 14.0748 58.2189 13.5308 57.5554 13.5308H44.2193C43.5559 13.5308 43.0118 14.0748 43.0118 14.7383C43.0118 15.4018 43.5559 15.9459 44.2193 15.9459H56.3612V46.9573H8.72278V15.9459H20.5594C21.2229 15.9459 21.7669 15.4018 21.7669 14.7383C21.7669 14.0748 21.2229 13.5308 20.5594 13.5308H7.50197C6.83848 13.5308 6.29442 14.0748 6.29442 14.7383V47.8729L0.123991 60.2668C-0.0617859 60.6384 -0.0352464 61.0763 0.177069 61.4345C0.402655 61.7928 0.800747 62.0051 1.21211 62.0051ZM24.2086 59.6033L25.2702 57.4802H39.7607L40.809 59.6033H24.2086ZM8.24507 49.3591H56.7991L61.8416 59.59H43.4762L41.5787 55.7286C41.3796 55.3172 40.955 55.0518 40.5038 55.0518H24.5138C24.0626 55.0518 23.638 55.3039 23.4389 55.7153L21.5148 59.5768H3.14949L8.24507 49.3591Z" fill="#535353"/>
<path d="M39.3628 7.33384C39.3628 4.94528 37.4255 2.99463 35.0236 2.99463H30.0077C27.6191 2.99463 25.6685 4.93201 25.6685 7.33384V10.6247C25.6685 10.7044 25.6817 10.7707 25.695 10.837C25.6817 10.9034 25.6685 10.983 25.6685 11.0494V34.7624C25.6685 34.7757 25.6685 34.7889 25.6685 34.7889C25.6685 34.842 25.6817 34.9084 25.6817 34.9614C25.6817 34.9747 25.6817 34.988 25.695 35.0145C25.7083 35.0809 25.7348 35.1472 25.7613 35.2136C25.7746 35.2268 25.7746 35.2401 25.7879 35.2667C25.8144 35.3197 25.841 35.3595 25.8675 35.3993C25.8808 35.4126 25.894 35.4392 25.9073 35.4524C25.9206 35.4657 25.9206 35.479 25.9339 35.4922L31.5735 42.8835C31.7991 43.1754 32.1574 43.3612 32.5289 43.3612C32.9005 43.3612 33.2588 43.1887 33.4843 42.8835L39.124 35.4922C39.1373 35.479 39.1373 35.4657 39.1505 35.4524C39.1638 35.4392 39.1771 35.4126 39.1903 35.3993C39.2169 35.3595 39.2434 35.3065 39.2699 35.2667C39.2832 35.2534 39.2832 35.2401 39.2965 35.2136C39.323 35.1472 39.3363 35.0809 39.3628 35.0145C39.3628 35.0013 39.3628 34.988 39.3761 34.9614C39.3894 34.9084 39.3894 34.842 39.3894 34.7889C39.3894 34.7757 39.3894 34.7624 39.3894 34.7624V11.0096C39.3894 10.9432 39.3761 10.8769 39.3761 10.8105C39.3894 10.7442 39.3894 10.6778 39.3894 10.6115V7.33384H39.3628ZM28.0968 11.8323H31.3346V33.5549H28.0968V11.8323ZM33.7365 11.8323H36.9743V33.5549H33.7365V11.8323ZM28.0968 7.33384C28.0968 6.27226 28.9594 5.40972 30.0209 5.40972H35.0369C36.0985 5.40972 36.961 6.27226 36.961 7.33384V9.41719H28.0968V7.33384ZM32.5289 40.1765L29.3176 35.9699H35.7269L32.5289 40.1765Z" fill="#A11D54"/>
</g>
<defs>
<clipPath id="clip0">
<rect width="65" height="65" fill="white"/>
</clipPath>
</defs>
</svg>
