<svg width="25" height="25" viewBox="0 0 25 25" fill="none" xmlns="http://www.w3.org/2000/svg">
<path d="M12.5002 0C7.82181 0 4.01562 3.80613 4.01562 8.48449C4.01562 10.3645 5.12246 13.2236 7.49892 17.4823C9.12057 20.3881 10.7347 22.8425 10.8028 22.9459L11.9695 24.7143C12.0872 24.8927 12.2865 25 12.5002 25C12.7139 25 12.9132 24.8927 13.0308 24.7143L14.1974 22.946C14.2649 22.8438 15.8673 20.4106 17.5014 17.4823C19.8779 13.2238 20.9847 10.3647 20.9847 8.48449C20.9847 3.80613 17.1785 0 12.5002 0ZM16.3912 16.8627C14.7798 19.7501 13.2027 22.1451 13.1363 22.2457L12.5002 23.2099L11.8643 22.246C11.7974 22.1445 10.2082 19.728 8.60911 16.8627C6.40475 12.9124 5.28703 10.0935 5.28703 8.48449C5.28703 4.50718 8.52281 1.27141 12.5002 1.27141C16.4775 1.27141 19.7133 4.50718 19.7133 8.48449C19.7133 10.0937 18.5956 12.9125 16.3912 16.8627Z" fill="#535353"/>
<path d="M12.5001 3.72728C9.90618 3.72728 7.7959 5.8376 7.7959 8.43147C7.7959 11.0253 9.90618 13.1357 12.5001 13.1357C15.094 13.1357 17.2043 11.0253 17.2043 8.43147C17.2043 5.8376 15.094 3.72728 12.5001 3.72728ZM12.5001 11.8643C10.6072 11.8643 9.0673 10.3243 9.0673 8.43147C9.0673 6.53861 10.6072 4.99868 12.5001 4.99868C14.393 4.99868 15.9329 6.53861 15.9329 8.43147C15.9329 10.3243 14.393 11.8643 12.5001 11.8643Z" fill="#535353"/>
</svg>
