<svg width="65" height="65" viewBox="0 0 65 65" fill="none" xmlns="http://www.w3.org/2000/svg">
<path d="M0 27.199V53.3891C0 55.3164 1.57088 56.8873 3.49817 56.8873H11.5638C12.6858 56.8873 13.6759 56.3592 14.3095 55.5408C15.7748 57.2965 17.9925 58.4185 20.4478 58.4185H36.4602C37.1862 58.4185 37.7671 57.8377 37.7671 57.1117C37.7671 56.3856 37.1862 55.8048 36.4602 55.8048H20.4478C17.4777 55.8048 15.0487 53.3891 15.0487 50.4057V27.9778C18.1245 26.869 27.6026 22.724 27.6026 14.0248V4.8371C28.8566 4.62589 31.1271 4.46748 32.764 5.66874C34.2293 6.7512 34.9817 8.7709 34.9817 11.6882V22.262C34.9817 22.988 35.5625 23.5688 36.2886 23.5688H50.3869C53.357 23.5688 55.7859 25.9845 55.7859 28.9679V29.1131L55.5879 30.3276C55.4691 31.0404 55.9576 31.7136 56.6704 31.8192C56.7364 31.8324 56.8156 31.8324 56.8816 31.8324C57.5152 31.8324 58.0697 31.3704 58.1753 30.7368L58.3865 29.4167C58.3997 29.3507 58.3997 29.2847 58.3997 29.2055V28.9547C58.3997 24.5325 54.8091 20.9419 50.3869 20.9419H37.5954V11.7014C37.5954 7.89965 36.4866 5.16712 34.3085 3.56984C30.8499 1.03531 26.0977 2.48739 25.8997 2.55339C25.3584 2.725 24.9888 3.22662 24.9888 3.79425V14.0248C24.9888 20.6515 17.4645 24.2289 14.5339 25.3641C13.9135 24.3609 12.8178 23.7008 11.5638 23.7008H3.49817C1.57088 23.7008 0 25.2717 0 27.199ZM12.435 27.199V53.3891C12.435 53.8643 12.0258 54.2735 11.5506 54.2735H3.49817C3.02295 54.2735 2.61373 53.8643 2.61373 53.3891V27.199C2.61373 26.7238 3.02295 26.3146 3.49817 26.3146H11.5638C12.0258 26.3146 12.435 26.7238 12.435 27.199Z" fill="white"/>
<path d="M53.1325 34.763C48.7235 34.763 45.1461 38.3535 45.1461 42.7494V46.6832H42.5852C41.8591 46.6832 41.2783 47.264 41.2783 47.99V61.6131C41.2783 62.3391 41.8591 62.92 42.5852 62.92H63.693C64.4191 62.92 64.9999 62.3391 64.9999 61.6131V48.0032C64.9999 47.2772 64.4191 46.6964 63.693 46.6964H61.1321V42.7626C61.1321 38.3535 57.5415 34.763 53.1325 34.763ZM47.7598 42.7626C47.7598 39.7924 50.1756 37.3899 53.1325 37.3899C56.0894 37.3899 58.5052 39.8056 58.5052 42.7626V46.6964H47.7598V42.7626ZM62.3862 49.3101V60.3194H43.892V49.3101H62.3862Z" fill="#A11D54"/>
</svg>
