<svg width="65" height="65" viewBox="0 0 65 65" fill="none" xmlns="http://www.w3.org/2000/svg">
<g clip-path="url(#clip0)">
<path d="M63.2191 25.0235C63.6315 24.2253 63.6981 23.3207 63.4187 22.4693C63.1393 21.6179 62.554 20.9261 61.7558 20.527L54.572 16.8819C54.3724 16.7755 54.2261 16.5892 54.1995 16.3631L52.949 8.4077C52.6962 6.77139 51.2994 5.58739 49.6498 5.58739C49.4768 5.58739 49.2906 5.6007 49.1176 5.6273L41.1622 6.89112C40.9361 6.93103 40.7099 6.85121 40.5503 6.69157L34.8698 0.984445C34.2445 0.345886 33.3931 0 32.5018 0C31.6105 0 30.7724 0.345886 30.1338 0.984445L24.44 6.67826C24.3069 6.8113 24.1207 6.89112 23.9345 6.89112C23.8945 6.89112 23.8546 6.89112 23.828 6.87781L15.8726 5.614C15.6997 5.58739 15.5135 5.57409 15.3405 5.57409C13.6909 5.57409 12.294 6.75808 12.0413 8.39439L10.7908 16.3498C10.7509 16.5759 10.6178 16.7622 10.4183 16.8686L3.23449 20.5137C2.43629 20.9128 1.85095 21.6046 1.57158 22.456C1.29221 23.3074 1.37203 24.212 1.77113 25.0102L5.42954 32.1807C5.53596 32.3803 5.53596 32.6197 5.42954 32.8193L1.77113 39.9898C1.35872 40.788 1.29221 41.6926 1.57158 42.544C1.85095 43.3954 2.43629 44.0872 3.23449 44.4863L10.4183 48.1314C10.6178 48.2378 10.7642 48.4241 10.7908 48.6502L12.0413 56.6056C12.294 58.2419 13.6909 59.4259 15.3405 59.4259C15.5135 59.4259 15.6997 59.4126 15.8726 59.386L23.828 58.1222C24.0542 58.0823 24.2803 58.1621 24.44 58.3217L30.1338 64.0156C30.7591 64.6541 31.6105 65 32.5018 65C33.3931 65 34.2312 64.6541 34.8698 64.0156L40.5636 58.3217C40.7232 58.1621 40.9494 58.0823 41.1756 58.1222L49.1309 59.386C49.3039 59.4126 49.4901 59.4259 49.6631 59.4259C51.3127 59.4259 52.7095 58.2419 52.9623 56.6056L54.2128 48.6502C54.2527 48.4241 54.3857 48.2378 54.5853 48.1314L61.7691 44.4863C62.5673 44.0872 63.1526 43.3954 63.432 42.544C63.7114 41.6926 63.6315 40.788 63.2324 39.9898L59.574 32.8193C59.4676 32.6197 59.4676 32.3803 59.574 32.1807L63.2191 25.0235ZM57.206 34.0299L60.8645 41.2004C60.9443 41.3733 60.9709 41.5596 60.9044 41.7458C60.8512 41.932 60.7181 42.0784 60.5452 42.1582L53.3614 45.8033C52.4035 46.2822 51.7384 47.2135 51.5787 48.2644L50.3282 56.2198C50.275 56.5923 49.9025 56.8717 49.5167 56.8052L41.5613 55.5413C41.3884 55.5147 41.2155 55.5014 41.0292 55.5014C40.1379 55.5014 39.2998 55.8473 38.6612 56.4859L33.0073 62.1797C32.7412 62.4458 32.2756 62.4458 32.0096 62.1797L26.3157 56.4859C25.6905 55.8606 24.8258 55.5014 23.9478 55.5014C23.7748 55.5014 23.5886 55.5147 23.4156 55.5413L15.4602 56.8052C15.0744 56.8717 14.7019 56.5923 14.6487 56.2198L13.3982 48.2644C13.2386 47.2135 12.5601 46.2822 11.6156 45.8033L4.43179 42.1582C4.25885 42.0784 4.13912 41.932 4.0726 41.7458C4.01939 41.5596 4.03269 41.3733 4.11251 41.2004L7.77092 34.0299C8.26314 33.072 8.26314 31.9413 7.77092 30.9834L4.11251 23.8129C4.03269 23.64 4.00608 23.4537 4.0726 23.2675C4.12581 23.0813 4.25885 22.9349 4.43179 22.8551L11.6156 19.21C12.5734 18.7311 13.2386 17.7998 13.3982 16.7489L14.6487 8.79349C14.7019 8.421 15.0744 8.14163 15.4602 8.20815L23.4156 9.47196C23.5886 9.49857 23.7615 9.51187 23.9478 9.51187C24.8391 9.51187 25.6772 9.16598 26.3157 8.52742L31.9963 2.84691C32.2623 2.58084 32.7279 2.58084 32.994 2.84691L38.6878 8.54073C39.3131 9.17929 40.1645 9.52517 41.0558 9.52517C41.2288 9.52517 41.415 9.51187 41.588 9.48526L49.5433 8.22145C49.9291 8.15493 50.2883 8.4343 50.3548 8.80679L51.6054 16.7622C51.765 17.8131 52.4435 18.7444 53.388 19.2233L60.5718 22.8684C60.7447 22.9482 60.8645 23.0946 60.931 23.2808C60.9975 23.467 60.9709 23.6533 60.8911 23.8262L57.2327 30.9967C56.7271 31.9413 56.7271 33.0853 57.206 34.0299Z" fill="white"/>
<path d="M42.905 24.5712H37.0383V20.5004C37.0383 18.3452 36.3864 16.7755 35.096 15.8309C33.1138 14.3676 30.5196 15.1258 30.227 15.219C29.6815 15.3919 29.309 15.8974 29.309 16.4695V21.6711C29.309 25.3295 24.9455 26.6199 24.7726 26.6731C24.6795 26.6997 24.5864 26.7396 24.5065 26.7795C24.0675 26.4603 23.5354 26.2607 22.95 26.2607H19.1852C17.7485 26.2607 16.5911 27.4314 16.5911 28.8549V41.8522C16.5911 43.289 17.7618 44.4463 19.1852 44.4463H22.95C23.5886 44.4463 24.174 44.2069 24.6396 43.8211C25.4644 44.4996 26.502 44.912 27.6461 44.912H40.3907C43.4771 44.912 45.5391 43.2091 45.8983 40.3622L47.6144 29.4801C47.6277 29.4136 47.6277 29.3471 47.6277 29.2806C47.6277 26.6864 45.5125 24.5712 42.905 24.5712ZM22.9234 41.8389H19.2251V28.9081H22.9234V41.8389ZM43.3041 40.003C43.3041 40.0163 43.3041 40.0296 43.3041 40.0429C43.2243 40.6549 43.0247 42.3045 40.404 42.3045H27.6594C26.502 42.3045 25.5575 41.36 25.5575 40.2026V29.2007C26.3025 28.9746 31.9431 27.0988 31.9431 21.6844V17.587C32.4752 17.5603 33.1005 17.6269 33.5395 17.9594C34.1115 18.3852 34.3909 19.2366 34.3909 20.5004V25.8882C34.3909 26.6199 34.9762 27.2052 35.7079 27.2052H42.8917C44.0225 27.2052 44.9404 28.0966 44.9803 29.2141L43.3041 40.003Z" fill="#A11D54"/>
</g>
<defs>
<clipPath id="clip0">
<rect width="65" height="65" fill="white"/>
</clipPath>
</defs>
</svg>
