<svg width="65" height="65" viewBox="0 0 65 65" fill="none" xmlns="http://www.w3.org/2000/svg">
<path d="M26.9473 0.26535H3.72831C1.67177 0.26535 0 1.93712 0 3.99366V20.6716C0 22.7281 1.67177 24.3999 3.72831 24.3999H14.0243V27.7832H10.6542C9.92448 27.7832 9.34068 28.367 9.34068 29.0967C9.34068 29.8265 9.92448 30.4103 10.6542 30.4103H19.9949C20.7246 30.4103 21.3084 29.8265 21.3084 29.0967C21.3084 28.367 20.7246 27.7832 19.9949 27.7832H16.6381V24.3999H26.9341C28.9906 24.3999 30.6624 22.7281 30.6624 20.6716V3.98039C30.6624 1.93712 28.9906 0.26535 26.9473 0.26535ZM28.0353 20.6583C28.0353 21.2554 27.5444 21.7595 26.9341 21.7595H3.71504C3.10472 21.7595 2.6138 21.2686 2.6138 20.6583V3.98039C2.6138 3.38333 3.10472 2.87915 3.71504 2.87915H26.9341C27.5444 2.87915 28.0353 3.37007 28.0353 3.98039V20.6583Z" fill="white"/>
<path d="M61.2716 34.5898H38.0525C35.996 34.5898 34.3242 36.2615 34.3242 38.3181V54.996C34.3242 57.0525 35.996 58.7243 38.0525 58.7243H48.3485V62.1076H44.9917C44.262 62.1076 43.6782 62.6914 43.6782 63.4211C43.6782 64.1509 44.262 64.7347 44.9917 64.7347H54.3324C55.0621 64.7347 55.6459 64.1509 55.6459 63.4211C55.6459 62.6914 55.0621 62.1076 54.3324 62.1076H50.9756V58.7243H61.2716C63.3281 58.7243 64.9999 57.0525 64.9999 54.996V38.3048C64.9866 36.2483 63.3148 34.5898 61.2716 34.5898ZM62.3595 54.9827C62.3595 55.5797 61.8686 56.0839 61.2583 56.0839H38.0393C37.4289 56.0839 36.938 55.593 36.938 54.9827V38.3048C36.938 37.7077 37.4289 37.2035 38.0393 37.2035H61.2583C61.8553 37.2035 62.3595 37.6945 62.3595 38.3048V54.9827Z" fill="white"/>
<path d="M49.6488 11.0125H36.938C36.2083 11.0125 35.6245 11.5962 35.6245 12.326C35.6245 13.0557 36.2083 13.6395 36.938 13.6395H48.3353V26.2043L46.3981 24.2672C45.8807 23.7497 45.0581 23.7497 44.5406 24.2672C44.0232 24.7846 44.0232 25.6073 44.5406 26.1247L48.72 30.3041C48.9721 30.5562 49.3171 30.6889 49.6488 30.6889C49.9805 30.6889 50.3255 30.5562 50.5776 30.3041L54.757 26.1247C55.2744 25.6073 55.2744 24.7846 54.757 24.2672C54.2395 23.7497 53.4169 23.7497 52.8995 24.2672L50.9623 26.2043V12.326C50.9623 11.5962 50.3785 11.0125 49.6488 11.0125Z" fill="#A11D54"/>
<path d="M28.0486 52.0504H16.6514V39.4856L18.5885 41.4227C18.8406 41.6748 19.1856 41.8075 19.5173 41.8075C19.849 41.8075 20.1939 41.6748 20.446 41.4227C20.9635 40.9053 20.9635 40.0827 20.446 39.5652L16.2666 35.3858C15.7491 34.8683 14.9265 34.8683 14.4091 35.3858L10.2296 39.5652C9.71219 40.0827 9.71219 40.9053 10.2296 41.4227C10.7471 41.9402 11.5697 41.9402 12.0872 41.4227L14.0243 39.4856V53.3639C14.0243 54.0937 14.6081 54.6775 15.3378 54.6775H28.0486C28.7783 54.6775 29.3621 54.0937 29.3621 53.3639C29.3621 52.6342 28.7651 52.0504 28.0486 52.0504Z" fill="#A11D54"/>
</svg>
