<svg width="65" height="65" viewBox="0 0 65 65" fill="none" xmlns="http://www.w3.org/2000/svg">
<path d="M58.9059 16.1058L43.1886 0.388603C42.9397 0.139775 42.6024 0 42.2506 0H12.153C8.59804 0 5.70605 2.89224 5.70605 6.44718V58.553C5.70605 62.1078 8.59817 65 12.1531 65H52.8475C56.4024 65 59.2945 62.1079 59.2945 58.553V17.0438C59.2944 16.692 59.1546 16.3546 58.9059 16.1058ZM43.5775 4.52955L54.7655 15.7174H47.3715C46.3579 15.7174 45.405 15.3227 44.6885 14.6062C43.9721 13.8898 43.5774 12.937 43.5775 11.9235V4.52955ZM56.6413 58.5528C56.6413 60.6449 54.9394 62.3468 52.8475 62.3468H12.153C10.0609 62.3468 8.35899 60.6449 8.35899 58.5528V6.44718C8.35912 4.35512 10.061 2.65306 12.153 2.65306H40.9244V11.9233C40.9242 13.6454 41.5947 15.2644 42.8124 16.482C44.0301 17.6998 45.6491 18.3703 47.3714 18.3703H56.6412V58.5528H56.6413Z" fill="white"/>
<path d="M34.9238 44.623H34.3299C33.5974 44.623 33.0034 45.2169 33.0034 45.9495C33.0034 46.6822 33.5974 47.276 34.3299 47.276H34.9238C35.6564 47.276 36.2504 46.6822 36.2504 45.9495C36.2504 45.2169 35.6564 44.623 34.9238 44.623Z" fill="#A11D54"/>
<path d="M30.0384 44.623H17.1537C16.4212 44.623 15.8271 45.2169 15.8271 45.9495C15.8271 46.6822 16.4212 47.276 17.1537 47.276H30.0384C30.7709 47.276 31.3649 46.6822 31.3649 45.9495C31.3649 45.2169 30.771 44.623 30.0384 44.623Z" fill="#A11D54"/>
<path d="M47.8462 38.5615H17.1537C16.4212 38.5615 15.8271 39.1554 15.8271 39.888C15.8271 40.6207 16.4212 41.2146 17.1537 41.2146H47.8462C48.5787 41.2146 49.1727 40.6207 49.1727 39.888C49.1727 39.1554 48.5787 38.5615 47.8462 38.5615Z" fill="#A11D54"/>
<path d="M47.8462 32.4999H17.1537C16.4212 32.4999 15.8271 33.0938 15.8271 33.8265C15.8271 34.5591 16.4212 35.153 17.1537 35.153H47.8462C48.5787 35.153 49.1727 34.5591 49.1727 33.8265C49.1727 33.0938 48.5787 32.4999 47.8462 32.4999Z" fill="#A11D54"/>
<path d="M47.8462 26.4386H17.1537C16.4212 26.4386 15.8271 27.0325 15.8271 27.7651C15.8271 28.4977 16.4212 29.0916 17.1537 29.0916H47.8462C48.5787 29.0916 49.1727 28.4977 49.1727 27.7651C49.1727 27.0325 48.5787 26.4386 47.8462 26.4386Z" fill="#A11D54"/>
</svg>
