<svg width="65" height="65" viewBox="0 0 65 65" fill="none" xmlns="http://www.w3.org/2000/svg">
<g clip-path="url(#clip0)">
<path d="M58.6316 23.5773C60.2105 23.5773 61.4842 22.3035 61.4842 20.7246V18.1374C61.4842 16.5585 60.2105 15.2848 58.6316 15.2848H57.2916C56.9466 13.9845 56.4291 12.7506 55.7525 11.583L56.6945 10.6409C57.809 9.52643 57.809 7.72198 56.6945 6.60747L54.8635 4.77648C54.3195 4.2325 53.6031 3.9406 52.8468 3.9406C52.0905 3.9406 51.374 4.2325 50.83 4.77648L49.888 5.71851C48.7204 5.05511 47.4865 4.53766 46.1862 4.17942V2.85262C46.1862 1.27373 44.9125 0 43.3336 0H40.7463C39.1675 0 37.8937 1.27373 37.8937 2.85262V4.19269C36.5935 4.53766 35.3595 5.05511 34.1919 5.73178L33.2499 4.78975C32.7059 4.24576 31.9895 3.95387 31.2332 3.95387C30.4769 3.95387 29.7604 4.24576 29.2164 4.78975L27.3855 6.62074C26.2709 7.73525 26.2709 9.5397 27.3855 10.6542L28.3275 11.5962C27.6641 12.7638 27.1466 13.9978 26.7884 15.298H25.4483C23.8694 15.298 22.5957 16.5717 22.5957 18.1506V20.7379C22.5957 22.3168 23.8694 23.5905 25.4483 23.5905H26.7884C27.1334 24.8908 27.6508 26.1247 28.3275 27.2923L27.3855 28.2343C26.2709 29.3488 26.2709 31.1533 27.3855 32.2678L29.2164 34.0988C29.7604 34.6428 30.4769 34.9347 31.2332 34.9347C31.9895 34.9347 32.7059 34.6428 33.2499 34.0988L34.1919 33.1568C35.3595 33.8202 36.5935 34.3376 37.8937 34.6959V36.0359C37.8937 37.6148 39.1675 38.8885 40.7463 38.8885H43.3336C44.9125 38.8885 46.1862 37.6148 46.1862 36.0359V34.6959C47.4865 34.3509 48.7204 33.8334 49.888 33.1568L50.83 34.0988C51.374 34.6428 52.0905 34.9347 52.8468 34.9347C53.6031 34.9347 54.3195 34.6428 54.8635 34.0988L56.6945 32.2678C57.809 31.1533 57.809 29.3488 56.6945 28.2343L55.7525 27.2923C56.4159 26.1247 56.9333 24.8908 57.2916 23.5905H58.6316V23.5773ZM54.9697 22.0116C54.638 23.7099 53.9746 25.3021 53.006 26.7483C52.661 27.2658 52.7274 27.969 53.1652 28.4068L54.8502 30.0919C54.9431 30.1847 54.9431 30.3174 54.8502 30.4103L53.0193 32.228C52.9662 32.2811 52.8998 32.2943 52.86 32.2943C52.8202 32.2943 52.7539 32.2811 52.7008 32.228L51.0158 30.543C50.5779 30.1051 49.8747 30.0255 49.3573 30.3838C47.9111 31.3523 46.3189 32.0024 44.6206 32.3474C44.0103 32.4668 43.5592 33.0108 43.5592 33.6344V36.0094C43.5592 36.1288 43.453 36.2349 43.3336 36.2349H40.7463C40.6269 36.2349 40.5208 36.1288 40.5208 36.0094V33.6344C40.5208 33.0108 40.0829 32.4668 39.4593 32.3474C37.761 32.0157 36.1689 31.3523 34.7227 30.3838C34.4971 30.2378 34.245 30.1582 33.9929 30.1582C33.648 30.1582 33.3163 30.2909 33.0642 30.543L31.4057 32.228C31.3526 32.2811 31.2863 32.2943 31.2464 32.2943C31.2066 32.2943 31.1403 32.2811 31.0872 32.228L29.2562 30.397C29.1634 30.3041 29.1634 30.1715 29.2562 30.0786L30.9413 28.3935C31.3791 27.9557 31.4587 27.2525 31.1005 26.735C30.1319 25.2888 29.4818 23.6967 29.1368 21.9984C29.0174 21.388 28.4734 20.9369 27.8498 20.9369H25.4749C25.3555 20.9369 25.2493 20.8308 25.2493 20.7114V18.1241C25.2493 18.0047 25.3555 17.8986 25.4749 17.8986H27.8498C28.4734 17.8986 29.0174 17.4607 29.1368 16.8371C29.4685 15.1388 30.1319 13.5466 31.1005 12.1004C31.4455 11.583 31.3791 10.8798 30.9413 10.4419L29.2562 8.75689C29.1634 8.66401 29.1634 8.53133 29.2562 8.43846L31.0872 6.60747C31.1403 6.5544 31.2066 6.54113 31.2464 6.54113C31.2863 6.54113 31.3526 6.5544 31.4057 6.60747L33.0907 8.29251C33.5285 8.73035 34.2318 8.80996 34.7492 8.45173C36.1954 7.48316 37.7876 6.83303 39.4859 6.48806C40.0962 6.36865 40.5473 5.82466 40.5473 5.20106V2.85262C40.5473 2.73321 40.6535 2.62707 40.7729 2.62707H43.3601C43.4796 2.62707 43.5857 2.73321 43.5857 2.85262V5.2276C43.5857 5.85119 44.0235 6.39518 44.6471 6.51459C46.3454 6.84629 47.9376 7.5097 49.3838 8.47826C49.9013 8.82323 50.6045 8.75689 51.0423 8.31904L52.7274 6.63401C52.7804 6.58093 52.8468 6.56767 52.8866 6.56767C52.9264 6.56767 52.9927 6.58093 53.0458 6.63401L54.8768 8.46499C54.9697 8.55787 54.9697 8.69055 54.8768 8.78342L53.1652 10.4685C52.7274 10.9063 52.6478 11.6095 53.006 12.127C53.9746 13.5732 54.6247 15.1653 54.9697 16.8636C55.0891 17.474 55.6331 17.9251 56.2567 17.9251H58.6316C58.751 17.9251 58.8572 18.0312 58.8572 18.1506V20.7379C58.8572 20.8573 58.751 20.9635 58.6316 20.9635H56.2567C55.6331 20.9502 55.0889 21.388 54.9697 22.0116Z" fill="#A11D54"/>
<path d="M42.0468 11.1451C37.4826 11.1451 33.7676 14.8602 33.7676 19.4244C33.7676 23.9886 37.4826 27.7036 42.0468 27.7036C46.611 27.7036 50.326 23.9886 50.326 19.4244C50.326 14.8602 46.611 11.1451 42.0468 11.1451ZM42.0468 25.0766C38.9288 25.0766 36.3946 22.5424 36.3946 19.4244C36.3946 16.3064 38.9288 13.7722 42.0468 13.7722C45.1648 13.7722 47.699 16.3064 47.699 19.4244C47.699 22.5424 45.1648 25.0766 42.0468 25.0766Z" fill="#A11D54"/>
<path d="M13.9715 59.8653L18.4163 59.2019V63.6865C18.4163 64.4162 19.0001 65 19.7298 65H44.1165C44.8462 65 45.43 64.4162 45.43 63.6865V47.2076C47.9907 44.7398 49.9146 41.6749 51.0158 38.3048C51.2414 37.6149 50.8699 36.8718 50.1799 36.6463C49.49 36.4207 48.747 36.7922 48.5214 37.4822C47.4865 40.6002 45.6555 43.4395 43.2275 45.6685C42.9621 45.9206 42.8029 46.2656 42.8029 46.6371V62.3597H21.0434V57.6761C21.0434 57.2913 20.8709 56.9331 20.5923 56.681C20.3004 56.4289 19.9156 56.3227 19.5441 56.3758L13.6929 57.2515C12.0609 57.1984 10.7607 55.8716 10.7607 54.2264V46.5973C10.7607 45.8676 10.1769 45.2838 9.44714 45.2838H7.4702C6.85987 45.2838 6.39549 45.1113 6.22301 44.8326C6.05052 44.554 6.11686 44.0631 6.40876 43.5191L10.6015 35.492C10.6943 35.3062 10.7474 35.0939 10.7474 34.8816V31.4585C10.7474 23.9886 15.1258 17.1158 21.9323 13.958C22.5825 13.6528 23.2459 13.3742 23.9225 13.1486C24.6125 12.9098 24.9707 12.1668 24.7452 11.4769C24.5063 10.7869 23.7633 10.4287 23.0734 10.6542C22.3038 10.9196 21.5476 11.2248 20.8311 11.5697C13.1224 15.1521 8.14687 22.9537 8.14687 31.4452V34.5499L4.08686 42.2852C3.35712 43.6651 3.33058 45.0847 3.98071 46.1727C4.64411 47.2607 5.91784 47.8843 7.4702 47.8843H8.1336V54.1999C8.1336 57.3178 10.6678 59.852 13.7858 59.852C13.8388 59.8786 13.9052 59.8653 13.9715 59.8653Z" fill="white"/>
</g>
<defs>
<clipPath id="clip0">
<rect width="65" height="65" fill="white"/>
</clipPath>
</defs>
</svg>
