<svg width="65" height="65" viewBox="0 0 65 65" fill="none" xmlns="http://www.w3.org/2000/svg">
<path d="M16.3466 33.6605H26.8904C27.2617 34.7215 28.2034 35.4775 29.2909 35.4775H35.71C36.7975 35.4775 37.7392 34.7215 38.1105 33.6605H48.6676C49.397 33.6605 49.9806 33.0769 49.9806 32.3475C49.9806 31.618 49.397 31.0345 48.6676 31.0345H36.9832C36.2538 31.0345 35.6702 31.618 35.6702 32.3475V32.626C35.6702 32.7454 35.6437 32.8117 35.6172 32.8647H29.4103C29.3837 32.8249 29.3572 32.7454 29.3572 32.626V32.3475C29.3572 31.618 28.7737 31.0345 28.0442 31.0345H16.3599C15.6304 31.0345 15.0469 31.618 15.0469 32.3475C15.0469 33.0769 15.6172 33.6605 16.3466 33.6605Z" fill="white"/>
<path d="M6.50539 3.7931V31.9363H3.38868C2.65924 31.9363 2.07568 32.5199 2.07568 33.2493V36.1538C2.07568 39.2838 4.6221 41.8435 7.76534 41.8435H57.2481C60.3781 41.8435 62.9378 39.2971 62.9378 36.1538V33.2493C62.9378 32.5199 62.3542 31.9363 61.6248 31.9363H58.4948V3.7931C58.4948 3.75332 58.4948 3.71353 58.4948 3.66048C58.2826 1.57825 56.585 0 54.5558 0H10.3118C8.203 0 6.50539 1.69761 6.50539 3.7931ZM55.8688 3.87268V33.2626C55.8688 33.992 56.4656 34.5756 57.195 34.5756H60.3118V36.1671C60.3118 37.8515 58.9324 39.2308 57.2481 39.2308H7.75208C6.06773 39.2308 4.68842 37.8515 4.68842 36.1671V34.5756H7.80513C8.53457 34.5756 9.11812 33.992 9.11812 33.2626V3.7931C9.11812 3.14324 9.64863 2.61273 10.2985 2.61273H54.5425C55.2057 2.62599 55.776 3.16976 55.8688 3.87268Z" fill="white"/>
<path d="M62.1289 57.4535H38.5878C38.0705 55.0663 36.1872 53.183 33.8132 52.679V47.1883C33.8132 46.4589 33.2297 45.8753 32.5002 45.8753C31.7708 45.8753 31.1872 46.4589 31.1872 47.1883V52.679C28.8 53.1963 26.9167 55.0663 26.4127 57.4535H2.87159C2.14215 57.4535 1.55859 58.0371 1.55859 58.7665C1.55859 59.496 2.14215 60.0795 2.87159 60.0795H26.4127C27.0228 62.8912 29.5162 64.9999 32.5002 64.9999C35.4843 64.9999 37.991 62.8912 38.5878 60.0795H62.1289C62.8583 60.0795 63.4419 59.496 63.4419 58.7665C63.4419 58.0371 62.8583 57.4535 62.1289 57.4535ZM32.5002 62.3607C30.5108 62.3607 28.8928 60.7427 28.8928 58.7533C28.8928 56.7639 30.5108 55.1458 32.5002 55.1458C34.4896 55.1458 36.1077 56.7639 36.1077 58.7533C36.1077 60.7427 34.4896 62.3607 32.5002 62.3607Z" fill="#A11D54"/>
</svg>
