<svg width="28" height="28" viewBox="0 0 28 28" fill="none" xmlns="http://www.w3.org/2000/svg">
<path d="M27.7551 26.5721L20.9506 19.7676C22.7759 17.6692 23.881 14.9313 23.881 11.9388C23.881 5.35166 18.5232 0 11.9422 0C5.35508 0 0.00341797 5.35787 0.00341797 11.9388C0.00341797 18.5197 5.36129 23.8776 11.9422 23.8776C14.9347 23.8776 17.6726 22.7725 19.771 20.9472L26.5755 27.7517C26.7369 27.9131 26.9542 28 27.1653 28C27.3764 28 27.5937 27.9193 27.7551 27.7517C28.0779 27.4288 28.0779 26.8949 27.7551 26.5721ZM1.67348 11.9388C1.67348 6.27672 6.28014 1.67628 11.936 1.67628C17.5981 1.67628 22.1985 6.28293 22.1985 11.9388C22.1985 17.5947 17.5981 22.2075 11.936 22.2075C6.28014 22.2075 1.67348 17.6009 1.67348 11.9388Z" fill="#535353"/>
</svg>
