<svg width="65" height="65" viewBox="0 0 65 65" fill="none" xmlns="http://www.w3.org/2000/svg">
<g clip-path="url(#clip0)">
<path d="M1.21235 62.0053H63.7925C64.4559 62.0053 65 61.4612 65 60.7977C65 60.5721 64.9337 60.3465 64.8275 60.174L58.7632 47.873V14.7384C58.7632 14.0749 58.2192 13.5309 57.5557 13.5309H44.2196C43.5561 13.5309 43.012 14.0749 43.012 14.7384C43.012 15.4019 43.5561 15.946 44.2196 15.946H56.3614V46.9574H8.72303V15.946H20.5596C21.2231 15.946 21.7672 15.4019 21.7672 14.7384C21.7672 14.0749 21.2231 13.5309 20.5596 13.5309H7.50221C6.83872 13.5309 6.29466 14.0749 6.29466 14.7384V47.873L0.124235 60.2669C-0.0615417 60.6385 -0.0350022 61.0764 0.177314 61.4347C0.402899 61.7929 0.800991 62.0053 1.21235 62.0053ZM24.2088 59.6034L25.2704 57.4803H39.761L40.8093 59.6034H24.2088ZM8.24532 49.3592H56.7993L61.8418 59.5902H43.4765L41.5789 55.7287C41.3799 55.3173 40.9552 55.0519 40.5041 55.0519H24.514C24.0628 55.0519 23.6382 55.304 23.4392 55.7154L21.5151 59.5769H3.14974L8.24532 49.3592Z" fill="white"/>
<path d="M39.3628 7.33393C39.3628 4.94537 37.4255 2.99472 35.0236 2.99472H30.0077C27.6191 2.99472 25.6685 4.9321 25.6685 7.33393V10.6248C25.6685 10.7044 25.6817 10.7708 25.695 10.8371C25.6817 10.9035 25.6685 10.9831 25.6685 11.0495V34.7625C25.6685 34.7758 25.6685 34.789 25.6685 34.789C25.6685 34.8421 25.6817 34.9085 25.6817 34.9615C25.6817 34.9748 25.6817 34.9881 25.695 35.0146C25.7083 35.081 25.7348 35.1473 25.7613 35.2137C25.7746 35.2269 25.7746 35.2402 25.7879 35.2667C25.8144 35.3198 25.841 35.3596 25.8675 35.3994C25.8808 35.4127 25.894 35.4393 25.9073 35.4525C25.9206 35.4658 25.9206 35.4791 25.9339 35.4923L31.5735 42.8836C31.7991 43.1755 32.1574 43.3613 32.5289 43.3613C32.9005 43.3613 33.2588 43.1888 33.4843 42.8836L39.124 35.4923C39.1373 35.4791 39.1373 35.4658 39.1505 35.4525C39.1638 35.4393 39.1771 35.4127 39.1903 35.3994C39.2169 35.3596 39.2434 35.3066 39.2699 35.2667C39.2832 35.2535 39.2832 35.2402 39.2965 35.2137C39.323 35.1473 39.3363 35.081 39.3628 35.0146C39.3628 35.0014 39.3628 34.9881 39.3761 34.9615C39.3894 34.9085 39.3894 34.8421 39.3894 34.789C39.3894 34.7758 39.3894 34.7625 39.3894 34.7625V11.0096C39.3894 10.9433 39.3761 10.8769 39.3761 10.8106C39.3894 10.7443 39.3894 10.6779 39.3894 10.6116V7.33393H39.3628ZM28.0968 11.8324H31.3346V33.5549H28.0968V11.8324ZM33.7365 11.8324H36.9743V33.5549H33.7365V11.8324ZM28.0968 7.33393C28.0968 6.27235 28.9594 5.40981 30.0209 5.40981H35.0369C36.0985 5.40981 36.961 6.27235 36.961 7.33393V9.41728H28.0968V7.33393ZM32.5289 40.1766L29.3176 35.97H35.7269L32.5289 40.1766Z" fill="#A11D54"/>
</g>
<defs>
<clipPath id="clip0">
<rect width="65" height="65" fill="white"/>
</clipPath>
</defs>
</svg>
