<svg width="65" height="65" viewBox="0 0 65 65" fill="none" xmlns="http://www.w3.org/2000/svg">
<path d="M57.1839 11.3557H44.4868C43.7563 11.3557 43.1719 11.9401 43.1719 12.6706C43.1719 13.4011 43.7563 13.9855 44.4868 13.9855H57.1839C58.6183 13.9855 59.7871 15.1543 59.7871 16.5887V49.2348C59.7871 50.6692 58.6183 51.838 57.1839 51.838H7.82962C6.39521 51.838 5.22643 50.6692 5.22643 49.2348V16.5887C5.22643 15.1543 6.39521 13.9855 7.82962 13.9855H20.726C21.4565 13.9855 22.0409 13.4011 22.0409 12.6706C22.0409 11.9401 21.4565 11.3557 20.726 11.3557H7.82962C4.94752 11.3557 2.59668 13.7066 2.59668 16.5887V49.2348C2.59668 52.1169 4.94752 54.4677 7.82962 54.4677H31.1919V62.3703H20.2744C19.544 62.3703 18.9596 62.9546 18.9596 63.6851C18.9596 64.4156 19.544 65 20.2744 65H44.7258C45.4563 65 46.0407 64.4156 46.0407 63.6851C46.0407 62.9546 45.4563 62.3703 44.7258 62.3703H33.8084V54.4677H57.1707C60.0527 54.4677 62.4036 52.1169 62.4036 49.2348V16.5887C62.4169 13.7066 60.066 11.3557 57.1839 11.3557Z" fill="white"/>
<path d="M39.918 5.16653C39.918 2.32428 37.607 0 34.7515 0H30.249C27.4068 0 25.0825 2.31099 25.0825 5.16653V8.26114C25.0825 8.34083 25.0958 8.42052 25.1091 8.48692C25.0958 8.56661 25.0825 8.63302 25.0825 8.71271V34.3727C25.0825 34.6649 25.1755 34.9438 25.3482 35.1696L31.4444 43.1784C31.6967 43.5104 32.0819 43.6964 32.4936 43.6964C32.9054 43.6964 33.2905 43.5104 33.5429 43.1784L39.6391 35.1696C39.8118 34.9438 39.9047 34.6649 39.9047 34.3727V8.67287C39.9047 8.60646 39.8915 8.52677 39.8782 8.46036C39.8915 8.39395 39.9047 8.32754 39.9047 8.24786V5.16653H39.918ZM27.7256 9.57601H31.192V32.8719H27.7256V9.57601ZM32.5069 40.2166L28.9076 35.4884H36.1062L32.5069 40.2166ZM37.2883 32.8719H33.8218V9.57601H37.2883V32.8719ZM37.2883 6.94626H27.7256V5.16653C27.7256 3.77197 28.8678 2.62975 30.2623 2.62975H34.7648C36.1593 2.62975 37.3016 3.77197 37.3016 5.16653V6.94626H37.2883Z" fill="#A11D54"/>
</svg>
