<svg width="65" height="65" viewBox="0 0 65 65" fill="none" xmlns="http://www.w3.org/2000/svg">
<path d="M15.4768 59.5248C17.3351 59.5248 18.835 58.0116 18.835 56.1666V49.6095C18.835 47.7512 17.3218 46.2513 15.4768 46.2513H10.6187V37.2519H31.2988V46.2513H26.4407C24.5824 46.2513 23.0825 47.7645 23.0825 49.6095V56.1666C23.0825 58.0249 24.5957 59.5248 26.4407 59.5248H38.5593C40.4176 59.5248 41.9175 58.0116 41.9175 56.1666V49.6095C41.9175 47.7512 40.4043 46.2513 38.5593 46.2513H33.7012V37.2519H54.3813V46.2513H49.5232C47.6649 46.2513 46.165 47.7645 46.165 49.6095V56.1666C46.165 58.0249 47.6782 59.5248 49.5232 59.5248H61.6418C63.5001 59.5248 65 58.0116 65 56.1666V49.6095C65 47.7512 63.4868 46.2513 61.6418 46.2513H56.797V36.0573C56.797 35.3937 56.2528 34.8494 55.5891 34.8494H33.7145V28.5711H43.5369C45.9659 28.5711 47.9436 26.5934 47.9436 24.1643V9.88212C47.9436 7.45308 45.9659 5.47534 43.5369 5.47534H21.4764C19.0474 5.47534 17.0696 7.45308 17.0696 9.88212V24.1511C17.0696 26.5801 19.0474 28.5578 21.4764 28.5578H31.2988V34.8362H9.41086C8.74719 34.8362 8.20298 35.3804 8.20298 36.0441V46.238H3.35818C1.4999 46.238 0 47.7512 0 49.5962V56.1533C0 58.0116 1.51317 59.5115 3.35818 59.5115H15.4768V59.5248ZM39.515 49.6095V56.1666C39.515 56.6975 39.0903 57.1223 38.5593 57.1223H26.4407C25.9097 57.1223 25.485 56.6975 25.485 56.1666V49.6095C25.485 49.0786 25.9097 48.6538 26.4407 48.6538H38.5593C39.0903 48.6405 39.515 49.0786 39.515 49.6095ZM62.6108 49.6095V56.1666C62.6108 56.6975 62.186 57.1223 61.6551 57.1223H49.5365C49.0055 57.1223 48.5808 56.6975 48.5808 56.1666V49.6095C48.5808 49.0786 49.0055 48.6538 49.5365 48.6538H61.6551C62.186 48.6405 62.6108 49.0786 62.6108 49.6095ZM19.4721 24.1511V9.88212C19.4721 8.78043 20.3747 7.87783 21.4764 7.87783H43.5369C44.6386 7.87783 45.5411 8.78043 45.5411 9.88212V24.1511C45.5411 25.2528 44.6386 26.1553 43.5369 26.1553H21.4764C20.3747 26.1553 19.4721 25.2528 19.4721 24.1511ZM2.40249 56.1666V49.6095C2.40249 49.0786 2.82724 48.6538 3.35818 48.6538H15.4768C16.0078 48.6538 16.4325 49.0786 16.4325 49.6095V56.1666C16.4325 56.6975 16.0078 57.1223 15.4768 57.1223H3.35818C2.82724 57.1223 2.40249 56.6975 2.40249 56.1666Z" fill="#535353"/>
<path d="M18.4 9.40003C18.4 7.96408 19.5641 6.80002 21 6.80002H44C45.4359 6.80002 46.6 7.96408 46.6 9.40002V24.7C46.6 26.136 45.4359 27.3 44 27.3H21C19.5641 27.3 18.4 26.136 18.4 24.7V9.40003Z" stroke="#A11D54" stroke-width="2.8"/>
</svg>
