<svg width="65" height="65" viewBox="0 0 65 65" fill="none" xmlns="http://www.w3.org/2000/svg">
<path d="M57.1837 11.3557H44.4865C43.756 11.3557 43.1716 11.9401 43.1716 12.6706C43.1716 13.4011 43.756 13.9855 44.4865 13.9855H57.1837C58.6181 13.9855 59.7869 15.1543 59.7869 16.5887V49.2348C59.7869 50.6692 58.6181 51.838 57.1837 51.838H7.82937C6.39496 51.838 5.22619 50.6692 5.22619 49.2348V16.5887C5.22619 15.1543 6.39496 13.9855 7.82937 13.9855H20.7258C21.4563 13.9855 22.0407 13.4011 22.0407 12.6706C22.0407 11.9401 21.4563 11.3557 20.7258 11.3557H7.82937C4.94727 11.3557 2.59644 13.7066 2.59644 16.5887V49.2348C2.59644 52.1169 4.94727 54.4677 7.82937 54.4677H31.1917V62.3703H20.2742C19.5437 62.3703 18.9593 62.9546 18.9593 63.6851C18.9593 64.4156 19.5437 65 20.2742 65H44.7256C45.4561 65 46.0404 64.4156 46.0404 63.6851C46.0404 62.9546 45.4561 62.3703 44.7256 62.3703H33.8081V54.4677H57.1704C60.0525 54.4677 62.4033 52.1169 62.4033 49.2348V16.5887C62.4166 13.7066 60.0658 11.3557 57.1837 11.3557Z" fill="white"/>
<path d="M39.9175 5.16653C39.9175 2.32428 37.6065 0 34.751 0H30.2486C27.4063 0 25.082 2.31099 25.082 5.16653V8.26114C25.082 8.34083 25.0953 8.42052 25.1086 8.48692C25.0953 8.56661 25.082 8.63302 25.082 8.71271V34.3727C25.082 34.6649 25.175 34.9438 25.3477 35.1696L31.4439 43.1784C31.6963 43.5104 32.0814 43.6964 32.4931 43.6964C32.9049 43.6964 33.29 43.5104 33.5424 43.1784L39.6386 35.1696C39.8113 34.9438 39.9043 34.6649 39.9043 34.3727V8.67287C39.9043 8.60646 39.891 8.52677 39.8777 8.46036C39.891 8.39395 39.9043 8.32754 39.9043 8.24786V5.16653H39.9175ZM27.7251 9.57601H31.1916V32.8719H27.7251V9.57601ZM32.5064 40.2166L28.9071 35.4884H36.1057L32.5064 40.2166ZM37.2878 32.8719H33.8213V9.57601H37.2878V32.8719ZM37.2878 6.94626H27.7251V5.16653C27.7251 3.77197 28.8673 2.62975 30.2618 2.62975H34.7643C36.1589 2.62975 37.3011 3.77197 37.3011 5.16653V6.94626H37.2878Z" fill="#A11D54"/>
</svg>
