<svg width="65" height="65" viewBox="0 0 65 65" fill="none" xmlns="http://www.w3.org/2000/svg">
<path d="M26.5199 23.3904H10.9263C10.197 23.3904 9.61353 23.9738 9.61353 24.7031V40.2968C9.61353 41.0261 10.197 41.6095 10.9263 41.6095H26.5199C27.2492 41.6095 27.8326 41.0261 27.8326 40.2968V24.7031C27.8326 23.9738 27.2492 23.3904 26.5199 23.3904ZM25.2072 38.984H12.239V26.0159H25.2072V38.984Z" fill="white"/>
<path d="M10.9263 65H26.5199C27.2492 65 27.8326 64.4165 27.8326 63.6873V57.2032H54.0739C54.8032 57.2032 55.3867 56.6197 55.3867 55.8904V8.83108C55.3867 8.10178 54.8032 7.51835 54.0739 7.51835H37.4726L40.1776 4.81333C40.6947 4.29619 40.6947 3.47408 40.1776 2.95694C39.6604 2.43981 38.8383 2.43981 38.3212 2.95694L33.3753 7.90288C32.8581 8.42002 32.8581 9.24213 33.3753 9.75927L38.3212 14.7052C38.5731 14.9571 38.9179 15.0897 39.2494 15.0897C39.5809 15.0897 39.9256 14.9571 40.1776 14.7052C40.6947 14.1881 40.6947 13.366 40.1776 12.8488L37.4726 10.1438H52.7612V54.5777H27.8326V48.0936C27.8326 47.3643 27.2492 46.7809 26.5199 46.7809H10.9263C10.197 46.7809 9.61353 47.3643 9.61353 48.0936V63.6873C9.61353 64.4033 10.2102 65 10.9263 65ZM12.239 49.4064H25.2072V62.3745H12.239V49.4064Z" fill="white"/>
<path d="M27.8326 1.31273C27.8326 0.583435 27.2492 0 26.5199 0H10.9263C10.197 0 9.61353 0.583435 9.61353 1.31273V16.9064C9.61353 17.6357 10.197 18.2191 10.9263 18.2191H26.5199C27.2492 18.2191 27.8326 17.6357 27.8326 16.9064V1.31273ZM25.2072 15.5936H12.239V2.62546H25.2072V15.5936Z" fill="#A11D54"/>
</svg>
