<svg width="65" height="65" viewBox="0 0 65 65" fill="none" xmlns="http://www.w3.org/2000/svg">
<path d="M58.776 4.04757C58.776 1.81809 56.9579 0 54.7284 0H10.2981C8.06858 0 6.25049 1.81809 6.25049 4.04757V13.2176C6.25049 14.3191 6.70169 15.3277 7.41831 16.0576C6.70169 16.7875 6.25049 17.796 6.25049 18.8975V28.0676C6.25049 29.169 6.70169 30.1776 7.41831 30.9075C6.70169 31.6374 6.25049 32.646 6.25049 33.7474V42.9175C6.25049 45.147 8.06858 46.9651 10.2981 46.9651H54.7284C56.9579 46.9651 58.776 45.147 58.776 42.9175V33.7474C58.776 32.646 58.3248 31.6374 57.6082 30.9075C58.3248 30.1776 58.776 29.169 58.776 28.0676V18.8975C58.776 17.796 58.3248 16.7875 57.6082 16.0576C58.3248 15.3277 58.776 14.3191 58.776 13.2176V4.04757ZM8.65249 4.04757C8.65249 3.14516 9.38238 2.41527 10.2848 2.41527H54.7152C55.6176 2.41527 56.3607 3.14516 56.3607 4.04757V13.2176C56.3607 14.12 55.6308 14.8632 54.7152 14.8632H10.2981C9.39565 14.8632 8.66576 14.1333 8.66576 13.2176V4.04757H8.65249ZM56.374 18.8975V28.0676C56.374 28.97 55.6441 29.6999 54.7284 29.6999H10.2981C9.39565 29.6999 8.66576 28.97 8.66576 28.0676V18.8975C8.66576 17.9951 9.39565 17.2652 10.2981 17.2652H54.7284C55.6309 17.2652 56.374 17.9951 56.374 18.8975ZM56.374 42.9175C56.374 43.8199 55.6441 44.5498 54.7284 44.5498H10.2981C9.39565 44.5498 8.66576 43.8199 8.66576 42.9175V33.7474C8.66576 32.845 9.39565 32.1151 10.2981 32.1151H54.7284C55.6309 32.1151 56.374 32.845 56.374 33.7474V42.9175Z" fill="#535353"/>
<path d="M31.9825 9.83361H46.9785C47.642 9.83361 48.1861 9.28951 48.1861 8.62597C48.1861 7.96243 47.642 7.41833 46.9785 7.41833H31.9825C31.319 7.41833 30.7749 7.96243 30.7749 8.62597C30.7749 9.28951 31.319 9.83361 31.9825 9.83361Z" fill="#535353"/>
<path d="M19.747 10.0724C20.5385 10.0724 21.1802 9.43072 21.1802 8.63917C21.1802 7.84761 20.5385 7.20593 19.747 7.20593C18.9554 7.20593 18.3137 7.84761 18.3137 8.63917C18.3137 9.43072 18.9554 10.0724 19.747 10.0724Z" fill="#535353"/>
<path d="M31.9825 24.6835H46.9785C47.642 24.6835 48.1861 24.1394 48.1861 23.4759C48.1861 22.8123 47.642 22.2682 46.9785 22.2682H31.9825C31.319 22.2682 30.7749 22.8123 30.7749 23.4759C30.7882 24.1527 31.319 24.6835 31.9825 24.6835Z" fill="#535353"/>
<path d="M46.9785 37.1314H31.9825C31.319 37.1314 30.7749 37.6755 30.7749 38.339C30.7749 39.0026 31.319 39.5467 31.9825 39.5467H46.9785C47.642 39.5467 48.1861 39.0026 48.1861 38.339C48.1861 37.6755 47.642 37.1314 46.9785 37.1314Z" fill="#535353"/>
<path d="M19.747 24.9224C20.5385 24.9224 21.1802 24.2808 21.1802 23.4892C21.1802 22.6977 20.5385 22.056 19.747 22.056C18.9554 22.056 18.3137 22.6977 18.3137 23.4892C18.3137 24.2808 18.9554 24.9224 19.747 24.9224Z" fill="#535353"/>
<path d="M19.747 39.7724C20.5385 39.7724 21.1802 39.1307 21.1802 38.3391C21.1802 37.5476 20.5385 36.9059 19.747 36.9059C18.9554 36.9059 18.3137 37.5476 18.3137 38.3391C18.3137 39.1307 18.9554 39.7724 19.747 39.7724Z" fill="#535353"/>
<path d="M56.1087 55.4717C53.9058 55.4717 52.0479 56.9846 51.5038 59.0282H37.1183C36.6804 57.3694 35.3798 56.0689 33.721 55.6309V51.8621C33.721 51.1985 33.1769 50.6544 32.5134 50.6544C31.8498 50.6544 31.3057 51.1985 31.3057 51.8621V55.6309C29.6469 56.0689 28.3464 57.3694 27.9084 59.0282H13.4831C12.9523 56.9846 11.0944 55.4717 8.8782 55.4717C6.2506 55.4717 4.11401 57.6083 4.11401 60.2359C4.11401 62.8635 6.2506 65.0001 8.8782 65.0001C11.0811 65.0001 12.939 63.4872 13.4831 61.4435H27.9084C28.4393 63.4872 30.2972 65.0001 32.5134 65.0001C34.7296 65.0001 36.5742 63.4872 37.1183 61.4435H51.517C52.0479 63.4872 53.9058 65.0001 56.122 65.0001C58.7496 65.0001 60.8862 62.8635 60.8862 60.2359C60.8862 57.6083 58.7363 55.4717 56.1087 55.4717ZM8.89147 62.5848C7.59094 62.5848 6.52929 61.5231 6.52929 60.2226C6.52929 58.9221 7.59094 57.8604 8.89147 57.8604C10.192 57.8604 11.2537 58.9221 11.2537 60.2226C11.2537 61.5231 10.1787 62.5848 8.89147 62.5848ZM32.5134 62.5848C31.2128 62.5848 30.1512 61.5231 30.1512 60.2226C30.1512 58.9221 31.2128 57.8604 32.5134 57.8604C33.8139 57.8604 34.8755 58.9221 34.8755 60.2226C34.8755 61.5231 33.8139 62.5848 32.5134 62.5848ZM56.1087 62.5848C54.8082 62.5848 53.7465 61.5231 53.7465 60.2226C53.7465 58.9221 54.8082 57.8604 56.1087 57.8604C57.4092 57.8604 58.4709 58.9221 58.4709 60.2226C58.4709 61.5231 57.4092 62.5848 56.1087 62.5848Z" fill="#A11D54"/>
</svg>
