<svg width="35" height="35" viewBox="0 0 35 35" fill="none" xmlns="http://www.w3.org/2000/svg">
<g clip-path="url(#clip0)">
<path d="M31.9238 14.4238C30.5871 14.4238 29.4474 15.2813 29.0239 16.4746H26.6711C26.4738 14.6973 25.7699 13.0708 24.7071 11.7431L26.3256 10.1247C27.4695 10.6697 28.8805 10.4699 29.826 9.52438C31.0253 8.32489 31.0253 6.37344 29.826 5.17395C28.6268 3.97472 26.6751 3.97446 25.4756 5.17395C24.5303 6.11923 24.3309 7.53128 24.8753 8.67443L23.2569 10.2929C21.9292 9.23012 20.3027 8.52623 18.5254 8.3289V5.9761C19.719 5.5526 20.5762 4.41292 20.5762 3.07617C20.5762 1.38 19.1962 0 17.5 0C15.8038 0 14.4238 1.38 14.4238 3.07617C14.4238 4.41292 15.281 5.5526 16.4746 5.9761V8.3289C14.6973 8.52623 13.0708 9.23012 11.7431 10.2929L10.1247 8.6747C10.6691 7.53128 10.4694 6.11923 9.52438 5.17395C8.32489 3.97472 6.37344 3.97472 5.17395 5.17395C3.97472 6.37344 3.97472 8.32489 5.17395 9.52438C5.7737 10.1241 6.56143 10.424 7.34917 10.424C7.80285 10.424 8.25653 10.3239 8.67443 10.1247L10.2929 11.7431C9.23012 13.0708 8.52623 14.6973 8.3289 16.4746H5.9761C5.5526 15.2813 4.41292 14.4238 3.07617 14.4238C1.38 14.4238 0 15.8038 0 17.5C0 19.1962 1.38 20.5762 3.07617 20.5762C4.41292 20.5762 5.5526 19.7187 5.9761 18.5254H8.3289C8.52623 20.3027 9.23012 21.9292 10.2929 23.2569L8.67443 24.8753C7.53128 24.3306 6.11923 24.5303 5.17395 25.4756C3.97472 26.6751 3.97472 28.6266 5.17395 29.826C6.37318 31.0253 8.32489 31.0253 9.52438 29.826C10.4697 28.8808 10.6691 27.4685 10.1247 26.3253L11.7431 24.7071C13.1079 25.7995 14.7424 26.4788 16.4746 26.6711V29.0239C15.281 29.4474 14.4238 30.5871 14.4238 31.9238C14.4238 33.62 15.8038 35 17.5 35C19.1962 35 20.5762 33.62 20.5762 31.9238C20.5762 30.5871 19.719 29.4474 18.5254 29.0239V26.6711C20.2597 26.4786 21.894 25.7982 23.2569 24.7071L24.8753 26.3253C24.3309 27.4687 24.5306 28.8808 25.4756 29.826C26.6751 31.0253 28.6266 31.0255 29.826 29.826C31.0253 28.6266 31.0253 26.6751 29.826 25.4756C28.8808 24.5306 27.4687 24.3306 26.3256 24.8753L24.7071 23.2571C25.7699 21.9292 26.4738 20.3027 26.6711 18.5254H29.0239C29.4474 19.7187 30.5871 20.5762 31.9238 20.5762C33.62 20.5762 35 19.1962 35 17.5C35 15.8038 33.62 14.4238 31.9238 14.4238ZM26.9258 6.62418C27.3264 6.22337 27.9753 6.22311 28.3758 6.62418C28.7758 7.02393 28.7758 7.67441 28.3761 8.07415C27.9761 8.47416 27.3256 8.47416 26.9258 8.07415C26.525 7.67334 26.525 7.02499 26.9258 6.62418ZM8.07415 8.07415C7.67441 8.47416 7.02366 8.47389 6.62418 8.07415C6.22417 7.67441 6.22417 7.02393 6.62392 6.62392C7.02473 6.22337 7.67334 6.22311 8.07415 6.62392C8.47496 7.02499 8.47496 7.67334 8.07415 8.07415ZM3.07617 18.5254C2.51087 18.5254 2.05078 18.0653 2.05078 17.5C2.05078 16.9347 2.51087 16.4746 3.07617 16.4746C3.64147 16.4746 4.10156 16.9347 4.10156 17.5C4.10156 18.0653 3.64147 18.5254 3.07617 18.5254ZM8.07415 28.3758C7.67361 28.7766 7.02473 28.7769 6.62418 28.3758C6.22417 27.9761 6.22417 27.3256 6.62418 26.9258H6.62392C7.02393 26.5258 7.67441 26.5261 8.07415 26.9258C8.47496 27.3267 8.47496 27.975 8.07415 28.3758ZM17.5 2.05078C18.0653 2.05078 18.5254 2.51087 18.5254 3.07617C18.5254 3.64147 18.0653 4.10156 17.5 4.10156C16.9347 4.10156 16.4746 3.64147 16.4746 3.07617C16.4746 2.51087 16.9347 2.05078 17.5 2.05078ZM17.5 32.9492C16.9347 32.9492 16.4746 32.4891 16.4746 31.9238C16.4746 31.3585 16.9347 30.8984 17.5 30.8984C18.0653 30.8984 18.5254 31.3585 18.5254 31.9238C18.5254 32.4891 18.0653 32.9492 17.5 32.9492ZM20.5762 23.9843C19.6434 24.4286 18.6002 24.6777 17.5 24.6777C16.3998 24.6777 15.3566 24.4286 14.4238 23.9843V23.6523C14.4238 21.9562 15.8038 20.5762 17.5 20.5762C19.1962 20.5762 20.5762 21.9562 20.5762 23.6523V23.9843ZM15.4492 16.4746C15.4492 15.3437 16.3691 14.4238 17.5 14.4238C18.6309 14.4238 19.5508 15.3437 19.5508 16.4746C19.5508 17.6055 18.6309 18.5254 17.5 18.5254C16.3691 18.5254 15.4492 17.6055 15.4492 16.4746ZM22.5228 22.6221C22.2499 21.2886 21.4574 20.1423 20.3671 19.4039C21.1281 18.6589 21.6016 17.6212 21.6016 16.4746C21.6016 14.2129 19.7617 12.373 17.5 12.373C15.2383 12.373 13.3984 14.2129 13.3984 16.4746C13.3984 17.6212 13.8719 18.6589 14.6329 19.4039C13.5426 20.1423 12.7501 21.2886 12.4772 22.6221C11.1482 21.3185 10.3223 19.5041 10.3223 17.5C10.3223 13.5421 13.5421 10.3223 17.5 10.3223C21.4579 10.3223 24.6777 13.5421 24.6777 17.5C24.6777 19.5041 23.8518 21.3185 22.5228 22.6221ZM26.9258 26.9258C27.3256 26.5261 27.9761 26.5258 28.3758 26.9258C28.7758 27.3256 28.7758 27.9761 28.3761 28.3761C27.9753 28.7766 27.3267 28.7769 26.9258 28.3761C26.525 27.975 26.525 27.3267 26.9258 26.9258ZM31.9238 18.5254C31.3585 18.5254 30.8984 18.0653 30.8984 17.5C30.8984 16.9347 31.3585 16.4746 31.9238 16.4746C32.4891 16.4746 32.9492 16.9347 32.9492 17.5C32.9492 18.0653 32.4891 18.5254 31.9238 18.5254Z" fill="#A11D54"/>
</g>
<defs>
<clipPath id="clip0">
<rect width="35" height="35" fill="white"/>
</clipPath>
</defs>
</svg>
