<svg width="25" height="25" viewBox="0 0 25 25" fill="none" xmlns="http://www.w3.org/2000/svg">
<path d="M20.0278 23.0541V1.94076C20.0278 0.87334 19.1596 0 18.0871 0H6.91243C5.84502 0 4.97168 0.868233 4.97168 1.94076V23.0592C4.97168 24.1267 5.83991 25 6.91243 25H18.0871C19.1545 24.9949 20.0278 24.1267 20.0278 23.0541ZM6.22296 4.49949H18.7715V18.7079H6.22296V4.49949ZM6.91243 1.25128H18.0871C18.465 1.25128 18.7766 1.55771 18.7766 1.94076V3.24821H6.22296V1.94076C6.22296 1.55771 6.5345 1.25128 6.91243 1.25128ZM6.22296 23.0541V19.954H18.7715V23.0541C18.7715 23.4321 18.465 23.7436 18.082 23.7436H6.91243C6.5345 23.7436 6.22296 23.4372 6.22296 23.0541Z" fill="#535353"/>
<path d="M13.7661 21.2767H11.2278C10.8805 21.2767 10.5996 21.5576 10.5996 21.9049C10.5996 22.2522 10.8805 22.5331 11.2278 22.5331H13.7661C14.1134 22.5331 14.3943 22.2522 14.3943 21.9049C14.3943 21.5576 14.1134 21.2767 13.7661 21.2767Z" fill="#535353"/>
</svg>
