<?xml version="1.0" encoding="UTF-8"?>
<svg width="272px" height="225px" viewBox="0 0 272 225" version="1.1" xmlns="http://www.w3.org/2000/svg" xmlns:xlink="http://www.w3.org/1999/xlink">
    <!-- Generator: sketchtool 51.2 (57519) - http://www.bohemiancoding.com/sketch -->
    <title>A0C94C5D-80D3-49E3-A00D-E859D9572D10</title>
    <desc>Created with sketchtool.</desc>
    <defs>
        <linearGradient x1="-22.6055794%" y1="45.3976415%" x2="95.811588%" y2="55.6726415%" id="linearGradient-1">
            <stop stop-color="#AACEFC" offset="1.530612%"></stop>
            <stop stop-color="#FFFFFF" offset="100%"></stop>
        </linearGradient>
        <linearGradient x1="74.6321676%" y1="91.1338357%" x2="33.17271%" y2="1.6064513%" id="linearGradient-2">
            <stop stop-color="#9855FC" offset="0%"></stop>
            <stop stop-color="#752EE5" offset="100%"></stop>
        </linearGradient>
        <linearGradient x1="37.7978121%" y1="90.9046446%" x2="65.7458754%" y2="-4.14645402%" id="linearGradient-3">
            <stop stop-color="#FFC000" offset="0%"></stop>
            <stop stop-color="#FFEB23" offset="100%"></stop>
        </linearGradient>
        <linearGradient x1="1.66602564%" y1="10.6487179%" x2="121.694872%" y2="109.496154%" id="linearGradient-4">
            <stop stop-color="#FF840C" offset="0%"></stop>
            <stop stop-color="#FFEB23" stop-opacity="0" offset="100%"></stop>
        </linearGradient>
    </defs>
    <g id="Mobile" stroke="none" stroke-width="1" fill="none" fill-rule="evenodd">
        <g id="company-mobile" transform="translate(-71.000000, -1900.000000)" fill-rule="nonzero">
            <g id="3" transform="translate(20.000000, 1900.000000)">
                <g id="illustration-3" transform="translate(51.000000, 0.000000)">
                    <path d="M139.250314,76.3442768 C141.474214,80.2473381 144.553459,83.471606 148.48805,85.5079858 C144.553459,87.7140639 141.303145,90.7686335 139.250314,94.6716948 C137.026415,90.7686335 133.94717,87.5443656 130.012579,85.5079858 C133.776101,83.3019077 137.026415,80.0776398 139.250314,76.3442768 Z" id="Shape" fill="#E1E8FF"></path>
                    <path d="M155.501887,50.3804348 C156.699371,52.5865129 158.581132,54.4531943 160.805031,55.6410825 C158.581132,56.8289707 156.699371,58.6956522 155.501887,60.9017303 C154.304403,58.6956522 152.422642,56.8289707 150.198742,55.6410825 C152.422642,54.4531943 154.304403,52.5865129 155.501887,50.3804348 Z" id="Shape" fill="#E1E8FF"></path>
                    <polygon id="Shape" fill="url(#linearGradient-1)" points="148.316981 132.853815 128.644025 160.684339 133.091824 168.829858 168.503145 162.381322"></polygon>
                    <path d="M140.447799,181.557232 L135.657862,184.272405 C135.315723,184.442103 134.802516,184.442103 134.460377,183.933008 L113.932075,148.46606 C113.761006,148.126664 113.761006,147.617569 114.274214,147.278172 L119.064151,144.562999 C119.406289,144.393301 119.919497,144.393301 120.261635,144.902396 L140.789937,180.369343 C140.961006,180.878438 140.789937,181.387533 140.447799,181.557232 Z" id="Shape" fill="#9855FC"></path>
                    <polygon id="Shape" fill="#E1E8FF" points="29.4238994 54.7925909 22.5811321 88.0534605 44.6490566 85.5079858 45.5044025 61.2411269"></polygon>
                    <path d="M76.1257862,36.6348713 C76.1257862,38.6712511 67.9144654,56.4895741 67.2301887,59.5441437 C66.5459119,62.5987134 41.5698113,74.4775954 37.1220126,57.507764 C32.6742138,40.3682343 31.9899371,24.0771961 40.0301887,17.9680568 C48.0704403,11.8589175 77.1522013,0.998225377 76.1257862,36.6348713 Z" id="Shape" fill="#FFFFFF"></path>
                    <path d="M96.8251572,37.8227595 C104.52327,34.4287933 95.4566038,19.6650399 86.7320755,15.5922804 C96.1408805,17.4589618 97.1672956,13.216504 89.127044,8.29525288 C81.0867925,3.37400177 74.7572327,0.998225377 66.7169811,2.69520852 C58.6767296,4.39219166 55.9396226,8.80434783 50.636478,3.37400177 C45.5044025,-2.05634428 36.7798742,-0.359361136 31.1345912,5.24068323 C25.4893082,10.8407276 26.3446541,15.7619787 27.5421384,20.3438332 C28.7396226,24.9256877 24.4628931,26.4529725 20.8704403,29.1681455 C17.2779874,32.0530169 24.6339623,39.0106477 26.6867925,42.2349157 C28.7396226,45.4591837 19.1597484,57.3380657 29.7660377,59.0350488 C29.081761,65.8229814 37.9773585,74.1381988 39.6880503,66.162378 C45.3333333,78.7200532 53.5446541,78.3806566 56.9660377,72.6109139 C62.4402516,78.7200532 68.2566038,67.8593611 67.9144654,62.93811 C67.572327,58.0168589 62.0981132,51.059228 56.4528302,50.3804348 C50.8075472,49.5319432 46.1886792,49.3622449 42.2540881,51.7380213 C38.3194969,54.1137977 38.1484277,43.0834073 39.0037736,39.8591393 C39.8591195,36.6348713 43.2805031,38.1621562 43.6226415,30.6954303 C43.9647799,23.3984028 45.1622642,19.8347382 48.2415094,19.6650399 C67.7433962,18.1377551 72.7044025,48.344055 96.8251572,37.8227595 Z" id="Shape" fill="#22134A"></path>
                    <path d="M31.1345912,46.1379769 L31.9899371,39.1803461 C32.1610063,38.5015528 31.6477987,37.8227595 30.7924528,37.6530612 C28.2264151,37.1439663 22.9232704,36.6348713 22.4100629,41.0470275 C21.8968553,45.119787 24.4628931,46.1379769 29.2528302,47.1561668 C30.2792453,47.4955634 31.1345912,46.8167702 31.1345912,46.1379769 Z" id="Shape" fill="#FFFFFF"></path>
                    <path d="M57.1371069,41.5561224 C55.0842767,42.0652174 52.3471698,45.628882 52.6893082,50.0410382 C53.0314465,54.6228926 56.281761,56.3198758 59.1899371,55.4713842 C62.0981132,54.6228926 61.0716981,52.2471162 60.9006289,48.0046584 C60.5584906,43.7622005 59.8742138,40.8773292 57.1371069,41.5561224 Z" id="Shape" fill="#FF008D"></path>
                    <ellipse id="Oval" fill="#211648" transform="translate(66.904764, 44.322103) rotate(-77.272940) translate(-66.904764, -44.322103) " cx="66.9047638" cy="44.3221031" rx="2.2238296" ry="1.86662289"></ellipse>
                    <ellipse id="Oval" fill="#211648" transform="translate(50.086816, 38.415312) rotate(-77.272940) translate(-50.086816, -38.415312) " cx="50.0868156" cy="38.4153121" rx="2.2238296" ry="1.86662289"></ellipse>
                    <path d="M53.0314465,61.7502218 C51.3207547,61.7502218 50.2943396,61.0714286 49.4389937,60.3926353 C47.8993711,58.8653505 47.5572327,56.4895741 47.8993711,55.3016859 L49.6100629,55.8107808 C49.4389937,56.3198758 49.6100629,58.0168589 50.8075472,59.2047471 C51.8339623,60.222937 53.2025157,60.3926353 54.7421384,59.8835404 L55.2553459,61.5805235 C54.4,61.7502218 53.7157233,61.7502218 53.0314465,61.7502218 Z" id="Shape" fill="#FFFFFF"></path>
                    <path d="M49.2679245,30.6954303 C48.4125786,29.5075421 53.7157233,26.2832742 55.5974843,29.3378438 C57.1371069,32.0530169 49.4389937,31.2045253 49.2679245,30.6954303 Z" id="Shape" fill="#211648"></path>
                    <path d="M70.9937107,40.1985359 C72.0201258,39.8591393 70.309434,35.7863798 68.0855346,36.8045697 C66.0327044,37.6530612 70.6515723,40.3682343 70.9937107,40.1985359 Z" id="Shape" fill="#211648"></path>
                    <path d="M61.2427673,183.254215 L40.2012579,77.3624667 C40.2012579,77.3624667 19.672956,72.4412156 9.7509434,96.5383762 C-0.171069182,120.635537 -4.78993711,183.084516 8.38238994,217.363576 L67.7433962,217.363576 L61.2427673,183.254215 Z" id="Shape" fill="#9855FC"></path>
                    <path d="M24.8050314,135.738687 C24.8050314,135.738687 37.6352201,198.187666 62.9534591,198.187666 C88.2716981,198.187666 112.90566,117.920364 112.90566,117.920364 L103.496855,104.683895 C103.496855,104.683895 74.072956,151.690328 65.5194969,151.52063 C56.9660377,151.350932 60.9006289,78.3806566 40.2012579,77.3624667 C19.3308176,76.3442768 20.5283019,113.508208 24.8050314,135.738687 Z" id="Shape" fill="#9855FC"></path>
                    <path d="M64.4930818,199.88465 C53.5446541,199.88465 43.6226415,189.193656 35.0691824,168.151065 C28.7396226,152.708518 25.4893082,136.926575 25.4893082,136.756877 L27.2,136.41748 C27.3710692,137.096273 40.2012579,198.187666 64.4930818,198.187666 L64.4930818,199.88465 Z" id="Shape" fill="#FFFFFF"></path>
                    <path d="M103.496855,104.683895 C103.496855,104.683895 107.944654,98.7444543 113.932075,100.271739 C119.748428,101.799024 123.169811,112.829414 130.696855,118.768855 C139.079245,125.556788 137.710692,129.120453 135.657862,130.308341 C131.72327,132.514419 122.998742,120.126442 119.919497,115.035492 C119.919497,115.035492 116.840252,119.787045 110.510692,118.25976 C104.181132,116.902174 103.496855,104.683895 103.496855,104.683895 Z" id="Shape" fill="#E1E8FF"></path>
                    <path d="M194.334591,117.920364 C194.334591,117.920364 201.690566,121.484028 203.230189,131.326531 C218.455346,133.193212 220.679245,126.744676 220.679245,126.744676 L206.309434,107.738465 L194.334591,117.920364 Z" id="Shape" fill="#E1E8FF"></path>
                    <path d="M234.706918,119.787045 C234.706918,119.787045 271.828931,140.659938 271.828931,222.624224 L192.966038,222.624224 L210.586164,199.036158 L203.401258,131.496229 L234.706918,119.787045 Z" id="Shape" fill="#22134A"></path>
                    <path d="M203.401258,131.326531 C203.401258,131.326531 210.757233,197.339175 178.425157,198.187666 C146.093082,199.036158 120.432704,160.175244 120.432704,160.175244 C120.432704,160.175244 109.484277,170.017746 124.196226,179.011757 C124.196226,179.011757 147.461635,228.05457 195.703145,222.793922 C222.732075,219.909051 231.114465,193.77551 235.904403,171.884428" id="Shape" fill="#22134A"></path>
                    <path d="M194.334591,224.830302 L194.163522,223.133319 C214.691824,220.92724 228.03522,204.127107 234.877987,171.884428 L236.588679,172.223824 C229.574843,205.314996 215.718239,222.454525 194.334591,224.830302 Z" id="Shape" fill="#FFFFFF"></path>
                    <path d="M170.727044,95.0110914 C170.727044,95.0110914 168.845283,110.793035 169.52956,111.641526 C170.213836,112.490018 176.030189,113.508208 178.425157,111.811224 C178.938365,109.944543 170.727044,95.0110914 170.727044,95.0110914 Z" id="Shape" fill="#E1E8FF"></path>
                    <path d="M166.621384,82.1140195 C175.174843,71.7624224 180.649057,63.2775067 194.67673,64.6350932 C211.441509,66.3320763 219.65283,89.5807453 229.745912,87.5443656 C239.838994,85.5079858 241.378616,95.0110914 236.246541,97.8959627 C233.680503,99.4232476 232.654088,99.4232476 231.798742,101.629326 C229.916981,106.720275 241.378616,106.550577 241.036478,114.526398 C240.52327,126.065883 214.691824,139.641748 206.651572,111.471828 C204.598742,90.7686335 166.621384,82.1140195 166.621384,82.1140195 Z" id="Shape" fill="url(#linearGradient-2)"></path>
                    <path d="M191.597484,64.2956965 C196.045283,56.3198758 205.625157,56.998669 210.072956,62.7684117 C214.520755,68.7078527 222.732075,64.4653949 225.127044,63.9562999 C227.522013,63.447205 227.522013,79.7382431 214.691824,79.7382431 C196.900629,79.5685448 191.597484,64.2956965 191.597484,64.2956965 Z" id="Shape" fill="#8F4BF6"></path>
                    <g id="Group" transform="translate(165.937107, 77.362467)">
                        <g id="XMLID_17_-link" fill="#FFFFFF">
                            <path d="M39.5169811,27.1517303 C41.7408805,34.9578527 36.7798742,46.1579414 27.3710692,47.6852263 C17.9622642,49.2125111 9.92201258,29.697205 6.8427673,22.5698758 C3.76352201,15.4425466 0.342138365,7.12732919 0.68427673,4.7515528 C1.02641509,2.3757764 20.6993711,-4.07275954 28.0553459,10.5212955 C31.1345912,16.4607365 33.0163522,19.1759095 33.0163522,19.1759095 C36.4377358,12.0485803 42.4251572,13.7455634 44.1358491,15.7819432 C46.5308176,18.6668146 46.5308176,22.4001775 39.5169811,27.1517303 Z" id="XMLID_17_"></path>
                        </g>
                        <path d="M22.5811321,36.1457409 C23.436478,34.9578527 24.1207547,33.2608696 23.7786164,31.0547915 L22.5811321,31.2244898 C23.0943396,33.9396628 21.7257862,35.8063443 20.5283019,36.6548358 C18.4754717,38.1821207 15.7383648,38.6912156 14.8830189,38.1821207 L14.3698113,39.3700089 C15.7383648,39.8791038 18.9886792,39.3700089 21.2125786,37.6730257 C21.554717,37.1639308 22.0679245,36.6548358 22.5811321,36.1457409 Z" id="Shape" fill="#C2CEF2"></path>
                    </g>
                    <ellipse id="Oval" fill="#211648" transform="translate(177.922744, 95.481665) rotate(-23.658247) translate(-177.922744, -95.481665) " cx="177.922744" cy="95.4816648" rx="2.05293046" ry="2.54559904"></ellipse>
                    <path d="M179.622642,87.5443656 C179.793711,85.8473824 175.003774,84.1503993 173.293082,87.2049689 C171.411321,90.2595386 179.280503,90.9383319 179.622642,87.5443656 Z" id="Shape" fill="#7832E7"></path>
                    <path d="M165.766038,81.7746229 C163.713208,75.8351819 174.148428,58.3562555 191.426415,64.1259982 C183.557233,67.3502662 177.91195,73.6291038 175.68805,77.532165 C172.950943,81.9443212 167.134591,85.8473824 165.766038,81.7746229 Z" id="Shape" fill="#8F4BF6"></path>
                    <path d="M190.913208,68.3684561 C187.833962,69.0472493 186.978616,64.6350932 188.860377,62.2593168 C190.742138,59.8835404 192.110692,61.4108252 192.623899,64.4653949 C192.794969,66.3320763 193.308176,67.8593611 190.913208,68.3684561 Z" id="Shape" fill="#FFDE18"></path>
                    <path d="M120.261635,160.344942 C120.261635,160.344942 109.313208,170.187445 124.025157,179.181455 L131.381132,174.090506 C124.538365,166.62378 120.261635,160.344942 120.261635,160.344942 Z" id="Shape" fill="#E1E8FF"></path>
                    <g id="Group" transform="translate(143.698113, 124.877995)">
                        <ellipse id="Oval" fill="url(#linearGradient-3)" cx="20.0150943" cy="19.1759095" rx="19.1597484" ry="19.0062112"></ellipse>
                        <ellipse id="Oval" fill="#FF9827" transform="translate(19.995610, 19.142360) rotate(-14.708858) translate(-19.995610, -19.142360) " cx="19.9956096" cy="19.1423601" rx="13.3430029" ry="13.2360783"></ellipse>
                        <ellipse id="Oval" fill="url(#linearGradient-4)" cx="20.0150943" cy="19.1759095" rx="13.3433962" ry="13.2364685"></ellipse>
                    </g>
                </g>
            </g>
        </g>
    </g>
</svg>