<?xml version="1.0" encoding="UTF-8"?>
<svg width="149px" height="124px" viewBox="0 0 149 124" version="1.1" xmlns="http://www.w3.org/2000/svg" xmlns:xlink="http://www.w3.org/1999/xlink">
    <!-- Generator: sketchtool 51.2 (57519) - http://www.bohemiancoding.com/sketch -->
    <title>C6996CAA-34C4-4C95-A0EB-479C28367C3D</title>
    <desc>Created with sketchtool.</desc>
    <defs>
        <linearGradient x1="-22.6055794%" y1="45.3976415%" x2="95.811588%" y2="55.6726415%" id="linearGradient-1">
            <stop stop-color="#AACEFC" offset="1.530612%"></stop>
            <stop stop-color="#FFFFFF" offset="100%"></stop>
        </linearGradient>
        <linearGradient x1="74.6321676%" y1="91.1338357%" x2="33.17271%" y2="1.6064513%" id="linearGradient-2">
            <stop stop-color="#9855FC" offset="0%"></stop>
            <stop stop-color="#752EE5" offset="100%"></stop>
        </linearGradient>
        <linearGradient x1="37.7978121%" y1="90.9046446%" x2="65.7458754%" y2="-4.14645402%" id="linearGradient-3">
            <stop stop-color="#FFC000" offset="0%"></stop>
            <stop stop-color="#FFEB23" offset="100%"></stop>
        </linearGradient>
        <linearGradient x1="1.66602564%" y1="10.6487179%" x2="121.694872%" y2="109.496154%" id="linearGradient-4">
            <stop stop-color="#FF840C" offset="0%"></stop>
            <stop stop-color="#FFEB23" stop-opacity="0" offset="100%"></stop>
        </linearGradient>
    </defs>
    <g id="Mobile" stroke="none" stroke-width="1" fill="none" fill-rule="evenodd">
        <g id="homepage-mobile" transform="translate(-131.000000, -1520.000000)" fill-rule="nonzero">
            <g id="2" transform="translate(20.000000, 1520.000000)">
                <g id="illustration-2" transform="translate(111.000000, 0.000000)">
                    <path d="M76.2805031,42.3278195 C77.4987421,44.4721805 79.1855346,46.243609 81.3408805,47.362406 C79.1855346,48.5744361 77.4050314,50.2526316 76.2805031,52.3969925 C75.0622642,50.2526316 73.3754717,48.481203 71.2201258,47.362406 C73.281761,46.1503759 75.0622642,44.3789474 76.2805031,42.3278195 Z" id="Shape" fill="#E1E8FF"></path>
                    <path d="M85.1830189,28.0631579 C85.8389937,29.275188 86.8698113,30.3007519 88.0880503,30.9533835 C86.8698113,31.606015 85.8389937,32.6315789 85.1830189,33.843609 C84.527044,32.6315789 83.4962264,31.606015 82.2779874,30.9533835 C83.4962264,30.3007519 84.527044,29.275188 85.1830189,28.0631579 Z" id="Shape" fill="#E1E8FF"></path>
                    <polygon id="Shape" fill="url(#linearGradient-1)" points="81.2471698 73.3744361 70.4704403 88.6646617 72.9069182 93.1398496 92.3050314 89.5969925"></polygon>
                    <path d="M76.936478,100.132331 L74.3125786,101.62406 C74.1251572,101.717293 73.8440252,101.717293 73.6566038,101.437594 L62.4113208,81.9518797 C62.3176101,81.7654135 62.3176101,81.4857143 62.5987421,81.2992481 L65.2226415,79.8075188 C65.4100629,79.7142857 65.691195,79.7142857 65.8786164,79.993985 L77.1238994,99.4796992 C77.2176101,99.7593985 77.1238994,100.039098 76.936478,100.132331 Z" id="Shape" fill="#9855FC"></path>
                    <polygon id="Shape" fill="#E1E8FF" points="16.118239 30.487218 12.3698113 48.7609023 24.4584906 47.362406 24.927044 34.0300752"></polygon>
                    <path d="M41.7012579,20.5112782 C41.7012579,21.6300752 37.2031447,31.4195489 36.8283019,33.0977444 C36.4534591,34.7759398 22.7716981,41.3022556 20.3352201,31.9789474 C17.8987421,22.562406 17.5238994,13.6120301 21.9283019,10.2556391 C26.3327044,6.89924812 42.263522,0.932330827 41.7012579,20.5112782 Z" id="Shape" fill="#FFFFFF"></path>
                    <path d="M53.0402516,21.1639098 C57.2572327,19.2992481 52.290566,11.1879699 47.5113208,8.95037594 C52.6654088,9.97593985 53.227673,7.64511278 48.8232704,4.94135338 C44.4188679,2.23759398 40.9515723,0.932330827 36.5471698,1.86466165 C32.1427673,2.79699248 30.6433962,5.22105263 27.7383648,2.23759398 C24.927044,-0.745864662 20.1477987,0.186466165 17.0553459,3.26315789 C13.9628931,6.33984962 14.4314465,9.04360902 15.0874214,11.5609023 C15.7433962,14.0781955 13.4006289,14.9172932 11.4327044,16.4090226 C9.46477987,17.993985 13.4943396,21.8165414 14.6188679,23.5879699 C15.7433962,25.3593985 10.4955975,31.8857143 16.3056604,32.8180451 C15.9308176,36.5473684 20.8037736,41.1157895 21.7408805,36.7338346 C24.8333333,43.6330827 29.3314465,43.4466165 31.2056604,40.2766917 C34.2044025,43.6330827 37.390566,37.6661654 37.2031447,34.962406 C37.0157233,32.2586466 34.0169811,28.4360902 30.9245283,28.0631579 C27.8320755,27.5969925 25.3018868,27.5037594 23.1465409,28.8090226 C20.991195,30.1142857 20.8974843,24.0541353 21.3660377,22.2827068 C21.8345912,20.5112782 23.708805,21.3503759 23.8962264,17.2481203 C24.0836478,13.2390977 24.7396226,11.281203 26.4264151,11.1879699 C37.109434,10.3488722 39.827044,26.9443609 53.0402516,21.1639098 Z" id="Shape" fill="#22134A"></path>
                    <path d="M17.0553459,25.7323308 L17.5238994,21.9097744 C17.6176101,21.5368421 17.336478,21.1639098 16.8679245,21.0706767 C15.4622642,20.7909774 12.5572327,20.5112782 12.2761006,22.9353383 C11.9949686,25.1729323 13.4006289,25.7323308 16.0245283,26.2917293 C16.5867925,26.4781955 17.0553459,26.1052632 17.0553459,25.7323308 Z" id="Shape" fill="#FFFFFF"></path>
                    <path d="M31.2993711,23.2150376 C30.1748428,23.4947368 28.6754717,25.4526316 28.8628931,27.8766917 C29.0503145,30.393985 30.8308176,31.3263158 32.4238994,30.8601504 C34.0169811,30.393985 33.454717,29.0887218 33.3610063,26.7578947 C33.1735849,24.4270677 32.7987421,22.8421053 31.2993711,23.2150376 Z" id="Shape" fill="#FF008D"></path>
                    <ellipse id="Oval" fill="#211648" transform="translate(36.650036, 24.734681) rotate(-77.272940) translate(-36.650036, -24.734681) " cx="36.650036" cy="24.7346809" rx="1.21820077" ry="1.02553173"></ellipse>
                    <ellipse id="Oval" fill="#211648" transform="translate(27.437263, 21.489461) rotate(-77.272940) translate(-27.437263, -21.489461) " cx="27.437263" cy="21.4894611" rx="1.21820077" ry="1.02553173"></ellipse>
                    <path d="M29.0503145,34.3097744 C28.1132075,34.3097744 27.5509434,33.9368421 27.0823899,33.5639098 C26.2389937,32.724812 26.0515723,31.4195489 26.2389937,30.7669173 L27.1761006,31.0466165 C27.0823899,31.3263158 27.1761006,32.2586466 27.8320755,32.9112782 C28.3943396,33.4706767 29.1440252,33.5639098 29.9874214,33.2842105 L30.2685535,34.2165414 C29.8,34.3097744 29.4251572,34.3097744 29.0503145,34.3097744 Z" id="Shape" fill="#FFFFFF"></path>
                    <path d="M26.9886792,17.2481203 C26.5201258,16.5954887 29.4251572,14.8240602 30.4559748,16.5022556 C31.2993711,17.993985 27.0823899,17.5278195 26.9886792,17.2481203 Z" id="Shape" fill="#211648"></path>
                    <path d="M38.8899371,22.4691729 C39.4522013,22.2827068 38.5150943,20.0451128 37.2968553,20.6045113 C36.172327,21.0706767 38.7025157,22.562406 38.8899371,22.4691729 Z" id="Shape" fill="#211648"></path>
                    <path d="M33.5484277,101.064662 L22.0220126,42.887218 C22.0220126,42.887218 10.7767296,40.1834586 5.34150943,53.4225564 C-0.0937106918,66.6616541 -2.62389937,100.971429 4.5918239,119.804511 L37.109434,119.804511 L33.5484277,101.064662 Z" id="Shape" fill="#9855FC"></path>
                    <path d="M13.5880503,74.9593985 C13.5880503,74.9593985 20.6163522,109.269173 34.4855346,109.269173 C48.354717,109.269173 61.8490566,65.1699248 61.8490566,65.1699248 L56.6949686,57.8977444 C56.6949686,57.8977444 40.5767296,83.7233083 35.891195,83.6300752 C31.2056604,83.5368421 33.3610063,43.4466165 22.0220126,42.887218 C10.5893082,42.3278195 11.245283,62.7458647 13.5880503,74.9593985 Z" id="Shape" fill="#9855FC"></path>
                    <path d="M35.3289308,110.201504 C29.3314465,110.201504 23.8962264,104.32782 19.2106918,92.7669173 C15.7433962,84.2827068 13.9628931,75.6120301 13.9628931,75.518797 L14.9,75.3323308 C14.9937107,75.7052632 22.0220126,109.269173 35.3289308,109.269173 L35.3289308,110.201504 Z" id="Shape" fill="#FFFFFF"></path>
                    <path d="M56.6949686,57.8977444 C56.6949686,57.8977444 59.1314465,54.6345865 62.4113208,55.4736842 C65.5974843,56.312782 67.4716981,62.3729323 71.5949686,65.6360902 C76.1867925,69.3654135 75.4371069,71.3233083 74.3125786,71.9759398 C72.1572327,73.1879699 67.3779874,66.3819549 65.691195,63.5849624 C65.691195,63.5849624 64.0044025,66.1954887 60.5371069,65.356391 C57.0698113,64.6105263 56.6949686,57.8977444 56.6949686,57.8977444 Z" id="Shape" fill="#E1E8FF"></path>
                    <path d="M106.455346,65.1699248 C106.455346,65.1699248 110.484906,67.1278195 111.328302,72.5353383 C119.668553,73.5609023 120.886792,70.0180451 120.886792,70.0180451 L113.015094,59.5759398 L106.455346,65.1699248 Z" id="Shape" fill="#E1E8FF"></path>
                    <path d="M128.571069,66.1954887 C128.571069,66.1954887 148.906289,77.6631579 148.906289,122.694737 L105.70566,122.694737 L115.357862,109.735338 L111.422013,72.6285714 L128.571069,66.1954887 Z" id="Shape" fill="#22134A"></path>
                    <path d="M111.422013,72.5353383 C111.422013,72.5353383 115.451572,108.803008 97.7402516,109.269173 C80.0289308,109.735338 65.972327,88.3849624 65.972327,88.3849624 C65.972327,88.3849624 59.9748428,93.7924812 68.0339623,98.7338346 C68.0339623,98.7338346 80.7786164,125.678195 107.205031,122.78797 C122.011321,121.203008 126.603145,106.845113 129.227044,94.8180451" id="Shape" fill="#22134A"></path>
                    <path d="M106.455346,123.906767 L106.361635,122.974436 C117.606918,121.762406 124.916352,112.532331 128.66478,94.8180451 L129.601887,95.0045113 C125.759748,113.184962 118.169182,122.601504 106.455346,123.906767 Z" id="Shape" fill="#FFFFFF"></path>
                    <path d="M93.5232704,52.5834586 C93.5232704,52.5834586 92.4924528,61.2541353 92.8672956,61.7203008 C93.2421384,62.1864662 96.4283019,62.7458647 97.7402516,61.8135338 C98.0213836,60.7879699 93.5232704,52.5834586 93.5232704,52.5834586 Z" id="Shape" fill="#E1E8FF"></path>
                    <path d="M91.2742138,45.4977444 C95.9597484,39.8105263 98.9584906,35.1488722 106.642767,35.8947368 C115.826415,36.8270677 120.324528,49.6 125.853459,48.481203 C131.38239,47.362406 132.225786,52.5834586 129.414465,54.1684211 C128.008805,55.0075188 127.446541,55.0075188 126.977987,56.2195489 C125.94717,59.0165414 132.225786,58.9233083 132.038365,63.3052632 C131.757233,69.6451128 117.606918,77.1037594 113.202516,61.6270677 C112.077987,50.2526316 91.2742138,45.4977444 91.2742138,45.4977444 Z" id="Shape" fill="url(#linearGradient-2)"></path>
                    <path d="M104.955975,35.7082707 C107.392453,31.3263158 112.640252,31.6992481 115.07673,34.8691729 C117.513208,38.1323308 122.011321,35.8015038 123.32327,35.5218045 C124.63522,35.2421053 124.63522,44.1924812 117.606918,44.1924812 C107.861006,44.0992481 104.955975,35.7082707 104.955975,35.7082707 Z" id="Shape" fill="#8F4BF6"></path>
                    <g id="Group" transform="translate(90.899371, 42.887218)">
                        <g id="XMLID_17_-link" fill="#FFFFFF">
                            <path d="M21.6471698,14.9172932 C22.8654088,19.206015 20.1477987,25.3593985 14.9937107,26.1984962 C9.83962264,27.037594 5.43522013,16.3157895 3.74842767,12.4 C2.06163522,8.48421053 0.187421384,3.91578947 0.374842767,2.61052632 C0.562264151,1.30526316 11.3389937,-2.23759398 15.3685535,5.78045113 C17.0553459,9.04360902 18.0861635,10.5353383 18.0861635,10.5353383 C19.9603774,6.61954887 23.2402516,7.5518797 24.1773585,8.67067669 C25.4893082,10.2556391 25.4893082,12.3067669 21.6471698,14.9172932 Z" id="XMLID_17_"></path>
                        </g>
                        <path d="M12.3698113,19.8586466 C12.8383648,19.206015 13.2132075,18.2736842 13.0257862,17.0616541 L12.3698113,17.1548872 C12.6509434,18.6466165 11.9012579,19.6721805 11.245283,20.1383459 C10.1207547,20.9774436 8.62138365,21.2571429 8.15283019,20.9774436 L7.87169811,21.6300752 C8.62138365,21.9097744 10.4018868,21.6300752 11.6201258,20.6977444 C11.8075472,20.4180451 12.0886792,20.1383459 12.3698113,19.8586466 Z" id="Shape" fill="#C2CEF2"></path>
                    </g>
                    <ellipse id="Oval" fill="#211648" transform="translate(97.465033, 52.841994) rotate(-23.658247) translate(-97.465033, -52.841994) " cx="97.4650326" cy="52.841994" rx="1.12458323" ry="1.39856455"></ellipse>
                    <path d="M98.3962264,48.481203 C98.4899371,47.5488722 95.8660377,46.6165414 94.9289308,48.2947368 C93.8981132,49.9729323 98.208805,50.3458647 98.3962264,48.481203 Z" id="Shape" fill="#7832E7"></path>
                    <path d="M90.8056604,45.3112782 C89.6811321,42.0481203 95.3974843,32.4451128 104.862264,35.6150376 C100.551572,37.3864662 97.4591195,40.8360902 96.2408805,42.9804511 C94.7415094,45.4045113 91.5553459,47.5488722 90.8056604,45.3112782 Z" id="Shape" fill="#8F4BF6"></path>
                    <path d="M104.581132,37.9458647 C102.89434,38.318797 102.425786,35.8947368 103.456604,34.5894737 C104.487421,33.2842105 105.237107,34.1233083 105.518239,35.8015038 C105.61195,36.8270677 105.893082,37.6661654 104.581132,37.9458647 Z" id="Shape" fill="#FFDE18"></path>
                    <path d="M65.8786164,88.4781955 C65.8786164,88.4781955 59.8811321,93.8857143 67.9402516,98.8270677 L71.9698113,96.0300752 C68.2213836,91.9278195 65.8786164,88.4781955 65.8786164,88.4781955 Z" id="Shape" fill="#E1E8FF"></path>
                    <g id="Group" transform="translate(78.716981, 68.992481)">
                        <ellipse id="Oval" fill="url(#linearGradient-3)" cx="10.9641509" cy="10.5353383" rx="10.4955975" ry="10.4421053"></ellipse>
                        <ellipse id="Oval" fill="#FF9827" transform="translate(10.953477, 10.516906) rotate(-14.708858) translate(-10.953477, -10.516906) " cx="10.9534773" cy="10.5169062" rx="7.30921851" ry="7.2719661"></ellipse>
                        <ellipse id="Oval" fill="url(#linearGradient-4)" cx="10.9641509" cy="10.5353383" rx="7.30943396" ry="7.27218045"></ellipse>
                    </g>
                </g>
            </g>
        </g>
    </g>
</svg>