<?xml version="1.0" encoding="UTF-8"?>
<svg width="47px" height="47px" viewBox="0 0 47 47" version="1.1" xmlns="http://www.w3.org/2000/svg" xmlns:xlink="http://www.w3.org/1999/xlink">
    <!-- Generator: sketchtool 51.2 (57519) - http://www.bohemiancoding.com/sketch -->
    <title>B111BDBE-FACD-46E2-B023-E9B824F2F6D4</title>
    <desc>Created with sketchtool.</desc>
    <defs></defs>
    <g id="Mobile" stroke="none" stroke-width="1" fill="none" fill-rule="evenodd">
        <g id="homepage-mobile" transform="translate(-105.000000, -7936.000000)">
            <g id="footer-copy" transform="translate(-2.000000, 7480.000000)">
                <g id="social" transform="translate(108.000000, 457.000000)">
                    <g id="fb-icon">
                        <g id="facebook-logo" transform="translate(16.578947, 13.026316)" fill="#7D40E6" fill-rule="nonzero">
                            <path d="M10.0570308,0.00366250678 L7.5504146,0 C4.73431728,0 2.91443148,1.70031877 2.91443148,4.33201302 L2.91443148,6.3293611 L0.394141013,6.3293611 C0.176357994,6.3293611 0,6.49014514 0,6.68846989 L0,9.58239962 C0,9.78072436 0.176559086,9.94132528 0.394141013,9.94132528 L2.91443148,9.94132528 L2.91443148,17.2436313 C2.91443148,17.441956 3.09078947,17.602557 3.30857249,17.602557 L6.59683466,17.602557 C6.81461768,17.602557 6.99097567,17.4417729 6.99097567,17.2436313 L6.99097567,9.94132528 L9.93778302,9.94132528 C10.155566,9.94132528 10.331924,9.78072436 10.331924,9.58239962 L10.3331306,6.68846989 C10.3331306,6.59324471 10.2915045,6.50204829 10.2177036,6.43465817 C10.1439027,6.36726804 10.0433565,6.3293611 9.93878848,6.3293611 L6.99097567,6.3293611 L6.99097567,4.63618421 C6.99097567,3.8223752 7.20393247,3.40924444 8.36805611,3.40924444 L10.0566286,3.40869506 C10.2742105,3.40869506 10.4505685,3.24791101 10.4505685,3.0497694 L10.4505685,0.362588171 C10.4505685,0.16462968 10.2744116,0.00402875746 10.0570308,0.00366250678 Z" id="Shape"></path>
                        </g>
                        <circle id="Oval-4" stroke="#7D40E6" stroke-width="1.5" cx="22.5" cy="22.5" r="22.5"></circle>
                    </g>
                </g>
            </g>
        </g>
    </g>
</svg>