<?xml version="1.0" encoding="UTF-8"?>
<svg width="165px" height="92px" viewBox="0 0 165 92" version="1.1" xmlns="http://www.w3.org/2000/svg" xmlns:xlink="http://www.w3.org/1999/xlink">
    <!-- Generator: sketchtool 51.2 (57519) - http://www.bohemiancoding.com/sketch -->
    <title>E5DE914C-33C7-4CC1-B2AC-B0D8BB733037</title>
    <desc>Created with sketchtool.</desc>
    <defs>
        <linearGradient x1="7.47948559%" y1="63.4002018%" x2="140.539875%" y2="-5.95603673%" id="linearGradient-1">
            <stop stop-color="#AACEFC" offset="1.530612%"></stop>
            <stop stop-color="#FFFFFF" offset="100%"></stop>
        </linearGradient>
        <linearGradient x1="41.4634754%" y1="13.1343906%" x2="65.1081445%" y2="79.462746%" id="linearGradient-2">
            <stop stop-color="#9855FC" offset="1.020408%"></stop>
            <stop stop-color="#752EE5" offset="100%"></stop>
        </linearGradient>
        <linearGradient x1="0.0841802939%" y1="46.1797582%" x2="99.6999419%" y2="53.6786356%" id="linearGradient-3">
            <stop stop-color="#FFC000" offset="0%"></stop>
            <stop stop-color="#FFEB23" offset="100%"></stop>
        </linearGradient>
        <linearGradient x1="33.6453613%" y1="15.2224128%" x2="78.5446239%" y2="76.0051596%" id="linearGradient-4">
            <stop stop-color="#9855FC" offset="1.020408%"></stop>
            <stop stop-color="#752EE5" offset="100%"></stop>
        </linearGradient>
        <linearGradient x1="-43.7750667%" y1="-6.37697705%" x2="135.48308%" y2="100.588963%" id="linearGradient-5">
            <stop stop-color="#AACEFC" offset="1.530612%"></stop>
            <stop stop-color="#FFFFFF" offset="100%"></stop>
        </linearGradient>
        <linearGradient x1="46.0184377%" y1="12.6771654%" x2="57.5133599%" y2="81.3948562%" id="linearGradient-6">
            <stop stop-color="#9855FC" offset="1.020408%"></stop>
            <stop stop-color="#752EE5" offset="100%"></stop>
        </linearGradient>
        <linearGradient x1="-15.899228%" y1="-3.79325206%" x2="119.00902%" y2="106.015787%" id="linearGradient-7">
            <stop stop-color="#AACEFC" offset="1.530612%"></stop>
            <stop stop-color="#FFFFFF" offset="100%"></stop>
        </linearGradient>
    </defs>
    <g id="Mobile" stroke="none" stroke-width="1" fill="none" fill-rule="evenodd">
        <g id="homepage-mobile" transform="translate(-118.000000, -2140.000000)" fill-rule="nonzero">
            <g id="4" transform="translate(22.000000, 2140.000000)">
                <g id="illustration-4" transform="translate(96.000000, 0.000000)">
                    <path d="M121.747573,8 C122.628641,9.76 123.990291,11.28 125.67233,12.32 C123.910194,13.2 122.38835,14.56 121.347087,16.24 C120.466019,14.48 119.104369,12.96 117.42233,11.92 C119.264563,11.04 120.706311,9.68 121.747573,8 Z" id="Shape" fill="#E1E8FF"></path>
                    <path d="M14.7378641,33.44 C15.2985437,34.48 16.1796117,35.36 17.3009709,36 C16.2597087,36.56 15.3786408,37.44 14.7378641,38.56 C14.1771845,37.52 13.2961165,36.64 12.1747573,36 C13.2961165,35.36 14.1771845,34.48 14.7378641,33.44 Z" id="Shape" fill="#E1E8FF"></path>
                    <path d="M161.315534,38.16 C161.876214,39.2 162.757282,40.08 163.878641,40.72 C162.837379,41.28 161.956311,42.16 161.315534,43.28 C160.754854,42.24 159.873786,41.36 158.752427,40.72 C159.793689,40.08 160.674757,39.2 161.315534,38.16 Z" id="Shape" fill="#E1E8FF"></path>
                    <path d="M37.0849515,17.68 C38.1262136,19.68 39.8082524,21.28 41.7305825,22.32 C39.7281553,23.36 38.1262136,25.04 37.0849515,26.96 C36.0436893,24.96 34.3616505,23.36 32.4393204,22.32 C34.3616505,21.28 36.0436893,19.68 37.0849515,17.68 Z" id="Shape" fill="#E1E8FF"></path>
                    <path d="M162.997573,56.48 L53.7451456,51.12 C51.9830097,51.04 50.3009709,51.36 48.7791262,52.16 L1.44174757,75.76 C-0.160194175,76.56 0.400485437,78.88 2.08252427,78.96 L47.657767,81.2 L51.1820388,91.44 L76.4927184,82.64 L111.334951,84.4 C113.097087,84.48 114.779126,84.16 116.300971,83.36 L163.63835,59.76 C165.240291,58.96 164.759709,56.56 162.997573,56.48 Z" id="Shape" fill="url(#linearGradient-1)"></path>
                    <path d="M83.2208738,0.64 C69.2839806,-0.4 57.0291262,10.8 55.907767,25.68 C54.7864078,40.16 76.0121359,69.44 76.8932039,70.72 C77.1334951,71.04 77.5339806,71.28 77.934466,71.28 C78.3349515,71.28 78.7354369,71.12 79.0558252,70.88 C80.0970874,69.76 105.487864,44 106.529126,29.52 C107.570388,14.64 97.157767,1.68 83.2208738,0.64 Z" id="Shape" fill="url(#linearGradient-2)"></path>
                    <path d="M80.4975728,36.56 C74.1699029,36.08 69.4441748,30.56 69.9247573,24.24 C70.4053398,17.92 75.9320388,13.2 82.2597087,13.68 C88.5873786,14.16 93.3131068,19.68 92.8325243,25.92 C92.3519417,32.24 86.8252427,36.96 80.4975728,36.56 Z" id="Shape" fill="url(#linearGradient-3)"></path>
                    <path d="M39.0873786,38.08 C33.3203883,39.04 29.4757282,44.8 30.5169903,50.88 C31.4781553,56.8 42.9320388,66.64 43.4126214,67.04 C43.5728155,67.12 43.7330097,67.2 43.8932039,67.2 C44.0533981,67.2 44.2135922,67.04 44.2936893,66.96 C44.6140777,66.4 52.3033981,53.52 51.342233,47.52 C50.3009709,41.28 44.8543689,37.12 39.0873786,38.08 Z" id="Shape" fill="url(#linearGradient-4)"></path>
                    <path d="M41.4902913,52.8 C38.9271845,53.2 36.4441748,51.44 35.9635922,48.88 C35.5631068,46.32 37.3252427,43.84 39.8883495,43.44 C42.4514563,43.04 44.934466,44.8 45.3349515,47.36 C45.8956311,49.92 44.1334951,52.4 41.4902913,52.8 Z" id="Shape" fill="url(#linearGradient-5)"></path>
                    <path d="M133.36165,28.08 C125.752427,26.48 118.143204,31.84 116.461165,39.92 C114.859223,47.84 124.390777,65.52 124.791262,66.24 C124.871359,66.48 125.11165,66.56 125.351942,66.64 C125.592233,66.72 125.832524,66.64 125.992718,66.48 C126.633495,65.92 142.492718,53.52 144.09466,45.68 C145.856796,37.6 140.970874,29.68 133.36165,28.08 Z" id="Shape" fill="url(#linearGradient-6)"></path>
                    <path d="M129.276699,47.68 C125.832524,46.96 123.589806,43.6 124.31068,40.16 C125.031553,36.72 128.395631,34.48 131.839806,35.2 C135.283981,35.92 137.526699,39.28 136.805825,42.72 C136.165049,46.16 132.720874,48.4 129.276699,47.68 Z" id="Shape" fill="url(#linearGradient-7)"></path>
                </g>
            </g>
        </g>
    </g>
</svg>