<?xml version="1.0" encoding="UTF-8"?>
<svg width="100px" height="92px" viewBox="0 0 100 92" version="1.1" xmlns="http://www.w3.org/2000/svg" xmlns:xlink="http://www.w3.org/1999/xlink">
    <!-- Generator: sketchtool 51.2 (57519) - http://www.bohemiancoding.com/sketch -->
    <title>18ED9873-2CAF-45DB-934F-65C6D676CE0C</title>
    <desc>Created with sketchtool.</desc>
    <defs>
        <linearGradient x1="77.5152344%" y1="59.9761194%" x2="9.80664063%" y2="-57.7686567%" id="linearGradient-1">
            <stop stop-color="#AACEFC" offset="1.530612%"></stop>
            <stop stop-color="#FFFFFF" offset="100%"></stop>
        </linearGradient>
        <linearGradient x1="0.0994764398%" y1="50.0422111%" x2="100.106806%" y2="50.0422111%" id="linearGradient-2">
            <stop stop-color="#9855FC" offset="0%"></stop>
            <stop stop-color="#752EE5" offset="100%"></stop>
        </linearGradient>
        <linearGradient x1="-0.0581308411%" y1="50.0490566%" x2="100.065234%" y2="50.0490566%" id="linearGradient-3">
            <stop stop-color="#00BEED" offset="0%"></stop>
            <stop stop-color="#00DFED" offset="100%"></stop>
        </linearGradient>
    </defs>
    <g id="Website" stroke="none" stroke-width="1" fill="none" fill-rule="evenodd">
        <g id="homepage-desktop" transform="translate(-205.000000, -2498.000000)" fill-rule="nonzero">
            <g id="3" transform="translate(205.000000, 2498.000000)">
                <g id="icon-3">
                    <path d="M43.8738739,0.811764706 C45.045045,3.24705882 46.9369369,5.23137255 49.2792793,6.6745098 C46.8468468,7.84705882 44.8648649,9.74117647 43.4234234,12.0862745 C42.2522523,9.65098039 40.3603604,7.66666667 38.018018,6.22352941 C40.4504505,4.96078431 42.5225225,3.06666667 43.8738739,0.811764706 Z" id="Shape" fill="#E1E8FF"></path>
                    <path d="M96.8468468,59.6196078 C97.4774775,60.7921569 98.4684685,61.7843137 99.7297297,62.5058824 C98.5585586,63.1372549 97.5675676,64.1294118 96.8468468,65.3921569 C96.2162162,64.2196078 95.2252252,63.227451 93.963964,62.5058824 C95.2252252,61.8745098 96.2162162,60.8823529 96.8468468,59.6196078 Z" id="Shape" fill="#E1E8FF"></path>
                    <path d="M7.65765766,77.027451 C9.27927928,80.0039216 11.7117117,82.4392157 14.6846847,84.0627451 C11.7117117,85.6862745 9.27927928,88.1215686 7.65765766,91.0980392 C6.03603604,88.1215686 3.6036036,85.6862745 0.630630631,84.0627451 C3.6036036,82.4392157 6.03603604,80.0039216 7.65765766,77.027451 Z" id="Shape" fill="#E1E8FF"></path>
                    <path d="M49.5495495,56.372549 L49.5495495,20.1137255 C40.7207207,20.1137255 32.6126126,23.4509804 26.4864865,28.8627451 L49.5495495,56.372549 Z" id="Shape" fill="url(#linearGradient-1)"></path>
                    <path d="M84.3243243,56.372549 L49.5495495,56.372549 L62.972973,87.1294118 C75.1351351,82.0784314 83.7837838,70.2627451 84.3243243,56.372549 Z" id="Shape" fill="#E1E8FF"></path>
                    <path d="M27.3873874,28.0509804 C19.6396396,34.454902 14.6846847,44.1058824 14.6846847,55.0196078 C14.6846847,55.4705882 14.6846847,56.0117647 14.6846847,56.4627451 L49.5495495,56.4627451 L27.3873874,28.0509804 Z" id="Shape" fill="#350D89"></path>
                    <path d="M90,51.2313725 C90,50.7803922 90,50.3294118 90,49.7882353 C90,30.7568627 74.5945946,15.3333333 55.5855856,15.3333333 L55.5855856,51.2313725 L90,51.2313725 Z" id="Shape" fill="url(#linearGradient-2)"></path>
                    <path d="M14.7747748,56.6431373 C15.6756757,75.1333333 30.9009009,89.8352941 49.5495495,89.8352941 C54.3243243,89.8352941 58.8288288,88.8431373 62.972973,87.1294118 L49.5495495,56.372549 L14.7747748,56.6431373 Z" id="Shape" fill="url(#linearGradient-3)"></path>
                </g>
            </g>
        </g>
    </g>
</svg>