<?xml version="1.0" encoding="UTF-8"?>
<svg width="92px" height="78px" viewBox="0 0 92 78" version="1.1" xmlns="http://www.w3.org/2000/svg" xmlns:xlink="http://www.w3.org/1999/xlink">
    <!-- Generator: sketchtool 51.2 (57519) - http://www.bohemiancoding.com/sketch -->
    <title>B00A7AA0-BE85-4CF1-A1C5-46B6B35BE10F</title>
    <desc>Created with sketchtool.</desc>
    <defs>
        <linearGradient x1="-0.0431578947%" y1="50.0782847%" x2="100.090526%" y2="50.0782847%" id="linearGradient-1">
            <stop stop-color="#FFC000" offset="0%"></stop>
            <stop stop-color="#FFEB23" offset="100%"></stop>
        </linearGradient>
        <linearGradient x1="0.492055461%" y1="44.6414949%" x2="99.4889413%" y2="54.6000135%" id="linearGradient-2">
            <stop stop-color="#9855FC" offset="0%"></stop>
            <stop stop-color="#752EE5" offset="100%"></stop>
        </linearGradient>
    </defs>
    <g id="Website" stroke="none" stroke-width="1" fill="none" fill-rule="evenodd">
        <g id="homepage-desktop" transform="translate(-780.000000, -2126.000000)" fill-rule="nonzero">
            <g id="Group-2" transform="translate(780.000000, 2126.000000)">
                <g id="icon-4">
                    <path d="M86.9490196,4.75172414 C87.9411765,6.63448276 89.4745098,8.15862069 91.3686275,9.14482759 C89.4745098,10.1310345 87.9411765,11.6551724 86.9490196,13.537931 C85.9568627,11.6551724 84.4235294,10.1310345 82.5294118,9.14482759 C84.4235294,8.06896552 85.9568627,6.54482759 86.9490196,4.75172414 Z" id="Shape" fill="#E1E8FF"></path>
                    <path d="M23,69.2137931 C23.9921569,71.0965517 25.5254902,72.6206897 27.4196078,73.6068966 C25.5254902,74.5931034 23.9921569,76.1172414 23,78 C22.0078431,76.1172414 20.4745098,74.5931034 18.5803922,73.6068966 C20.4745098,72.6206897 22.0078431,71.0965517 23,69.2137931 Z" id="Shape" fill="#E1E8FF"></path>
                    <path d="M58.627451,1.79310345 C59.3490196,3.04827586 60.3411765,4.03448276 61.6039216,4.75172414 C60.3411765,5.46896552 59.3490196,6.45517241 58.627451,7.71034483 C57.9058824,6.45517241 56.9137255,5.46896552 55.6509804,4.75172414 C56.9137255,4.03448276 57.9058824,3.04827586 58.627451,1.79310345 Z" id="Shape" fill="#E1E8FF"></path>
                    <path d="M6.85490196,23.7586207 C8.11764706,26.3586207 10.1921569,28.5103448 12.7176471,30.0344828 C10.1019608,31.2896552 7.9372549,33.3517241 6.40392157,35.862069 C5.14117647,33.262069 3.06666667,31.1103448 0.541176471,29.5862069 C3.24705882,28.2413793 5.41176471,26.2689655 6.85490196,23.7586207 Z" id="Shape" fill="#E1E8FF"></path>
                    <path d="M52.854902,19.4551724 C52.854902,19.4551724 44.4666667,8.24827586 34.9960784,2.95862069 C25.5254902,-2.33103448 18.0392157,1.88275862 25.254902,11.2068966 C25.254902,11.2068966 18.5803922,10.8482759 18.5803922,14.9724138 C18.5803922,17.662069 21.6470588,19.5448276 24.5333333,19.6344828 C24.5333333,19.6344828 20.654902,20.9793103 22.3686275,23.8482759 C23.9921569,26.7172414 35.7176471,26.3586207 35.7176471,26.3586207 L52.854902,19.4551724 Z" id="Shape" fill="url(#linearGradient-1)"></path>
                    <path d="M30.7568627,23.4896552 C22.5490196,27.8827586 17.4980392,37.0275862 18.7607843,46.7103448 C20.0235294,55.7655172 26.5176471,62.6689655 35.8980392,65 L36.3490196,68.4965517 C36.8,71.7241379 39.7764706,73.9655172 43.0235294,73.5172414 C46.2705882,73.0689655 48.5254902,70.1103448 48.0745098,66.8827586 L47.8039216,65 L61.4235294,63.2068966 L61.6941176,65.0896552 C62.145098,68.3172414 65.1215686,70.5586207 68.3686275,70.1103448 C71.6156863,69.662069 73.8705882,66.7034483 73.4196078,63.4758621 L73.0588235,60.0689655 C79.2823529,56.662069 83.2509804,51.6413793 84.5137255,45.4551724 L86.4078431,45.1862069 C88.7529412,44.8275862 90.4666667,42.6758621 90.1058824,40.3448276 L89.2941176,34.4275862 C88.9333333,32.0965517 86.7686275,30.3931034 84.4235294,30.7517241 L82.6196078,31.0206897 C80.7254902,27.1655172 77.8392157,23.937931 74.0509804,21.6068966 L72.6980392,11.4758621 C72.6078431,10.937931 72.1568627,10.5793103 71.6156863,10.6689655 C67.1960784,11.2965517 61.1529412,18.2896552 61.1529412,18.2896552 C61.1529412,18.2896552 38.9647059,19.0965517 30.7568627,23.4896552 Z M67.9176471,35.5034483 C67.7372549,34.0689655 68.7294118,32.8137931 70.172549,32.5448276 C71.6156863,32.3655172 72.8784314,33.3517241 73.1490196,34.7862069 C73.3294118,36.2206897 72.3372549,37.4758621 70.8941176,37.7448276 C69.4509804,37.9241379 68.0980392,36.937931 67.9176471,35.5034483 Z" id="Shape" fill="url(#linearGradient-2)"></path>
                </g>
            </g>
        </g>
    </g>
</svg>