<?xml version="1.0" encoding="UTF-8"?>
<svg width="104px" height="99px" viewBox="0 0 104 99" version="1.1" xmlns="http://www.w3.org/2000/svg" xmlns:xlink="http://www.w3.org/1999/xlink">
    <!-- Generator: sketchtool 51.2 (57519) - http://www.bohemiancoding.com/sketch -->
    <title>DE575679-4891-49DF-8648-4AFD65A676D4</title>
    <desc>Created with sketchtool.</desc>
    <defs>
        <linearGradient x1="0.348979592%" y1="49.9412869%" x2="100.263946%" y2="49.9412869%" id="linearGradient-1">
            <stop stop-color="#00BEED" offset="0%"></stop>
            <stop stop-color="#00DFED" offset="100%"></stop>
        </linearGradient>
        <linearGradient x1="0.236363636%" y1="50.0497807%" x2="100.206061%" y2="50.0497807%" id="linearGradient-2">
            <stop stop-color="#9855FC" offset="0%"></stop>
            <stop stop-color="#752EE5" offset="100%"></stop>
        </linearGradient>
        <linearGradient x1="99.952381%" y1="49.9412869%" x2="0.037414966%" y2="49.9412869%" id="linearGradient-3">
            <stop stop-color="#00BEED" offset="0%"></stop>
            <stop stop-color="#00DFED" offset="100%"></stop>
        </linearGradient>
        <linearGradient x1="100.434848%" y1="50.0497807%" x2="0.465151515%" y2="50.0497807%" id="linearGradient-4">
            <stop stop-color="#9855FC" offset="0%"></stop>
            <stop stop-color="#752EE5" offset="100%"></stop>
        </linearGradient>
        <linearGradient x1="-0.166666667%" y1="50.2765625%" x2="100.030952%" y2="50.2765625%" id="linearGradient-5">
            <stop stop-color="#9855FC" offset="0%"></stop>
            <stop stop-color="#752EE5" offset="100%"></stop>
        </linearGradient>
        <linearGradient x1="-0.467213115%" y1="50.2436379%" x2="99.942623%" y2="50.2436379%" id="linearGradient-6">
            <stop stop-color="#FFC000" offset="0%"></stop>
            <stop stop-color="#FFEB23" offset="100%"></stop>
        </linearGradient>
    </defs>
    <g id="Website" stroke="none" stroke-width="1" fill="none" fill-rule="evenodd">
        <g id="homepage-desktop" transform="translate(-201.000000, -2132.000000)" fill-rule="nonzero">
            <g id="1" transform="translate(201.000000, 2129.000000)">
                <g id="icon-1" transform="translate(0.000000, 3.000000)">
                    <ellipse id="Oval" fill="#E1E8FF" cx="53.2551724" cy="35.55" rx="34.8758621" ry="35.01"></ellipse>
                    <path d="M4.75172414,26.55 C5.73793103,28.44 7.26206897,29.97 9.14482759,30.96 C7.26206897,31.95 5.73793103,33.48 4.75172414,35.37 C3.76551724,33.48 2.24137931,31.95 0.35862069,30.96 C2.15172414,29.97 3.67586207,28.44 4.75172414,26.55 Z" id="Shape" fill="#E1E8FF"></path>
                    <path d="M49.4896552,30.24 C50.4758621,32.13 52,33.66 53.8827586,34.65 C52,35.64 50.4758621,37.17 49.4896552,39.06 C48.5034483,37.17 46.9793103,35.64 45.0965517,34.65 C46.8896552,33.66 48.4137931,32.13 49.4896552,30.24 Z" id="Shape" fill="#FFFFFF"></path>
                    <path d="M100.862069,25.02 C101.57931,26.28 102.565517,27.27 103.82069,27.99 C102.565517,28.71 101.57931,29.7 100.862069,30.96 C100.144828,29.7 99.1586207,28.71 97.9034483,27.99 C99.0689655,27.27 100.144828,26.28 100.862069,25.02 Z" id="Shape" fill="#E1E8FF"></path>
                    <path d="M35.4137931,87.39 C36.5793103,89.82 38.462069,91.89 40.7931034,93.24 C38.3724138,94.41 36.3103448,96.3 34.9655172,98.64 C33.8,96.21 31.9172414,94.14 29.5862069,92.79 C32.0068966,91.53 34.0689655,89.64 35.4137931,87.39 Z" id="Shape" fill="#E1E8FF"></path>
                    <path d="M60.6965517,44.82 C62.1310345,47.79 64.462069,50.31 67.2413793,52.11 C64.2827586,53.55 61.7724138,55.89 59.9793103,58.68 C58.5448276,55.71 56.2137931,53.19 53.4344828,51.39 C56.4827586,49.95 58.9931034,47.61 60.6965517,44.82 Z" id="Shape" fill="#FFFFFF"></path>
                    <path d="M21.6965517,39.78 L27.8827586,39.78 L27.8827586,73.35 L21.6965517,73.35 C17.8413793,73.35 14.7034483,70.2 14.7034483,66.33 L14.7034483,46.8 C14.7931034,42.93 17.8413793,39.78 21.6965517,39.78 Z" id="Shape" fill="url(#linearGradient-1)"></path>
                    <path d="M30.3034483,40.68 L28.9586207,40.68 L28.9586207,34.29 C28.9586207,21.24 39.537931,10.53 52.6275862,10.53 L52.6275862,11.88 C40.3448276,11.88 30.3034483,21.96 30.3034483,34.29 L30.3034483,40.68 Z" id="Shape" fill="#9855FC"></path>
                    <path d="M29.5862069,77.49 C27.9724138,77.49 26.6275862,76.14 26.6275862,74.52 L26.6275862,39.42 C26.6275862,37.8 27.9724138,36.45 29.5862069,36.45 C31.2,36.45 32.5448276,37.8 32.5448276,39.42 L32.5448276,74.52 C32.5448276,76.14 31.2,77.49 29.5862069,77.49 Z" id="Shape" fill="url(#linearGradient-2)"></path>
                    <path d="M83.1103448,39.78 L76.9241379,39.78 L76.9241379,73.35 L83.1103448,73.35 C86.9655172,73.35 90.1034483,70.2 90.1034483,66.33 L90.1034483,46.8 C90.1034483,42.93 86.9655172,39.78 83.1103448,39.78 Z" id="Shape" fill="url(#linearGradient-3)"></path>
                    <path d="M76.2068966,40.68 L74.862069,40.68 L74.862069,34.29 C74.862069,21.96 64.8206897,11.88 52.537931,11.88 L52.537931,10.53 C65.6275862,10.53 76.2068966,21.24 76.2068966,34.29 L76.2068966,40.68 Z" id="Shape" fill="#9855FC"></path>
                    <path d="M75.2206897,77.49 C76.8344828,77.49 78.1793103,76.14 78.1793103,74.52 L78.1793103,39.42 C78.1793103,37.8 76.8344828,36.45 75.2206897,36.45 C73.6068966,36.45 72.262069,37.8 72.262069,39.42 L72.262069,74.52 C72.262069,76.14 73.6068966,77.49 75.2206897,77.49 Z" id="Shape" fill="url(#linearGradient-4)"></path>
                    <path d="M75.7586207,92.25 L62.4896552,92.25 L62.4896552,90.9 L75.7586207,90.9 C78.6275862,90.9 80.9586207,88.56 80.9586207,85.68 L80.9586207,73.35 L82.3034483,73.35 L82.3034483,85.68 C82.3034483,89.28 79.3448276,92.25 75.7586207,92.25 Z" id="Shape" fill="#9855FC"></path>
                    <path d="M58.7241379,94.5 L60.6068966,94.5 C61.6827586,94.5 62.4896552,93.69 62.4896552,92.61 L62.4896552,90.63 C62.4896552,89.55 61.6827586,88.74 60.6068966,88.74 L58.7241379,88.74 L58.7241379,94.5 Z" id="Shape" fill="url(#linearGradient-5)"></path>
                    <path d="M58.7241379,88.74 C58.7241379,88.74 47.7862069,84.24 47.7862069,91.35 C47.7862069,98.46 58.7241379,94.5 58.7241379,94.5 L58.7241379,88.74 Z" id="Shape" fill="url(#linearGradient-6)"></path>
                </g>
            </g>
        </g>
    </g>
</svg>