<?xml version="1.0" encoding="UTF-8"?>
<svg width="95px" height="91px" viewBox="0 0 95 91" version="1.1" xmlns="http://www.w3.org/2000/svg" xmlns:xlink="http://www.w3.org/1999/xlink">
    <!-- Generator: sketchtool 51.2 (57519) - http://www.bohemiancoding.com/sketch -->
    <title>7E82564D-0353-4FE8-B0C2-3D417A3D46A8</title>
    <desc>Created with sketchtool.</desc>
    <defs>
        <linearGradient x1="0.108435852%" y1="50.0857853%" x2="99.8987698%" y2="50.0857853%" id="linearGradient-1">
            <stop stop-color="#9855FC" offset="0%"></stop>
            <stop stop-color="#752EE5" offset="100%"></stop>
        </linearGradient>
        <linearGradient x1="-0.39009434%" y1="49.834434%" x2="99.9377358%" y2="49.834434%" id="linearGradient-2">
            <stop stop-color="#FFC000" offset="0%"></stop>
            <stop stop-color="#FFEB23" offset="100%"></stop>
        </linearGradient>
        <linearGradient x1="-0.0922018349%" y1="50.0120833%" x2="99.8722477%" y2="50.0120833%" id="linearGradient-3">
            <stop stop-color="#FFC000" offset="0%"></stop>
            <stop stop-color="#FFEB23" offset="100%"></stop>
        </linearGradient>
    </defs>
    <g id="Website" stroke="none" stroke-width="1" fill="none" fill-rule="evenodd">
        <g id="homepage-desktop" transform="translate(-208.000000, -2294.000000)" fill-rule="nonzero">
            <g id="2" transform="translate(208.000000, 2289.000000)">
                <g id="icon-2" transform="translate(0.000000, 5.000000)">
                    <ellipse id="Oval" fill="#E1E8FF" cx="46.245283" cy="47.3019802" rx="34.8632075" ry="35.0485149"></ellipse>
                    <path d="M4.66037736,68.1148515 C5.64622642,70.0069307 7.16981132,71.5386139 9.05188679,72.529703 C7.16981132,73.5207921 5.64622642,75.0524752 4.66037736,76.9445545 C3.6745283,75.0524752 2.1509434,73.5207921 0.268867925,72.529703 C2.06132075,71.5386139 3.6745283,70.0069307 4.66037736,68.1148515 Z" id="Shape" fill="#E1E8FF"></path>
                    <path d="M91.9528302,49.1039604 C92.6698113,50.3653465 93.6556604,51.3564356 94.9103774,52.0772277 C93.6556604,52.7980198 92.6698113,53.7891089 91.9528302,55.050495 C91.2358491,53.7891089 90.25,52.7980198 88.995283,52.0772277 C90.25,51.3564356 91.2358491,50.2752475 91.9528302,49.1039604 Z" id="Shape" fill="#E1E8FF"></path>
                    <path d="M86.9339623,17.1188119 C88.0990566,19.5514851 89.9811321,21.6237624 92.3113208,22.9752475 C89.8915094,24.1465347 87.8301887,26.0386139 86.4858491,28.3811881 C85.3207547,25.9485149 83.4386792,23.8762376 81.1084906,22.5247525 C83.5283019,21.3534653 85.5,19.4613861 86.9339623,17.1188119 Z" id="Shape" fill="#E1E8FF"></path>
                    <path d="M62.0188679,90.819802 L30.3820755,90.819802 C25.0943396,90.819802 20.7028302,86.4950495 20.7028302,81.0891089 L20.7028302,9.91089109 C20.7028302,4.5950495 25.004717,0.18019802 30.3820755,0.18019802 L62.0188679,0.18019802 C67.3066038,0.18019802 71.6981132,4.5049505 71.6981132,9.91089109 L71.6981132,81.0891089 C71.6084906,86.4950495 67.3066038,90.819802 62.0188679,90.819802 Z" id="Shape" fill="url(#linearGradient-1)"></path>
                    <rect id="Rectangle-path" fill="#FFFFFF" x="26.7075472" y="12.2534653" width="39.0754717" height="60.7267327"></rect>
                    <path d="M52.1603774,8.10891089 L40.240566,8.10891089 C39.4339623,8.10891089 38.8066038,7.47821782 38.8066038,6.66732673 L38.8066038,6.30693069 C38.8066038,5.4960396 39.4339623,4.86534653 40.240566,4.86534653 L52.1603774,4.86534653 C52.9669811,4.86534653 53.5943396,5.4960396 53.5943396,6.30693069 L53.5943396,6.66732673 C53.5943396,7.38811881 52.9669811,8.10891089 52.1603774,8.10891089 Z" id="Shape" fill="#22134A"></path>
                    <ellipse id="Oval" fill="#FFFFFF" cx="46.245283" cy="81.9" rx="5.55660377" ry="5.58613861"></ellipse>
                    <ellipse id="Oval" fill="url(#linearGradient-2)" cx="46.245283" cy="38.0217822" rx="9.5" ry="9.55049505"></ellipse>
                    <path d="M46.245283,51.3564356 C35.8490566,51.3564356 29.3066038,58.8346535 26.7075472,62.6188119 L26.7075472,72.980198 L65.7830189,72.980198 L65.7830189,62.7990099 C61.8396226,58.8346535 55.9245283,51.3564356 46.245283,51.3564356 Z" id="Shape" fill="url(#linearGradient-3)"></path>
                </g>
            </g>
        </g>
    </g>
</svg>