<?xml version="1.0" encoding="UTF-8"?>
<svg width="47px" height="47px" viewBox="0 0 47 47" version="1.1" xmlns="http://www.w3.org/2000/svg" xmlns:xlink="http://www.w3.org/1999/xlink">
    <!-- Generator: sketchtool 51.2 (57519) - http://www.bohemiancoding.com/sketch -->
    <title>E49DB76F-6101-4476-89C7-5683F9DED05A</title>
    <desc>Created with sketchtool.</desc>
    <defs></defs>
    <g id="Mobile" stroke="none" stroke-width="1" fill="none" fill-rule="evenodd">
        <g id="homepage-mobile" transform="translate(-261.000000, -7936.000000)">
            <g id="footer-copy" transform="translate(-2.000000, 7480.000000)">
                <g id="social" transform="translate(108.000000, 457.000000)">
                    <g id="in-icon" transform="translate(156.000000, 0.000000)">
                        <circle id="Oval-4-Copy-2" stroke="#7D40E6" stroke-width="1.5" cx="22.5" cy="22.5" r="22.5"></circle>
                        <g id="linkedin-logo" transform="translate(14.210526, 11.842105)" fill="#7D40E6" fill-rule="nonzero">
                            <path d="M17.7267661,10.8641974 L17.7267661,17.7201297 L13.9273461,17.7201297 L13.9273461,11.3233664 C13.9273461,9.71644737 13.377801,8.61978794 12.0025369,8.61978794 C10.9526972,8.61978794 10.3279369,9.35885603 10.0530819,10.07378 C9.95284986,10.3293625 9.92705001,10.6851 9.92705001,11.0428638 L9.92705001,17.7201297 L6.12635242,17.7201297 C6.12635242,17.7201297 6.17753999,6.88611235 6.12635242,5.76362736 L9.92667908,5.76362736 L9.92667908,7.45841371 C9.9189721,7.47108936 9.90895714,7.48475664 9.9017035,7.49704426 L9.92667908,7.49704426 L9.92667908,7.45841371 C10.4315896,6.64488694 11.3333069,5.48273665 13.3516302,5.48273665 C15.8521965,5.48269354 17.7267661,7.19162142 17.7267661,10.8641974 Z M2.15066095,0 C0.850447246,0 0,0.89216754 0,2.06539825 C0,3.21306208 0.825842594,4.13230551 2.10021523,4.13230551 L2.12560294,4.13230551 C3.45099829,4.13230551 4.27527476,3.21323454 4.27527476,2.06539825 C4.25029918,0.89216754 3.45099829,0 2.15066095,0 Z M0.225728111,17.7201297 L4.02498321,17.7201297 L4.02498321,5.76362736 L0.225728111,5.76362736 L0.225728111,17.7201297 Z" id="LinkedIn"></path>
                        </g>
                    </g>
                </g>
            </g>
        </g>
    </g>
</svg>