<?xml version="1.0" encoding="UTF-8"?>
<svg width="330px" height="270px" viewBox="0 0 330 270" version="1.1" xmlns="http://www.w3.org/2000/svg" xmlns:xlink="http://www.w3.org/1999/xlink">
    <!-- Generator: sketchtool 51.2 (57519) - http://www.bohemiancoding.com/sketch -->
    <title>E316E276-6ABD-444E-B0FC-E38A20735F6F</title>
    <desc>Created with sketchtool.</desc>
    <defs>
        <linearGradient x1="0.339526011%" y1="44.0089619%" x2="99.619526%" y2="55.9589619%" id="linearGradient-1">
            <stop stop-color="#FFC000" offset="0%"></stop>
            <stop stop-color="#FFEB23" offset="100%"></stop>
        </linearGradient>
        <linearGradient x1="11.6647368%" y1="27.3478947%" x2="110.111228%" y2="85.5242105%" id="linearGradient-2">
            <stop stop-color="#FF840C" offset="0%"></stop>
            <stop stop-color="#FFEB23" stop-opacity="0" offset="100%"></stop>
        </linearGradient>
        <linearGradient x1="62.8901109%" y1="52.338133%" x2="8.32272948%" y2="87.9216255%" id="linearGradient-3">
            <stop stop-color="#9855FC" offset="0%"></stop>
            <stop stop-color="#752EE5" offset="100%"></stop>
        </linearGradient>
        <linearGradient x1="0.22388744%" y1="43.9238972%" x2="99.6007655%" y2="55.8855581%" id="linearGradient-4">
            <stop stop-color="#FFC000" offset="0%"></stop>
            <stop stop-color="#FFEB23" offset="100%"></stop>
        </linearGradient>
        <linearGradient x1="0.518983052%" y1="43.9518047%" x2="99.6275519%" y2="55.8811701%" id="linearGradient-5">
            <stop stop-color="#00BEED" offset="0%"></stop>
            <stop stop-color="#00DFED" offset="100%"></stop>
        </linearGradient>
        <linearGradient x1="0.0815677966%" y1="50.0900424%" x2="100.041314%" y2="50.0900424%" id="linearGradient-6">
            <stop stop-color="#9855FC" offset="0%"></stop>
            <stop stop-color="#752EE5" offset="100%"></stop>
        </linearGradient>
    </defs>
    <g id="Mobile" stroke="none" stroke-width="1" fill="none" fill-rule="evenodd">
        <g id="homepage-mobile" transform="translate(-30.000000, -7022.000000)">
            <g id="3" transform="translate(20.000000, 7022.000000)">
                <g id="illustration" transform="translate(10.000000, 0.000000)">
                    <rect id="Rectangle-2-Copy-2" fill="#211548" x="63.276699" y="37.6557864" width="232.281553" height="232.344214" rx="1.6"></rect>
                    <g id="illustration-3">
                        <ellipse id="Oval" fill="url(#linearGradient-1)" fill-rule="nonzero" cx="245.817961" cy="107.759644" rx="36.8446602" ry="36.8545994"></ellipse>
                        <ellipse id="Oval" fill="url(#linearGradient-2)" fill-rule="nonzero" cx="245.817961" cy="107.759644" rx="22.8276699" ry="22.8338279"></ellipse>
                        <path d="M275.133495,204.142433 C276.65534,206.866469 278.898058,209.109792 281.621359,210.632047 C278.898058,212.154303 276.65534,214.397626 275.133495,217.121662 C273.61165,214.397626 271.368932,212.154303 268.645631,210.632047 C271.368932,209.109792 273.61165,206.866469 275.133495,204.142433 Z" id="Shape" fill="#E1E8FF" fill-rule="nonzero"></path>
                        <path d="M38.2063107,72.1869436 C39.8883495,75.3115727 42.4514563,77.8753709 45.5752427,79.5578635 C42.4514563,81.2403561 39.8883495,83.8041543 38.2063107,86.9287834 C36.5242718,83.8041543 33.961165,81.2403561 30.8373786,79.5578635 C33.961165,77.8753709 36.5242718,75.3115727 38.2063107,72.1869436 Z" id="Shape" fill="#E1E8FF" fill-rule="nonzero"></path>
                        <path d="M317.504854,107.198813 C318.466019,108.881306 319.82767,110.323442 321.509709,111.204748 C319.82767,112.166172 318.385922,113.52819 317.504854,115.210682 C316.543689,113.52819 315.182039,112.086053 313.5,111.204748 C315.182039,110.243323 316.543689,108.881306 317.504854,107.198813 Z" id="Shape" fill="#E1E8FF" fill-rule="nonzero"></path>
                        <path d="M4.16504854,102.792285 C5.12621359,104.474777 6.48786408,105.916914 8.16990291,106.79822 C6.48786408,107.759644 5.0461165,109.121662 4.16504854,110.804154 C3.2038835,109.121662 1.84223301,107.679525 0.160194175,106.79822 C1.84223301,105.916914 3.2038835,104.474777 4.16504854,102.792285 Z" id="Shape" fill="#E1E8FF" fill-rule="nonzero"></path>
                        <path d="M185.985437,74.6706231 C187.347087,77.1543027 189.349515,79.15727 191.752427,80.4391691 C189.269417,81.8011869 187.26699,83.8041543 185.985437,86.2077151 C184.623786,83.7240356 182.621359,81.7210682 180.218447,80.4391691 C182.621359,79.0771513 184.703883,77.074184 185.985437,74.6706231 Z" id="Shape" fill="#E1E8FF" fill-rule="nonzero"></path>
                        <path d="M17.461165,177.382789 C18.5825243,179.465875 20.2645631,181.148368 22.3470874,182.27003 C20.2645631,183.391691 18.5825243,185.074184 17.461165,187.15727 C16.3398058,185.074184 14.657767,183.391691 12.5752427,182.27003 C14.5776699,181.148368 16.3398058,179.465875 17.461165,177.382789 Z" id="Shape" fill="#E1E8FF" fill-rule="nonzero"></path>
                        <polygon id="Shape" fill="#E1E8FF" fill-rule="nonzero" points="87.9466019 67.7804154 79.5364078 109.20178 106.68932 105.836795 107.730583 75.7922849"></polygon>
                        <path d="M145.536408,45.2670623 C145.456311,47.9109792 135.364078,69.8635015 134.563107,73.6290801 C133.682039,77.3946588 103.004854,92.1364985 97.4781553,70.9851632 C91.9514563,49.8338279 91.0703883,29.5637982 100.92233,22.0326409 C110.774272,14.5014837 146.657767,1.20178042 145.536408,45.2670623 Z" id="Shape" fill="#FFFFFF" fill-rule="nonzero"></path>
                        <path d="M171.007282,46.7091988 C180.458738,42.6231454 169.245146,24.115727 158.512136,19.148368 C170.126214,21.4718101 171.247573,16.264095 161.395631,10.1750742 C151.543689,4.08605341 143.694175,1.20178042 133.842233,3.20474777 C123.990291,5.20771513 120.546117,10.735905 114.13835,4.08605341 C107.730583,-2.56379822 97.0776699,-0.560830861 90.1092233,6.40949555 C83.1407767,13.379822 84.342233,19.4688427 85.7839806,25.2373887 C87.2257282,31.0059347 82.0194175,32.768546 77.6941748,36.2136499 C73.368932,39.6587537 82.3398058,48.3916914 84.9029126,52.4777448 C87.5461165,56.5637982 75.6116505,71.305638 88.6674757,73.3086053 C87.7864078,81.7210682 98.8398058,92.1364985 100.842233,82.1216617 C107.81068,97.6646884 117.902913,97.3442136 121.987864,90.1335312 C128.635922,97.6646884 135.924757,84.2047478 135.444175,78.115727 C135.043689,72.0267062 128.315534,63.4540059 121.427184,62.4925816 C114.458738,61.4510386 108.851942,61.3709199 104.046117,64.2551929 C99.2402913,67.1394659 99,53.5192878 99.961165,49.5133531 C100.92233,45.5074184 105.167476,47.3501484 105.648058,38.2166172 C106.128641,29.0830861 107.570388,24.7566766 111.334951,24.4362018 C135.283981,22.3531157 141.211165,59.768546 171.007282,46.7091988 Z" id="Shape" fill="#22134A" fill-rule="nonzero"></path>
                        <path d="M90.1893204,57.0445104 L91.2305825,48.4718101 C91.3106796,47.5905045 90.75,46.7091988 89.868932,46.5489614 C86.7451456,45.9881306 80.1771845,45.347181 79.5364078,50.8753709 C78.9757282,56.0029674 82.0995146,57.1246291 88.026699,58.5667656 C89.0679612,58.727003 90.0291262,58.0860534 90.1893204,57.0445104 Z" id="Shape" fill="#FFFFFF" fill-rule="nonzero"></path>
                        <path d="M126.633495,52.958457 C124.070388,53.5192878 120.626214,57.925816 121.106796,63.5341246 C121.587379,69.1424332 125.432039,71.305638 129.116505,70.1839763 C132.720874,69.0623145 131.43932,66.0979228 131.118932,60.8902077 C130.798544,55.6824926 129.837379,52.2373887 126.633495,52.958457 Z" id="Shape" fill="#FF008D" fill-rule="nonzero"></path>
                        <ellipse id="Oval" fill="#211648" fill-rule="nonzero" transform="translate(136.427038, 56.908052) rotate(-77.272940) translate(-136.427038, -56.908052) " cx="136.427038" cy="56.9080522" rx="2.8033101" ry="2.40348542"></ellipse>
                        <ellipse id="Oval" fill="#211648" fill-rule="nonzero" transform="translate(119.443532, 50.231241) rotate(-77.272940) translate(-119.443532, -50.231241) " cx="119.443532" cy="50.2312407" rx="2.8033101" ry="2.40348542"></ellipse>
                        <path d="M111.815534,68.9020772 C111.254854,70.7448071 113.01699,77.1543027 119.504854,75.1513353" id="Shape" stroke="#FFFFFF" stroke-width="0.8"></path>
                        <path d="M114.779126,41.9020772 C113.737864,40.4599407 120.305825,36.3738872 122.468447,40.1394659 C124.470874,43.504451 115.099515,42.3827893 114.779126,41.9020772 Z" id="Shape" fill="#211648" fill-rule="nonzero"></path>
                        <path d="M141.531553,51.6765579 C142.73301,51.2759644 140.81068,46.3086053 138.007282,47.4302671 C135.524272,48.4718101 141.211165,51.8367953 141.531553,51.6765579 Z" id="Shape" fill="#211648" fill-rule="nonzero"></path>
                        <path d="M127.194175,227.216617 L101.322816,95.8219585 C101.322816,95.8219585 76.092233,89.7329377 63.8373786,119.537092 C51.5825243,149.341246 45.9757282,226.896142 62.0752427,269.35905 L135.043689,269.35905 L127.194175,227.216617 Z" id="Shape" fill="url(#linearGradient-3)" fill-rule="nonzero"></path>
                        <path d="M82.3398058,168.329377 C82.3398058,168.329377 98.118932,245.884273 129.356796,245.884273 C160.59466,245.884273 190.711165,146.296736 190.711165,146.296736 L179.177184,129.792285 C179.177184,129.792285 143.053398,188.038576 132.56068,187.878338 C122.067961,187.718101 126.953883,97.1839763 101.322816,95.9821958 C75.6917476,94.620178 77.0533981,140.608309 82.3398058,168.329377 Z" id="Shape" fill="#9855FC" fill-rule="nonzero"></path>
                        <path d="M84.2621359,169.130564 C84.2621359,169.130564 100.041262,246.68546 131.279126,246.68546" id="Shape" stroke="#FFFFFF" stroke-width="0.8"></path>
                        <path d="M186.706311,146.216617 C180.298544,143.252226 176.213592,139.086053 177.575243,132.195846 C177.815534,130.913947 178.296117,129.632047 179.097087,128.350148 C183.822816,120.818991 200.723301,120.818991 212.337379,112.967359 C225.393204,104.154303 229.878641,107.759644 230.679612,111.124629 C232.121359,117.534125 211.055825,124.344214 202.645631,126.4273 C202.645631,126.4273 207.211165,136.442136 202.40534,144.534125 C199.762136,149.10089 191.512136,148.379822 186.706311,146.216617 Z" id="Shape" fill="#E1E8FF" fill-rule="nonzero"></path>
                        <path d="M205.288835,43.9851632 L225.072816,77.3145401" id="Shape" stroke="#C2D2FF" stroke-width="1.6" stroke-dasharray="3.2,3.2"></path>
                        <path d="M300.84466,61.611276 L272.330097,85.5667656" id="Shape" stroke="#C2D2FF" stroke-width="1.6" stroke-dasharray="3.2,3.2"></path>
                        <path d="M238.929612,144.614243 L234.84466,178.824926" id="Shape" stroke="#C2D2FF" stroke-width="1.6" stroke-dasharray="3.2,3.2"></path>
                        <ellipse id="Oval" fill="url(#linearGradient-4)" fill-rule="nonzero" cx="233.162621" cy="193.005935" rx="19.8640777" ry="19.8694362"></ellipse>
                        <ellipse id="Oval" stroke="#FFFFFF" stroke-width="0.799972836" transform="translate(233.148020, 192.954154) rotate(-83.136519) translate(-233.148020, -192.954154) " cx="233.14802" cy="192.954154" rx="12.6549101" ry="12.6583239"></ellipse>
                        <ellipse id="Oval" fill="url(#linearGradient-5)" fill-rule="nonzero" cx="206.330097" cy="44.3857567" rx="13.776699" ry="13.7804154"></ellipse>
                        <ellipse id="Oval" stroke="#FFFFFF" stroke-width="0.799972836" transform="translate(206.364154, 44.405081) rotate(-83.136519) translate(-206.364154, -44.405081) " cx="206.364154" cy="44.4050813" rx="8.81038044" ry="8.81275713"></ellipse>
                        <ellipse id="Oval" fill="url(#linearGradient-6)" fill-rule="nonzero" cx="310.856796" cy="52.3976261" rx="18.9029126" ry="18.9080119"></ellipse>
                        <ellipse id="Oval" stroke="#FFFFFF" stroke-width="0.799972836" transform="translate(310.829619, 52.457972) rotate(-83.136519) translate(-310.829619, -52.457972) " cx="310.829619" cy="52.4579715" rx="12.1743439" ry="12.177628"></ellipse>
                    </g>
                </g>
            </g>
        </g>
    </g>
</svg>