<?xml version="1.0" encoding="UTF-8"?>
<svg width="382px" height="283px" viewBox="0 0 382 283" version="1.1" xmlns="http://www.w3.org/2000/svg" xmlns:xlink="http://www.w3.org/1999/xlink">
    <!-- Generator: sketchtool 51.2 (57519) - http://www.bohemiancoding.com/sketch -->
    <title>7EE32BFD-6A1F-44BA-A573-8B6727C27134</title>
    <desc>Created with sketchtool.</desc>
    <defs>
        <linearGradient x1="79.285586%" y1="46.2890368%" x2="-11.5069249%" y2="101.52983%" id="linearGradient-1">
            <stop stop-color="#FFC000" offset="0%"></stop>
            <stop stop-color="#FFEB23" offset="100%"></stop>
        </linearGradient>
        <linearGradient x1="54.6701479%" y1="89.6661431%" x2="11.2395985%" y2="-57.9908216%" id="linearGradient-2">
            <stop stop-color="#AC6DFF" offset="0%"></stop>
            <stop stop-color="#6327CF" offset="100%"></stop>
        </linearGradient>
        <linearGradient x1="29.9705712%" y1="120.893757%" x2="86.034062%" y2="-27.5593387%" id="linearGradient-3">
            <stop stop-color="#AC6DFF" offset="0%"></stop>
            <stop stop-color="#6327CF" offset="100%"></stop>
        </linearGradient>
        <linearGradient x1="38.2071444%" y1="80.857628%" x2="118.161215%" y2="-84.6398575%" id="linearGradient-4">
            <stop stop-color="#AC6DFF" offset="0%"></stop>
            <stop stop-color="#6327CF" offset="100%"></stop>
        </linearGradient>
        <linearGradient x1="64.1239373%" y1="22.3400453%" x2="1.2827558%" y2="86.420139%" id="linearGradient-5">
            <stop stop-color="#00BEED" offset="0%"></stop>
            <stop stop-color="#00DFED" offset="100%"></stop>
        </linearGradient>
    </defs>
    <g id="Mobile" stroke="none" stroke-width="1" fill="none" fill-rule="evenodd">
        <g id="homepage-mobile" transform="translate(-20.000000, -6697.000000)">
            <g id="2" transform="translate(20.000000, 6464.000000)">
                <g id="illustration-2" transform="translate(0.000000, 233.000000)">
                    <polygon id="Shape" fill="#7D40E6" fill-rule="nonzero" points="294.308176 282.280508 0.400419287 282.280508 0.400419287 50.8440678 314.809644 50.8440678 262.274633 174.756497"></polygon>
                    <polygon id="Shape" fill="url(#linearGradient-1)" fill-rule="nonzero" points="26.6679245 282.200565 112.277568 159.487288 203.172746 204.575424 271.724528 55.1610169 240.091405 40.0516949 320.575681 0 338.914885 87.1384181 311.366038 74.0276836 221.431866 269.009887 129.33543 224.241525 90.3345912 282.200565"></polygon>
                    <path d="M333.869602,114.638983 C335.391195,117.75678 337.793711,120.314972 340.836897,122.153672 C337.713627,123.672599 335.150943,126.070904 333.309015,129.108757 C331.787421,125.99096 329.384906,123.432768 326.341719,121.594068 C329.46499,119.995198 332.107757,117.596893 333.869602,114.638983 Z" id="Shape" fill="#E1E8FF" fill-rule="nonzero"></path>
                    <path d="M323.779036,202.337006 C324.579874,203.935876 325.861216,205.294915 327.382809,206.254237 C325.781132,207.053672 324.419706,208.332768 323.4587,209.851695 C322.657862,208.252825 321.37652,206.893785 319.854927,205.934463 C321.536688,205.214972 322.898113,203.935876 323.779036,202.337006 Z" id="Shape" fill="#E1E8FF" fill-rule="nonzero"></path>
                    <path d="M377.755556,101.368362 C378.556394,102.967232 379.837736,104.326271 381.359329,105.285593 C379.757652,106.085028 378.396226,107.364124 377.43522,108.883051 C376.634382,107.284181 375.35304,105.925141 373.831447,104.965819 C375.513208,104.166384 376.874633,102.887288 377.755556,101.368362 Z" id="Shape" fill="#E1E8FF" fill-rule="nonzero"></path>
                    <path d="M216.066247,282.200565 C216.066247,282.200565 224.875472,242.228814 200.049476,205.214972 C200.049476,205.214972 185.39413,146.05678 266.278826,165.802825 C266.278826,165.802825 310.324948,205.534746 310.324948,282.280508 L216.066247,282.280508 L216.066247,282.200565 Z" id="Shape" fill="#22134A" fill-rule="nonzero"></path>
                    <path d="M96.7412998,260.216102 L99.5442348,269.009887 C186.034801,260.615819 201.571069,207.45339 201.571069,207.45339 L266.278826,165.722881 C338.114046,145.177401 351.808386,200.898023 351.808386,200.898023 L358.855765,199.858757 C355.332075,179.313277 344.200419,151.732768 310.244864,140.061017 C252.904822,120.235028 216.94717,147.415819 216.94717,147.415819 C216.94717,147.415819 186.515304,160.44661 169.937945,197.940113 C148.795807,245.986158 96.7412998,260.216102 96.7412998,260.216102 Z" id="Shape" fill="#22134A" fill-rule="nonzero"></path>
                    <path d="M134.9413,240.709887 C115.400839,255.099718 96.7412998,260.216102 96.7412998,260.216102 L99.5442348,269.009887 C116.842348,267.331073 131.177358,263.653672 143.189937,258.937006 L134.9413,240.709887 Z" id="Shape" fill="#FFFFFF" fill-rule="nonzero"></path>
                    <path d="M327.542977,148.535028 L323.698952,167.241808 C346.2826,178.353955 351.808386,200.898023 351.808386,200.898023 L358.855765,199.858757 C356.05283,183.310452 348.204612,162.205367 327.542977,148.535028 Z" id="Shape" fill="#E1E8FF" fill-rule="nonzero"></path>
                    <g id="Group" transform="translate(134.540881, 72.748588)" fill-rule="nonzero">
                        <path d="M75.1987421,56.919774 C75.1987421,56.919774 73.6771488,66.5929379 82.4863732,74.7471751 C85.929979,88.8172316 66.2293501,88.8172316 66.2293501,88.8172316 L57.0197065,61.7963277 L75.1987421,56.919774 Z" id="Shape" fill="#E1E8FF"></path>
                        <path d="M58.0607966,5.43615819 C42.124109,6.95508475 29.8712788,6.47542373 21.9429769,21.3449153 C12.4930818,39.0124294 30.0314465,62.7556497 21.3023061,71.3096045 C12.4930818,79.9435028 20.9819706,87.6980226 27.3886792,84.6601695 C30.5119497,83.1412429 31.3928721,82.1019774 34.1157233,82.8214689 C40.442348,84.5002825 32.59413,95.4525424 40.7626834,100.488983 C52.5350105,107.763842 83.4473795,91.4553672 60.7836478,64.5943503 C41.2431866,48.6855932 58.0607966,5.43615819 58.0607966,5.43615819 Z" id="Shape" fill="url(#linearGradient-2)"></path>
                        <path d="M68.2314465,18.0672316 C68.2314465,18.0672316 85.1291405,26.8610169 85.5295597,28.140113 C85.929979,29.419209 83.0469602,35.7347458 79.8436059,37.0138418 C74.2377358,34.6954802 68.2314465,18.0672316 68.2314465,18.0672316 Z" id="Shape" fill="#E1E8FF"></path>
                        <path d="M23.6247379,17.9872881 C12.7333333,17.0279661 6.88721174,26.8610169 9.85031447,35.1751412 C12.7333333,43.4892655 3.12327044,48.6855932 0.961006289,50.7641243 C-1.20125786,52.7627119 14.9756813,63.7149718 23.6247379,51.0039548 C35.397065,33.4963277 23.6247379,17.9872881 23.6247379,17.9872881 Z" id="Shape" fill="url(#linearGradient-3)"></path>
                        <g id="XMLID_25_-link" transform="translate(39.241090, 4.796610)" fill="#FFFFFF">
                            <path d="M15.0557652,53.9618644 C21.3823899,61.5564972 35.7974843,64.0347458 43.6457023,55.800565 C51.4939203,47.4864407 37.3991614,26.4612994 32.3538784,18.6268362 C27.3085954,10.7923729 21.3023061,1.83870056 18.7396226,0.639548023 C16.1769392,-0.55960452 -3.44360587,14.309887 6.08637317,31.4977401 C9.93039832,38.3728814 11.3719078,42.130226 11.3719078,42.130226 C2.00209644,40.6912429 -0.32033543,47.7262712 0.64067086,50.9240113 C2.00209644,55.0011299 5.76603774,57.559322 15.0557652,53.9618644 Z" id="XMLID_25_"></path>
                        </g>
                        <ellipse id="Oval" fill="#211648" transform="translate(63.877912, 25.413176) rotate(-32.216745) translate(-63.877912, -25.413176) " cx="63.8779119" cy="25.4131762" rx="2.48248986" ry="3.03771885"></ellipse>
                        <path d="M54.7773585,21.8245763 C53.0155136,20.8652542 54.4570231,14.949435 58.7014675,15.3491525 C62.9459119,15.6689266 58.3811321,23.7432203 54.7773585,21.8245763 Z" id="Shape" fill="#7832E7"></path>
                        <path d="M58.3010482,4.23700565 C53.8163522,-1.67881356 29.4708595,-3.27768362 23.6247379,17.5875706 C32.1136268,12.0714689 42.124109,10.7923729 47.5698113,11.1121469 C53.6561845,11.4319209 61.4243187,8.31412429 58.3010482,4.23700565 Z" id="Shape" fill="url(#linearGradient-4)"></path>
                        <path d="M28.1895178,19.9858757 C30.8322851,17.4276836 27.1484277,13.670339 23.5446541,13.9101695 C19.9408805,14.15 20.5815514,16.6282486 23.2243187,18.9466102 C24.9861635,20.6254237 26.0272537,22.1443503 28.1895178,19.9858757 Z" id="Shape" fill="#FFDE18"></path>
                    </g>
                    <path d="M358.615514,198.819492 C360.537526,203.775989 362.539623,216.886723 352.288889,221.683333 C352.288889,212.569774 351.88847,201.05791 351.88847,201.05791" id="XMLID_22_" fill="#E1E8FF" fill-rule="nonzero"></path>
                    <path d="M350.286792,200.898023 C349.966457,202.257062 352.449057,203.056497 355.972746,202.257062 C359.416352,201.457627 361.018029,200.578249 360.537526,199.139266 C360.057023,197.700282 357.814675,198.179944 355.492243,198.659605 C353.009644,199.219209 350.607128,199.379096 350.286792,200.898023 Z" id="Shape" fill="#22134A" fill-rule="nonzero"></path>
                    <g id="Group" transform="translate(72.075472, 257.418079)" fill-rule="nonzero">
                        <path d="M28.5098532,10.7124294 C22.5035639,13.350565 6.48679245,16.3084746 0.160167715,4.07711864 C11.2918239,3.59745763 25.3865828,2.63813559 25.3865828,2.63813559" id="XMLID_18_" fill="#FFFFFF"></path>
                        <path d="M25.5467505,0.719491525 C23.8649895,0.399717514 22.9840671,3.43757062 24.1052411,7.67457627 C25.2264151,11.9115819 26.427673,13.7502825 28.109434,13.1107345 C29.791195,12.3912429 29.1505241,9.75310734 28.4297694,6.87514124 C27.7090147,3.99717514 27.3886792,1.03926554 25.5467505,0.719491525 Z" id="Shape" fill="#22134A"></path>
                    </g>
                    <g id="Group" transform="translate(46.448637, 78.344633)" fill-rule="nonzero">
                        <polygon id="Shape" fill="#FFFFFF" points="0.32033543 25.4220339 16.8976939 32.4570621 79.6033543 0.239830508"></polygon>
                        <polygon id="Shape" fill="#FFFFFF" points="25.3865828 37.4935028 46.5287212 46.8468927 79.6033543 0.239830508"></polygon>
                        <polygon id="Shape" fill="url(#linearGradient-5)" points="23.1442348 49.5649718 16.8976939 32.4570621 79.6033543 0.239830508 25.3865828 37.4935028"></polygon>
                        <polygon id="Shape" fill="#E1E8FF" points="33.3949686 41.0110169 23.1442348 49.5649718 25.3865828 37.4935028"></polygon>
                    </g>
                    <path d="M203.412998,119.675424 C203.412998,119.675424 207.497275,123.992373 211.741719,121.594068 C215.986164,119.195763 214.224319,113.759605 214.224319,113.759605 L203.412998,119.675424 Z" id="Shape" fill="#22134A" fill-rule="nonzero"></path>
                    <path d="M40.6825996,123.192938 L20.7417191,129.028814" id="Shape" stroke="#FFFFFF" stroke-width="0.8"></path>
                    <path d="M69.4327044,147.335876 L67.1903564,167.961299" id="Shape" stroke="#FFFFFF" stroke-width="0.8"></path>
                    <path d="M50.4528302,140.940395 L35.5572327,158.687853" id="Shape" stroke="#FFFFFF" stroke-width="0.8"></path>
                    <path d="M269.642348,168.041243 C265.798323,164.124011 259.391614,158.927684 259.391614,158.927684" id="Shape" stroke="#FFFFFF" stroke-width="1.6"></path>
                </g>
            </g>
        </g>
    </g>
</svg>