<?xml version="1.0" encoding="UTF-8"?>
<svg width="23px" height="23px" viewBox="0 0 23 23" version="1.1" xmlns="http://www.w3.org/2000/svg" xmlns:xlink="http://www.w3.org/1999/xlink">
    <!-- Generator: sketchtool 51.2 (57519) - http://www.bohemiancoding.com/sketch -->
    <title>5F5628CC-0127-4AC8-9C94-83D95301CA20</title>
    <desc>Created with sketchtool.</desc>
    <defs></defs>
    <g id="Mobile" stroke="none" stroke-width="1" fill="none" fill-rule="evenodd">
        <g id="homepage-mobile" transform="translate(-20.000000, -7679.000000)" fill="#7D40E6" fill-rule="nonzero">
            <g id="footer-copy" transform="translate(-2.000000, 7480.000000)">
                <g id="phone" transform="translate(22.000000, 197.000000)">
                    <g id="phone-icon" transform="translate(0.000000, 2.000000)">
                        <path d="M22.9890371,18.1514516 C23.0377739,18.5250784 22.9239884,18.8499366 22.6481582,19.1260262 L19.4098084,22.3420029 C19.2637174,22.504432 19.0730273,22.6426162 18.8376585,22.7561971 C18.6022897,22.8699373 18.3710188,22.9430304 18.1438458,22.9754764 C18.1276135,22.9754764 18.0787971,22.9796566 17.9975957,22.987778 C17.9165534,22.9958597 17.8110432,23 17.6811846,23 C17.3726908,23 16.8735068,22.9472105 16.1836328,22.8415918 C15.4937588,22.7359731 14.6497174,22.4760467 13.6515087,22.0619322 C12.6530613,21.647738 11.5208961,21.026367 10.2548141,20.1980583 C8.9887322,19.3697893 7.64140904,18.232706 6.21296402,16.7870472 C5.07670093,15.6662864 4.1352258,14.5942544 3.38853863,13.5709909 C2.64185146,12.5476478 2.04125526,11.6014983 1.58675002,10.7325026 C1.132205,9.86350694 0.791326078,9.07572582 0.564073461,8.36915924 C0.336820844,7.66259267 0.18261371,7.05348355 0.101452061,6.5418319 C0.0202904123,6.03018024 -0.0121742474,5.62816822 0.00405808245,5.33579585 C0.0202904123,5.04342347 0.0284065772,4.88099438 0.0284065772,4.84850856 C0.0608712368,4.62110782 0.133916721,4.38964636 0.24754303,4.15412417 C0.361169338,3.91860197 0.499144142,3.72774778 0.66146744,3.5815616 L3.89981724,0.341101104 C4.12706985,0.113700368 4.38678713,0 4.67896907,0 C4.88998935,0 5.07666115,0.0609109115 5.23898445,0.182732735 C5.40130774,0.304554558 5.53928255,0.454801473 5.65290886,0.63347348 L8.25819779,5.57943949 C8.40428876,5.83932605 8.44486958,6.12357697 8.37994026,6.43219226 C8.31501094,6.74080754 8.17703614,7.0006941 7.96601585,7.21185192 L6.77293961,8.40570579 C6.74047495,8.43819161 6.71206838,8.49098107 6.68771988,8.56407416 C6.66337139,8.63716725 6.65119714,8.69807816 6.65119714,8.74680689 C6.71612646,9.087908 6.86221743,9.47773783 7.08947004,9.9162964 C7.284258,10.3061262 7.5845561,10.7812313 7.99036435,11.3416117 C8.39617259,11.9019921 8.9724203,12.547608 9.71910747,13.2785389 C10.4495623,14.0257924 11.0988555,14.6063968 11.666987,15.0206706 C12.2349992,15.4347055 12.709954,15.7393795 13.0914138,15.9342945 C13.4728735,16.1292094 13.7650555,16.2469705 13.9679198,16.2874583 L14.2721964,16.348409 C14.3046611,16.348409 14.3575355,16.336187 14.4305014,16.3118625 C14.5035469,16.2874583 14.556302,16.259073 14.5888064,16.2265474 L15.9766308,14.8134142 C16.2689719,14.5535675 16.6096917,14.4236242 16.9993074,14.4236242 C17.2753366,14.4236242 17.4943537,14.4723131 17.656677,14.5698104 L17.6809857,14.5698104 L22.3802054,17.347348 C22.7212036,17.558665 22.924068,17.8265934 22.9890371,18.1514516 Z" id="Shape"></path>
                    </g>
                </g>
            </g>
        </g>
    </g>
</svg>