<?xml version="1.0" encoding="UTF-8"?>
<svg width="183px" height="105px" viewBox="0 0 183 105" version="1.1" xmlns="http://www.w3.org/2000/svg" xmlns:xlink="http://www.w3.org/1999/xlink">
    <!-- Generator: sketchtool 51.2 (57519) - http://www.bohemiancoding.com/sketch -->
    <title>4362D4BB-9977-4209-AE77-25543C87FA5B</title>
    <desc>Created with sketchtool.</desc>
    <defs>
        <linearGradient x1="37.9087639%" y1="90.8861657%" x2="65.8686163%" y2="-4.20432211%" id="linearGradient-1">
            <stop stop-color="#FFC000" offset="0%"></stop>
            <stop stop-color="#FFEB23" offset="100%"></stop>
        </linearGradient>
        <linearGradient x1="1.93509615%" y1="10.6389423%" x2="121.745673%" y2="109.30625%" id="linearGradient-2">
            <stop stop-color="#FF840C" offset="0%"></stop>
            <stop stop-color="#FFEB23" stop-opacity="0" offset="100%"></stop>
        </linearGradient>
        <linearGradient x1="41.9981744%" y1="49.2416984%" x2="102.063185%" y2="11.9669852%" id="linearGradient-3">
            <stop stop-color="#9855FC" offset="1.020408%"></stop>
            <stop stop-color="#752EE5" offset="100%"></stop>
        </linearGradient>
        <linearGradient x1="28.0751687%" y1="70.4876672%" x2="102.962483%" y2="-29.3002972%" id="linearGradient-4">
            <stop stop-color="#AACEFC" offset="1.530612%"></stop>
            <stop stop-color="#FFFFFF" offset="100%"></stop>
        </linearGradient>
        <linearGradient x1="5.1219973%" y1="81.959584%" x2="77.6553306%" y2="16.3078752%" id="linearGradient-5">
            <stop stop-color="#9855FC" offset="1.020408%"></stop>
            <stop stop-color="#752EE5" offset="100%"></stop>
        </linearGradient>
        <linearGradient x1="37.8987189%" y1="90.8927604%" x2="65.8997886%" y2="-4.33899754%" id="linearGradient-6">
            <stop stop-color="#FFC000" offset="0%"></stop>
            <stop stop-color="#FFEB23" offset="100%"></stop>
        </linearGradient>
        <linearGradient x1="1.98975155%" y1="10.6319876%" x2="121.63354%" y2="109.162112%" id="linearGradient-7">
            <stop stop-color="#FF840C" offset="0%"></stop>
            <stop stop-color="#FFEB23" stop-opacity="0" offset="100%"></stop>
        </linearGradient>
        <linearGradient x1="37.9741684%" y1="90.8460063%" x2="66.0591406%" y2="-4.67070124%" id="linearGradient-8">
            <stop stop-color="#FFC000" offset="0%"></stop>
            <stop stop-color="#FFEB23" offset="100%"></stop>
        </linearGradient>
        <linearGradient x1="2.13464567%" y1="10.3799213%" x2="121.852756%" y2="108.97126%" id="linearGradient-9">
            <stop stop-color="#FF840C" offset="0%"></stop>
            <stop stop-color="#FFEB23" stop-opacity="0" offset="100%"></stop>
        </linearGradient>
    </defs>
    <g id="Mobile" stroke="none" stroke-width="1" fill="none" fill-rule="evenodd">
        <g id="homepage-mobile" transform="translate(-106.000000, -1840.000000)" fill-rule="nonzero">
            <g id="3" transform="translate(21.000000, 1840.000000)">
                <g id="illustration-3" transform="translate(85.000000, 0.000000)">
                    <g id="Group" transform="translate(81.711628, 0.000000)">
                        <ellipse id="Oval" fill="url(#linearGradient-1)" cx="13.3632558" cy="13.4878049" rx="12.6823256" ry="12.7195122"></ellipse>
                        <ellipse id="Oval" fill="#FF9827" transform="translate(13.354029, 13.478184) rotate(-14.708858) translate(-13.354029, -13.478184) " cx="13.3540292" cy="13.4781841" rx="8.8518321" ry="8.8777871"></ellipse>
                        <ellipse id="Oval" fill="url(#linearGradient-2)" cx="13.3632558" cy="13.4878049" rx="8.85209302" ry="8.87804878"></ellipse>
                    </g>
                    <path d="M146.570233,18.097561 L73.0297674,18.097561 C70.135814,18.097561 67.7525581,20.6585366 67.7525581,23.8170732 L67.7525581,59.7560976 C67.7525581,63.1707317 70.3911628,65.9878049 73.5404651,65.9878049 L98.7348837,65.9878049 C99.415814,65.9878049 100.011628,66.2439024 100.522326,66.6707317 L105.969767,71.4512195 C107.842326,73.0731707 110.566047,71.6219512 110.566047,69.0609756 C110.566047,67.3536585 111.842791,65.9878049 113.374884,65.9878049 L146.229767,65.9878049 C149.208837,65.9878049 151.677209,63.3414634 151.677209,60.1829268 L151.677209,23.4756098 C151.677209,20.4878049 149.37907,18.097561 146.570233,18.097561 Z" id="Shape" fill="url(#linearGradient-3)"></path>
                    <path d="M141.207907,33.7195122 L83.4990698,33.7195122 C81.8818605,33.7195122 80.8604651,34.4878049 80.8604651,36.1097561 L80.8604651,78.5365854 C80.8604651,80.1585366 81.8818605,81.695122 83.4990698,81.695122 L115.077209,81.695122 L126.73814,91.1707317 L126.73814,81.695122 L141.207907,81.695122 C142.825116,81.695122 143.931628,80.1585366 143.931628,78.5365854 L143.931628,36.0243902 C143.931628,34.402439 142.825116,33.7195122 141.207907,33.7195122 Z" id="Shape" fill="url(#linearGradient-4)"></path>
                    <path d="M104.437674,46.7804878 L46.8139535,46.7804878 C45.1967442,46.7804878 44.1753488,47.5487805 44.1753488,49.1707317 L44.1753488,91.597561 C44.1753488,93.2195122 45.1967442,94.7560976 46.8139535,94.7560976 L78.392093,94.7560976 L90.0530233,104.231707 L90.0530233,94.7560976 L104.522791,94.7560976 C106.14,94.7560976 107.246512,93.2195122 107.246512,91.597561 L107.246512,49.1707317 C107.246512,47.4634146 106.054884,46.7804878 104.437674,46.7804878 Z" id="Shape" fill="url(#linearGradient-5)"></path>
                    <g id="Group" transform="translate(18.725581, 26.463415)">
                        <ellipse id="Oval" fill="url(#linearGradient-6)" cx="20.3427907" cy="20.3170732" rx="19.5767442" ry="19.6341463"></ellipse>
                        <ellipse id="Oval" fill="#FF9827" transform="translate(20.337854, 20.304226) rotate(-14.708858) translate(-20.337854, -20.304226) " cx="20.337854" cy="20.3042256" rx="13.703317" ry="13.7434973"></ellipse>
                        <ellipse id="Oval" fill="url(#linearGradient-7)" cx="20.3427907" cy="20.3170732" rx="13.7037209" ry="13.7439024"></ellipse>
                    </g>
                    <g id="Group" transform="translate(134.483721, 40.975610)">
                        <ellipse id="Oval" fill="url(#linearGradient-8)" cx="15.6613953" cy="15.7073171" rx="15.4060465" ry="15.4512195"></ellipse>
                        <ellipse id="Oval" fill="#FF9827" transform="translate(15.667217, 15.699737) rotate(-14.708858) translate(-15.667217, -15.699737) " cx="15.6672173" cy="15.6997366" rx="10.8094488" ry="10.8411439"></ellipse>
                        <ellipse id="Oval" fill="url(#linearGradient-9)" cx="15.6613953" cy="15.7073171" rx="10.8097674" ry="10.8414634"></ellipse>
                    </g>
                    <path d="M6.12837209,49.7682927 C7.23488372,52.0731707 9.02232558,54.0365854 11.2353488,55.402439 C8.9372093,56.5121951 6.97953488,58.304878 5.61767442,60.5243902 C4.51116279,58.2195122 2.72372093,56.2560976 0.510697674,54.8902439 C2.80883721,53.7804878 4.76651163,51.9878049 6.12837209,49.7682927 Z" id="Shape" fill="#E1E8FF"></path>
                    <path d="M48.6865116,3.5 C49.6227907,5.37804878 51.0697674,7 52.8572093,8.1097561 C50.9846512,9.04878049 49.3674419,10.5 48.2609302,12.2926829 C47.3246512,10.4146341 45.8776744,8.79268293 44.0902326,7.68292683 C46.047907,6.74390244 47.6651163,5.29268293 48.6865116,3.5 Z" id="Shape" fill="#E1E8FF"></path>
                    <path d="M156.784186,78.2804878 C157.720465,80.1585366 159.167442,81.7804878 160.954884,82.8902439 C159.082326,83.8292683 157.465116,85.2804878 156.358605,87.0731707 C155.422326,85.195122 153.975349,83.5731707 152.187907,82.4634146 C154.060465,81.5243902 155.677674,80.0731707 156.784186,78.2804878 Z" id="Shape" fill="#E1E8FF"></path>
                    <path d="M19.7469767,72.2195122 C20.3427907,73.3292683 21.2790698,74.2682927 22.4706977,74.9512195 C21.364186,75.5487805 20.427907,76.4878049 19.7469767,77.6829268 C19.1511628,76.5731707 18.2148837,75.6341463 17.0232558,74.9512195 C18.2148837,74.2682927 19.1511628,73.3292683 19.7469767,72.2195122 Z" id="Shape" fill="#E1E8FF"></path>
                    <path d="M180.02093,50.7073171 C180.616744,51.8170732 181.553023,52.7560976 182.744651,53.4390244 C181.63814,54.0365854 180.70186,54.9756098 180.02093,56.1707317 C179.425116,55.0609756 178.488837,54.1219512 177.297209,53.4390244 C178.488837,52.7560976 179.425116,51.8170732 180.02093,50.7073171 Z" id="Shape" fill="#E1E8FF"></path>
                    <path d="M169.806977,32.1829268 C170.743256,33.9756098 172.275349,35.4268293 173.977674,36.3658537 C172.190233,37.304878 170.743256,38.8414634 169.806977,40.5487805 C168.870698,38.7560976 167.338605,37.304878 165.636279,36.3658537 C167.338605,35.4268293 168.785581,33.9756098 169.806977,32.1829268 Z" id="Shape" fill="#E1E8FF"></path>
                    <g id="Group" transform="translate(59.581395, 68.292683)" fill="#FFFFFF">
                        <ellipse id="Oval" cx="3.74511628" cy="2.98780488" rx="2.97906977" ry="2.98780488"></ellipse>
                        <ellipse id="Oval" cx="16.0869767" cy="2.98780488" rx="2.97906977" ry="2.98780488"></ellipse>
                        <ellipse id="Oval" cx="28.5139535" cy="2.98780488" rx="2.97906977" ry="2.98780488"></ellipse>
                    </g>
                </g>
            </g>
        </g>
    </g>
</svg>