<?xml version="1.0" encoding="UTF-8"?>
<svg width="11px" height="7px" viewBox="0 0 11 7" version="1.1" xmlns="http://www.w3.org/2000/svg" xmlns:xlink="http://www.w3.org/1999/xlink">
    <!-- Generator: sketchtool 51.2 (57519) - http://www.bohemiancoding.com/sketch -->
    <title>CD4157FE-B1BD-4BB1-8F02-CA8E9BDD3CCA</title>
    <desc>Created with sketchtool.</desc>
    <defs></defs>
    <g id="Website" stroke="none" stroke-width="1" fill="none" fill-rule="evenodd">
        <g id="contact-desktop" transform="translate(-671.000000, -1166.000000)" fill="#FC178D">
            <g id="Section---Contact-Form" transform="translate(204.000000, 783.000000)">
                <g id="form" transform="translate(0.000000, 177.000000)">
                    <g id="user-type" transform="translate(467.000000, 206.000000)">
                        <g id="arrow-icon">
                            <path d="M5.89315917,0.500384397 L10.3644272,6.19108922 C10.535034,6.40822504 10.4973147,6.72255246 10.2801789,6.89315917 C10.1920861,6.96237493 10.0833,7 9.97126808,7 L1.02873192,7 C0.752589547,7 0.528731922,6.77614237 0.528731922,6.5 C0.528731922,6.38796805 0.566356997,6.279182 0.635572753,6.19108922 L5.10684083,0.500384397 C5.27744754,0.283248584 5.59177496,0.245529293 5.80891078,0.416136004 C5.84025109,0.440760535 5.86853464,0.469044086 5.89315917,0.500384397 Z" id="Triangle" transform="translate(5.500000, 3.500000) scale(1, -1) translate(-5.500000, -3.500000) "></path>
                        </g>
                    </g>
                </g>
            </g>
        </g>
    </g>
</svg>