<?xml version="1.0" encoding="UTF-8"?>
<svg width="179px" height="121px" viewBox="0 0 179 121" version="1.1" xmlns="http://www.w3.org/2000/svg" xmlns:xlink="http://www.w3.org/1999/xlink">
    <!-- Generator: sketchtool 51.2 (57519) - http://www.bohemiancoding.com/sketch -->
    <title>6085DC6B-DDB8-447C-AAA0-457EC9A14EB4</title>
    <desc>Created with sketchtool.</desc>
    <defs>
        <linearGradient x1="49.9652467%" y1="-0.10717245%" x2="49.9652467%" y2="140.157786%" id="linearGradient-1">
            <stop stop-color="#AACEFC" offset="1.530612%"></stop>
            <stop stop-color="#D5E8FC" offset="15.3%"></stop>
            <stop stop-color="#FFFFFF" offset="100%"></stop>
        </linearGradient>
        <linearGradient x1="-0.00984455959%" y1="49.9766839%" x2="100.218912%" y2="49.9766839%" id="linearGradient-2">
            <stop stop-color="#9855FC" offset="1.020408%"></stop>
            <stop stop-color="#752EE5" offset="100%"></stop>
        </linearGradient>
        <linearGradient x1="0.405649949%" y1="49.9747126%" x2="100.089757%" y2="49.9747126%" id="linearGradient-3">
            <stop stop-color="#FFC000" offset="0%"></stop>
            <stop stop-color="#FFEB23" offset="100%"></stop>
        </linearGradient>
    </defs>
    <g id="Mobile" stroke="none" stroke-width="1" fill="none" fill-rule="evenodd">
        <g id="homepage-mobile" transform="translate(-120.000000, -1202.000000)">
            <g id="1" transform="translate(19.000000, 1202.000000)">
                <g id="illustration-1" transform="translate(101.000000, 0.000000)">
                    <path d="M20.5104167,103.365891 C20.5104167,103.365891 29.5536458,76.7271318 43.8177083,74.8511628 C58.0817708,72.9751938 89.7796875,79.1658915 89.7796875,79.1658915 C89.7796875,79.1658915 107.027083,88.8271318 108.891667,103.272093 L20.5104167,103.365891 Z" id="Shape" fill="#9855FC" fill-rule="nonzero"></path>
                    <rect id="Rectangle-path" fill="#E1E8FF" fill-rule="nonzero" x="0.8390625" y="103.178295" width="177.135417" height="1"></rect>
                    <path d="M25.171875,105.992248 C28.528125,106.648837 29.8333333,102.334109 29.7401042,100.551938 C29.646875,98.675969 27.7822917,95.6744186 24.7057292,98.4883721 C22.6546875,95.4868217 19.3916667,95.955814 18.8322917,97.9255814 C16.8744792,95.7682171 14.3572917,96.9875969 13.7979167,98.8635659 C13.1453125,100.739535 13.2385417,106.555039 15.7557292,106.648837 C17.9932292,106.742636 18.3661458,104.960465 18.3661458,104.960465 C20.3239583,107.211628 23.2140625,106.086047 23.8666667,104.585271 C23.8666667,104.585271 23.9598958,105.710853 25.171875,105.992248 Z" id="Shape" fill="#E1E8FF" fill-rule="nonzero"></path>
                    <path d="M114.019271,105.992248 C117.375521,106.648837 118.680729,102.334109 118.5875,100.551938 C118.494271,98.7697674 116.629687,95.6744186 113.553125,98.4883721 C111.502083,95.4868217 108.239062,95.955814 107.679687,97.9255814 C105.721875,95.7682171 103.204687,96.9875969 102.645312,98.8635659 C101.992708,100.739535 102.085937,106.555039 104.603125,106.648837 C106.840625,106.742636 107.213542,104.960465 107.213542,104.960465 C109.171354,107.211628 112.061458,106.086047 112.714062,104.585271 C112.620833,104.585271 112.714062,105.710853 114.019271,105.992248 Z" id="Shape" fill="#E1E8FF" fill-rule="nonzero"></path>
                    <g id="Group" transform="translate(17.713542, 0.000000)">
                        <path d="M66.4723958,30.1093023 C66.4723958,18.1031008 57.9885417,0.656589147 42.3260417,0.468992248 C26.6635417,0.281395349 21.815625,2.34496124 22.1885417,6.84728682 C22.5614583,11.3496124 27.5026042,8.62945736 28.4348958,10.6930233 C29.3671875,12.7565891 30.6723958,20.2604651 24.1463542,30.1093023 C37.7578125,30.1093023 66.4723958,30.1093023 66.4723958,30.1093023 Z" id="Shape" fill="#9855FC" fill-rule="nonzero"></path>
                        <g transform="translate(21.442708, 0.000000)" id="Shape">
                            <path d="M28.1552083,24.8565891 L25.4515625,21.479845 C25.3583333,21.2922481 25.4515625,21.1046512 25.6380208,21.1046512 L30.0197917,21.0108527 C30.6723958,20.0728682 31.5114583,19.1348837 32.5369792,18.3844961 C35.3338542,16.1333333 38.6901042,15.1953488 41.6734375,15.4767442 C39.4359375,10.8806202 36.1729167,6.65968992 31.9776042,3.84573643 C31.9776042,3.84573643 31.9776042,3.93953488 31.9776042,3.93953488 C31.9776042,5.72170543 31.0453125,7.31627907 29.5536458,8.34806202 L29.5536458,11.0682171 C29.5536458,11.1620155 29.3671875,11.255814 29.2739583,11.1620155 L27.0364583,9.56744186 C26.290625,9.75503876 25.5447917,9.84883721 24.7989583,9.84883721 C20.8833333,9.84883721 17.7135417,7.22248062 17.7135417,3.93953488 C17.7135417,2.62635659 18.2729167,1.40697674 19.1119792,0.468992248 C16.5015625,0.468992248 14.2640625,0.562790698 12.30625,0.656589147 C12.1197917,1.68837209 11.5604167,2.62635659 10.628125,3.28294574 L10.7213542,5.34651163 C10.7213542,5.44031008 10.628125,5.53410853 10.5348958,5.44031008 L8.85677083,4.22093023 C8.29739583,4.40852713 7.73802083,4.50232558 7.17864583,4.50232558 C5.40729167,4.59612403 3.72916667,3.93953488 2.70364583,2.90775194 C1.30520833,3.93953488 0.745833333,5.15891473 0.8390625,6.75348837 C1.21197917,11.255814 6.153125,8.53565891 7.08541667,10.5992248 C7.45833333,11.5372093 8.01770833,13.5069767 7.83125,16.3209302 C8.76354167,15.1015504 10.3484375,14.3511628 12.1197917,14.2573643 C15.103125,14.1635659 17.7135417,16.0395349 17.8067708,18.572093 C17.9,19.9790698 17.1541667,21.1984496 16.1286458,22.0426357 L16.221875,24.1062016 C16.221875,24.2 16.1286458,24.2937984 16.0354167,24.2 L14.3572917,22.9806202 C13.7979167,23.1682171 13.2385417,23.2620155 12.6791667,23.2620155 C10.2552083,23.355814 8.1109375,22.1364341 7.36510417,20.3542636 C6.7125,23.1682171 5.40729167,26.4511628 2.98333333,30.1093023 C9.509375,30.1093023 19.578125,30.1093023 28.3416667,30.1093023 C27.6890625,28.5147287 27.6890625,26.6387597 28.1552083,24.8565891 Z"></path>
                            <path d="M24.7989583,9.84883721 C25.5447917,9.84883721 26.290625,9.75503876 27.0364583,9.56744186 L29.1807292,11.255814 C29.2739583,11.3496124 29.4604167,11.255814 29.4604167,11.1620155 L29.4604167,8.44186047 C30.9520833,7.41007752 31.884375,5.81550388 31.884375,4.03333333 C31.884375,4.03333333 31.884375,3.93953488 31.884375,3.93953488 C28.8078125,1.87596899 25.0786458,0.656589147 20.9765625,0.562790698 C20.3239583,0.562790698 19.7645833,0.562790698 19.2052083,0.562790698 C18.3661458,1.50077519 17.8067708,2.72015504 17.8067708,4.03333333 C17.7135417,7.22248062 20.8833333,9.84883721 24.7989583,9.84883721 Z" fill="#752EE5" fill-rule="nonzero"></path>
                            <path d="M41.5802083,15.4767442 C38.596875,15.1015504 35.240625,16.0395349 32.44375,18.3844961 C31.5114583,19.2286822 30.6723958,20.0728682 29.9265625,21.0108527 L25.5447917,21.1046512 C25.3583333,21.1046512 25.2651042,21.3860465 25.3583333,21.479845 L28.0619792,24.8565891 C27.5958333,26.6387597 27.5958333,28.4209302 28.0619792,30.1093023 C37.2916667,30.1093023 45.0296875,30.1093023 45.0296875,30.1093023 C45.0296875,25.6069767 43.9109375,20.2604651 41.5802083,15.4767442 Z" fill="#752EE5" fill-rule="nonzero"></path>
                            <path d="M12.4927083,23.355814 C13.0520833,23.355814 13.7046875,23.2620155 14.1708333,23.0744186 L15.8489583,24.2937984 C15.9421875,24.3875969 16.0354167,24.2937984 16.0354167,24.2 L15.9421875,22.1364341 C17.0609375,21.2922481 17.7135417,19.9790698 17.6203125,18.6658915 C17.5270833,16.1333333 15.0098958,14.2573643 11.9333333,14.3511628 C10.1619792,14.4449612 8.57708333,15.2891473 7.64479167,16.4147287 C7.5515625,17.6341085 7.36510417,18.9472868 6.9921875,20.448062 C7.92447917,22.2302326 10.06875,23.4496124 12.4927083,23.355814 Z" fill="#752EE5" fill-rule="nonzero"></path>
                            <path d="M7.08541667,4.59612403 C7.64479167,4.59612403 8.29739583,4.50232558 8.76354167,4.31472868 L10.4416667,5.53410853 C10.5348958,5.62790698 10.628125,5.53410853 10.628125,5.44031008 L10.5348958,3.37674419 C11.3739583,2.72015504 12.0265625,1.78217054 12.2130208,0.750387597 C7.36510417,1.1255814 4.28854167,1.87596899 2.61041667,3.00155039 C3.6359375,4.03333333 5.3140625,4.68992248 7.08541667,4.59612403 Z" fill="#752EE5" fill-rule="nonzero"></path>
                        </g>
                        <path d="M71.040625,43.2410853 L17.7135417,43.2410853 L17.7135417,31.2348837 C17.7135417,30.5782946 18.1796875,30.1093023 18.8322917,30.1093023 L69.6421875,30.1093023 C70.3880208,30.1093023 71.040625,30.7658915 71.040625,31.5162791 L71.040625,43.2410853 Z" id="Shape" fill="#350D89" fill-rule="nonzero"></path>
                        <path d="M84.7453125,50.9325581 L3.82239583,50.9325581 C1.86458333,50.9325581 0.2796875,49.3379845 0.2796875,47.3682171 L0.2796875,43.2410853 L88.4744792,43.2410853 L88.4744792,47.1806202 C88.4744792,49.244186 86.7963542,50.9325581 84.7453125,50.9325581 Z" id="Shape" fill="#9855FC" fill-rule="nonzero"></path>
                        <path d="M19.9510417,50.9325581 C17.340625,52.0581395 17.9,54.1217054 19.9510417,54.5906977 C12.2130208,57.9674419 9.60260417,66.4093023 10.8145833,70.4426357 C12.0265625,74.475969 16.0354167,78.4155039 23.8666667,76.8209302 C17.9932292,84.4186047 21.1630208,103.272093 34.2151042,105.710853 C48.2927083,108.337209 55.378125,98.8635659 56.7765625,91.3596899 C60.7854167,97.1751938 66.00625,94.3612403 67.4046875,93.048062 C69.921875,90.7031008 68.5234375,85.2627907 65.3536458,83.2930233 C73.9307292,85.3565891 77.9395833,78.7906977 78.2192708,74.6635659 C78.4989583,70.5364341 76.2614583,64.0643411 70.7609375,62.375969 C77.5666667,61.1565891 73.8375,57.1232558 71.4135417,58.3426357 C75.9817708,55.5286822 74.7697917,50.9325581 72.9052083,50.9325581 C62.5567708,50.9325581 19.9510417,50.9325581 19.9510417,50.9325581 Z" id="Shape" fill="url(#linearGradient-1)" fill-rule="nonzero"></path>
                        <path d="M54.7255208,42.3031008 C54.7255208,42.8658915 54.259375,43.2410853 53.7932292,43.2410853 L36.0796875,43.2410853 C35.5203125,43.2410853 35.1473958,42.772093 35.1473958,42.3031008 L35.1473958,30.0155039 C35.1473958,29.4527132 35.6135417,29.0775194 36.0796875,29.0775194 L53.7,29.0775194 C54.259375,29.0775194 54.6322917,29.5465116 54.6322917,30.0155039 L54.6322917,42.3031008 L54.7255208,42.3031008 Z M37.2916667,41.0837209 L52.58125,41.0837209 L52.58125,31.2348837 L37.2916667,31.2348837 L37.2916667,41.0837209 Z" id="Shape" fill="#FFFFFF" fill-rule="nonzero"></path>
                        <path d="M52.3947917,37.8007752 L48.10625,37.8007752 C47.546875,37.8007752 47.1739583,37.2379845 47.1739583,36.6751938 C47.1739583,36.1124031 47.6401042,35.5496124 48.10625,35.5496124 L52.3947917,35.5496124 C52.9541667,35.5496124 53.3270833,36.1124031 53.3270833,36.6751938 C53.4203125,37.2379845 52.9541667,37.8007752 52.3947917,37.8007752 Z" id="Shape" fill="#FFFFFF" fill-rule="nonzero"></path>
                        <path d="M44.3770833,60.7813953 C44.0041667,60.7813953 43.7244792,60.5 43.7244792,60.2186047 C43.7244792,60.0310078 43.2583333,57.9674419 41.1140625,57.9674419 C41.1140625,57.9674419 41.1140625,57.9674419 41.1140625,57.9674419 C39.0630208,57.9674419 38.4104167,60.0310078 38.4104167,60.0310078 C38.3171875,60.4062016 37.9442708,60.5937984 37.5713542,60.5 C37.1984375,60.4062016 37.0119792,60.0310078 37.1052083,59.655814 C37.478125,58.624031 38.6901042,56.5604651 41.1140625,56.5604651 C41.1140625,56.5604651 41.1140625,56.5604651 41.1140625,56.5604651 C43.9109375,56.5604651 44.9364583,58.8116279 45.1229167,60.0310078 C45.2161458,60.4062016 44.9364583,60.7813953 44.5635417,60.8751938 C44.4703125,60.7813953 44.3770833,60.7813953 44.3770833,60.7813953 Z" id="Shape" fill="#350D89" fill-rule="nonzero"></path>
                        <path d="M50.2505208,60.7813953 C50.1572917,60.7813953 50.1572917,60.7813953 50.0640625,60.7813953 C49.6911458,60.6875969 49.5046875,60.3124031 49.5046875,59.9372093 C49.784375,58.8116279 50.903125,56.748062 53.3270833,56.5604651 C56.1239583,56.3728682 57.3359375,58.5302326 57.615625,59.7496124 C57.7088542,60.1248062 57.4291667,60.5 57.05625,60.5937984 C56.6833333,60.6875969 56.3104167,60.4062016 56.2171875,60.0310078 C56.1239583,59.8434109 55.6578125,57.8736434 53.4203125,57.9674419 C51.3692708,58.1550388 50.903125,60.1248062 50.8098958,60.2186047 C50.903125,60.5 50.6234375,60.7813953 50.2505208,60.7813953 Z" id="Shape" fill="#350D89" fill-rule="nonzero"></path>
                    </g>
                    <path d="M162.032292,102.803101 L149.726042,105.054264 L137.419792,102.803101 L133.317708,116.403876 C133.317708,116.403876 139.936979,120.531008 149.726042,120.531008 C159.515104,120.531008 166.134375,116.403876 166.134375,116.403876 L162.032292,102.803101 Z" id="Shape" fill="#C2D2FF" fill-rule="nonzero"></path>
                    <ellipse id="Oval" fill="url(#linearGradient-2)" fill-rule="nonzero" cx="149.726042" cy="95.2054264" rx="17.9932292" ry="18.1031008"></ellipse>
                    <path d="M158.209896,89.8589147 C156.345313,87.9829457 153.361979,87.9829457 151.497396,89.8589147 L149.726042,91.6410853 L147.954688,89.8589147 C146.090104,87.9829457 143.106771,87.9829457 141.242188,89.8589147 C139.377604,91.7348837 139.377604,94.7364341 141.242188,96.6124031 L143.2,98.5821705 L148.514062,103.928682 C148.886979,104.303876 149.259896,104.585271 149.632812,104.772868 C150.005729,104.585271 150.471875,104.303876 150.751562,103.928682 L156.065625,98.5821705 L158.023437,96.6124031 C160.074479,94.7364341 160.074479,91.7348837 158.209896,89.8589147 Z" id="Shape" fill="url(#linearGradient-3)" fill-rule="nonzero"></path>
                    <path d="M128.563021,62.8449612 C129.775,65.0023256 131.453125,66.7844961 133.597396,67.9100775 C131.453125,69.1294574 129.681771,70.8178295 128.563021,72.9751938 C127.351042,70.8178295 125.672917,69.0356589 123.528646,67.9100775 C125.672917,66.6906977 127.351042,65.0023256 128.563021,62.8449612 Z" id="Shape" fill="#E1E8FF" fill-rule="nonzero"></path>
                    <path d="M175.830208,77.0085271 C176.482813,78.227907 177.508333,79.2596899 178.720313,79.9162791 C177.508333,80.5728682 176.482813,81.6046512 175.830208,82.824031 C175.177604,81.6046512 174.152083,80.5728682 172.940104,79.9162791 C174.152083,79.2596899 175.177604,78.227907 175.830208,77.0085271 Z" id="Shape" fill="#E1E8FF" fill-rule="nonzero"></path>
                    <path d="M148.234375,45.8674419 C149.446354,48.0248062 151.124479,49.8069767 153.26875,50.9325581 C151.124479,52.151938 149.353125,53.8403101 148.234375,55.9976744 C147.022396,53.8403101 145.344271,52.0581395 143.2,50.9325581 C145.344271,49.8069767 147.022396,48.0248062 148.234375,45.8674419 Z" id="Shape" fill="#E1E8FF" fill-rule="nonzero"></path>
                </g>
            </g>
        </g>
    </g>
</svg>