<?xml version="1.0" encoding="UTF-8"?>
<svg width="47px" height="47px" viewBox="0 0 47 47" version="1.1" xmlns="http://www.w3.org/2000/svg" xmlns:xlink="http://www.w3.org/1999/xlink">
    <!-- Generator: sketchtool 51.2 (57519) - http://www.bohemiancoding.com/sketch -->
    <title>22C2C539-A2BE-4A4A-968A-8114B5508FF2</title>
    <desc>Created with sketchtool.</desc>
    <defs></defs>
    <g id="Mobile" stroke="none" stroke-width="1" fill="none" fill-rule="evenodd">
        <g id="homepage-mobile" transform="translate(-183.000000, -7936.000000)">
            <g id="footer-copy" transform="translate(-2.000000, 7480.000000)">
                <g id="social" transform="translate(108.000000, 457.000000)">
                    <g id="tw-icon" transform="translate(78.000000, 0.000000)">
                        <circle id="Oval-4-Copy" stroke="#7D40E6" stroke-width="1.5" cx="22.5" cy="22.5" r="22.5"></circle>
                        <g id="twitter-logo-silhouette" transform="translate(14.210526, 15.394737)" fill="#7D40E6" fill-rule="nonzero">
                            <path d="M18.9473684,1.82143961 C18.2499989,2.13053033 17.5017314,2.34015211 16.7155381,2.43373714 C17.5182949,1.95289839 18.132785,1.19022068 18.4240239,0.284223485 C17.6710196,0.729511074 16.8398418,1.05284703 15.9542056,1.22812541 C15.2450094,0.47136257 14.2362462,0 13.1173589,0 C10.9707919,0 9.23032468,1.74092304 9.23032468,3.88687539 C9.23032468,4.19122801 9.2646591,4.48848899 9.330975,4.77274344 C6.1010626,4.61047159 3.23700219,3.06260251 1.320126,0.710558713 C0.985048049,1.28377474 0.794428543,1.95169064 0.794428543,2.66466485 C0.794428543,4.01359608 1.48114793,5.20381676 2.52306914,5.9001612 C1.88607119,5.87885528 1.28696805,5.7035769 0.762478026,5.4122308 L0.762478026,5.46078848 C0.762478026,7.34382327 2.10275885,8.9153828 3.87991346,9.27306217 C3.55430921,9.36070136 3.210965,9.40925905 2.85576318,9.40925905 C2.60477206,9.40925905 2.3620472,9.38439181 2.1240592,9.33701091 C2.61895165,10.8825264 4.05396947,12.0064139 5.75418897,12.0372269 C4.42455831,13.079421 2.74802307,13.6988102 0.927060338,13.6988102 C0.613313696,13.6988102 0.304272943,13.6798578 0,13.6455144 C1.72034337,14.7504804 3.76273061,15.3947368 5.95784255,15.3947368 C13.1079471,15.3947368 17.0163126,9.47085422 17.0163126,4.33337072 L17.0032786,3.83004927 C17.7669331,3.28523082 18.4275843,2.60071612 18.9473684,1.82143961 Z" id="Shape"></path>
                        </g>
                    </g>
                </g>
            </g>
        </g>
    </g>
</svg>