<?xml version="1.0" encoding="utf-8"?>
<!-- Generator: Adobe Illustrator 20.1.0, SVG Export Plug-In . SVG Version: 6.00 Build 0)  -->
<svg version="1.1" id="Layer_1" xmlns="http://www.w3.org/2000/svg" xmlns:xlink="http://www.w3.org/1999/xlink" x="0px" y="0px"
	 viewBox="0 0 326 485.4" style="enable-background:new 0 0 326 485.4;" xml:space="preserve">
<style type="text/css">
	.st0{fill:url(#XMLID_2_);}
	.st1{fill:#FFFFFF;}
	.st2{fill:#22134A;}
	.st3{fill:#FF008D;}
	.st4{fill:#211648;}
</style>
<g id="Warstwa_10">
</g>
<g id="Warstwa_7">
	<g id="Warstwa_8">
	</g>
</g>
<g id="Warstwa_4">
</g>
<g id="Warstwa_9">
	<g>
		<g>
			<g>
				
					<linearGradient id="XMLID_2_" gradientUnits="userSpaceOnUse" x1="1867.3802" y1="874.5593" x2="1721.4268" y2="1020.5124" gradientTransform="matrix(-1 0 0 1 2022.4473 -586)">
					<stop  offset="0" style="stop-color:#9855FC"/>
					<stop  offset="1" style="stop-color:#752EE5"/>
				</linearGradient>
				<path id="XMLID_6_" class="st0" d="M183.1,173.7c0,0,60.4-0.2,95.5,12.3c44.7,15.9,47.4,19.2,47.4,19.2
					c0,147.8,2.5,280.2,2.5,280.2H101l0,0c-57.6-36.7-70.9-129.6-64.5-200.9c2.7-29.5,19.6-55.9,45.2-70.8
					c19.7-11.5,35.7-17.6,35.7-17.6L183.1,173.7z"/>
			</g>
		</g>
		<path class="st1" d="M64.2,90c0.1,4.8,18.7,45.4,20.3,52.3s58.2,34.2,68.3-4.8s11.7-76.3-6.4-90.2S62.1,8.8,64.2,90z"/>
		<path class="st1" d="M117.6,169.5c0,0-0.5,32,0,41.6s17.6,41.6,34.2,20.8c16.5-20.8,31-58.2,31-58.2l-13.9-32L117.6,169.5z"/>
		<path class="st2" d="M17.2,92.6C-0.2,85,20.4,51,40.2,41.9c-21.3,4.3-23.5-5.3-5.3-16.5S67.5,8.9,85.6,12.6s24.6,13.9,36.3,1.6
			s31.5-8.5,44.3,4.3s10.7,24,8,34.7s6.9,13.9,14.9,20.3c8,6.4-8.5,22.4-13.3,29.9s17.1,34.7-6.9,38.4c1.6,15.5-18.7,34.6-22.4,16.3
			c-12.8,28.6-31.5,28-39,14.7c-12.3,13.9-25.6-10.9-24.8-22.2c0.8-11.2,13.1-27,25.9-28.8c12.8-1.9,23.2-2.1,32,3.2
			s9.3-19.7,7.5-27.2c-1.9-7.5-9.6-4-10.4-20.8c-0.8-16.8-3.5-24.8-10.4-25.4C83.1,47.8,72.2,116.6,17.2,92.6z"/>
		<path class="st1" d="M166.1,111.6l-1.9-15.8c-0.2-1.7,0.9-3.2,2.5-3.5c5.7-1.1,17.8-2.2,19,7.9c1,9.5-4.7,11.5-15.6,14.1
			C168.2,114.8,166.4,113.5,166.1,111.6z"/>
		<path class="st3" d="M107.2,101.2c4.7,1.1,11,9.2,10.2,19.5s-8,14.4-14.7,12.2c-6.7-2.1-4.3-7.5-3.7-17.1S101.3,99.8,107.2,101.2z
			"/>
		
			<ellipse transform="matrix(0.9754 -0.2203 0.2203 0.9754 -21.6275 21.4592)" class="st4" cx="85.4" cy="107.7" rx="4.4" ry="5.2"/>
		
			<ellipse transform="matrix(0.9754 -0.2203 0.2203 0.9754 -17.7031 29.4531)" class="st4" cx="123.2" cy="94.1" rx="4.4" ry="5.2"/>
		<path class="st1" d="M116.5,146.2c-1.3,0-2.8-0.2-4.5-0.7l0.3-1c4.4,1.3,8,0.7,10.6-1.9c2.7-2.7,3.6-7.1,3-9l1-0.3
			c0.7,2.1-0.1,6.8-3.2,10C122.2,144.8,120,146.2,116.5,146.2z"/>
		<path class="st4" d="M125.3,76.6c1.9-2.6-10.1-10.1-14.2-3.3C107.5,79.5,124.7,77.5,125.3,76.6z"/>
		<path class="st4" d="M72.6,96.6c-3.1-0.8,1.3-14.3,8.8-11.6C88.2,87.4,73.6,96.9,72.6,96.6z"/>
	</g>
</g>
</svg>
