<?xml version="1.0" encoding="utf-8"?>
<!-- Generator: Adobe Illustrator 20.1.0, SVG Export Plug-In . SVG Version: 6.00 Build 0)  -->
<svg version="1.1" id="Layer_1" xmlns="http://www.w3.org/2000/svg" xmlns:xlink="http://www.w3.org/1999/xlink" x="0px" y="0px"
	 viewBox="0 0 316.6 280" style="enable-background:new 0 0 316.6 280;" xml:space="preserve">
<style type="text/css">
	.st0{fill:url(#SVGID_1_);}
	.st1{fill:#FFFFFF;}
	.st2{fill:#E1E8FF;}
	.st3{fill:#361688;}
</style>
<g id="Warstwa_10">
</g>
<g id="Warstwa_7">
	<g id="Warstwa_8">
		<g>
			<g>
				
					<linearGradient id="SVGID_1_" gradientUnits="userSpaceOnUse" x1="478.2033" y1="1031.5005" x2="478.2033" y2="836.3903" gradientTransform="matrix(-1 0 0 1 595.1033 -836)">
					<stop  offset="0" style="stop-color:#FFC000"/>
					<stop  offset="1" style="stop-color:#FFEB23"/>
				</linearGradient>
				<path class="st0" d="M11.5,0h211.9c6,0,10.4,5.4,10.4,11.5v149.1c0,6-4.3,12-10.4,12H89.1l-43.2,34.2v-34.2H11.5
					c-6,0-11.5-6-11.5-12V11.4C0.1,5.4,5.5,0,11.5,0z"/>
				<g>
					<circle class="st1" cx="150.1" cy="87.3" r="9.2"/>
					<circle class="st1" cx="112.1" cy="87.3" r="9.2"/>
					<circle class="st1" cx="74.1" cy="87.3" r="9.2"/>
				</g>
			</g>
			<g>
				<path class="st2" d="M308.4,133.4H158.3c-4.3,0-7.4,3.9-7.4,8.1v105.6c0,4.3,3.1,8.5,7.4,8.5h95.2l30.6,24.4v-24.3h24.4
					c4.3,0,8.1-4.2,8.1-8.5V141.6C316.6,137.3,312.7,133.4,308.4,133.4z"/>
				<rect x="192.4" y="174.6" class="st3" width="82.7" height="6"/>
				<rect x="192.4" y="210.9" class="st3" width="82.7" height="6"/>
			</g>
		</g>
	</g>
</g>
<g id="Warstwa_4">
</g>
<g id="Warstwa_9">
</g>
</svg>
