<?xml version="1.0" encoding="utf-8"?>
<!-- Generator: Adobe Illustrator 20.1.0, SVG Export Plug-In . SVG Version: 6.00 Build 0)  -->
<svg version="1.1" id="Layer_1" xmlns="http://www.w3.org/2000/svg" xmlns:xlink="http://www.w3.org/1999/xlink" x="0px" y="0px"
	 viewBox="0 0 424.3 441" style="enable-background:new 0 0 424.3 441;" xml:space="preserve">
<style type="text/css">
	.st0{fill:#E1E8FF;}
	.st1{fill:url(#SVGID_1_);}
	.st2{fill:url(#SVGID_2_);}
	.st3{fill:#22134A;}
	.st4{fill:#FFFFFF;}
	.st5{fill:url(#SVGID_3_);}
	.st6{fill:#9855FC;}
	.st7{clip-path:url(#SVGID_5_);}
	.st8{fill:#752EE5;}
	.st9{clip-path:url(#SVGID_7_);}
	.st10{clip-path:url(#SVGID_9_);}
	.st11{clip-path:url(#SVGID_11_);}
	.st12{fill:#350D89;}
	.st13{fill:url(#SVGID_12_);}
	.st14{fill:url(#SVGID_13_);}
</style>
<g id="Warstwa_10">
	<g>
		<g>
			<path class="st0" d="M20.1,163.1L20.1,163.1c4.5,8.4,11.3,15.4,19.7,20.1l0,0l0,0c-8.4,4.5-15.4,11.3-20.1,19.7l0,0l0,0
				c-4.5-8.4-11.3-15.4-19.7-20.1l0,0l0,0C8.4,178.3,15.4,171.5,20.1,163.1L20.1,163.1z"/>
			<path class="st0" d="M411.1,157.6L411.1,157.6c3,5.7,7.6,10.3,13.2,13.5l0,0l0,0c-5.7,3-10.3,7.6-13.5,13.2l0,0l0,0
				c-3-5.7-7.6-10.3-13.2-13.5l0,0l0,0C403.3,167.8,408,163.2,411.1,157.6L411.1,157.6z"/>
			<path class="st0" d="M340.4,32.5L340.4,32.5c5.8,10.7,14.5,19.6,25.1,25.5l0,0l0,0c-10.7,5.8-19.6,14.5-25.5,25.1l0,0l0,0
				c-5.8-10.7-14.5-19.6-25.1-25.5l0,0l0,0C325.6,51.8,334.5,43.1,340.4,32.5L340.4,32.5z"/>
			
				<linearGradient id="SVGID_1_" gradientUnits="userSpaceOnUse" x1="211.7632" y1="28.4913" x2="441.3535" y2="28.4913" gradientTransform="matrix(0.9284 -0.3715 -0.3715 -0.9284 -84.1612 368.5153)">
				<stop  offset="0" style="stop-color:#00BEED"/>
				<stop  offset="1" style="stop-color:#00DFED"/>
			</linearGradient>
			<path class="st1" d="M350.2,382.9l-132.4,53c-22.3,8.9-47.6-1.9-56.6-24.2L42.7,115.1c-8.9-22.3,1.9-47.6,24.2-56.6l132.4-53
				c22.3-8.9,47.6,1.9,56.6,24.2l118.6,296.5C383.4,348.6,372.5,373.9,350.2,382.9z"/>
			
				<linearGradient id="SVGID_2_" gradientUnits="userSpaceOnUse" x1="280.4005" y1="360.6725" x2="126.8427" y2="94.7025" gradientTransform="matrix(1 0 0 -1 0 436)">
				<stop  offset="1.530612e-02" style="stop-color:#AACEFC"/>
				<stop  offset="0.3061" style="stop-color:#D5E8FC"/>
				<stop  offset="1" style="stop-color:#FFFFFF"/>
			</linearGradient>
			<polygon class="st2" points="336.1,302.2 172.4,367.6 71.1,114.5 234.8,49 			"/>
			<path class="st3" d="M172.4,58.2l-49.8,19.9c-3.3,1.3-7.1-0.3-8.4-3.6l-0.6-1.4c-1.3-3.3,0.3-7.1,3.6-8.4L167,44.8
				c3.3-1.3,7.1,0.3,8.4,3.6l0.6,1.4C177.3,53.1,175.7,56.9,172.4,58.2z"/>
			
				<ellipse transform="matrix(0.9284 -0.3715 0.3715 0.9284 -118.9786 126.6018)" class="st4" cx="269.1" cy="372.1" rx="25.1" ry="25.1"/>
		</g>
		
			<linearGradient id="SVGID_3_" gradientUnits="userSpaceOnUse" x1="502.6988" y1="-7.7694" x2="371.8849" y2="-7.7694" gradientTransform="matrix(0.9284 -0.3715 -0.3715 -0.9284 -84.1612 368.5153)">
			<stop  offset="0" style="stop-color:#9855FC"/>
			<stop  offset="1" style="stop-color:#752EE5"/>
		</linearGradient>
		<path class="st5" d="M280.4,278.6c0,0,42.4-46.2,26.4-145.3l77.8,53.6c0,0-8,69.4-79.1,121.2L280.4,278.6z"/>
		<path class="st6" d="M192.6,359.7c0,0-13.4-45.3,9-57.8s78.8-23.3,78.8-23.3s20.3,10.3,32.9,32.8L192.6,359.7z"/>
		<g>
			<g>
				<g>
					<path id="XMLID_5_" class="st6" d="M238.9,201.7c-7.9-19.8-33.4-42.8-59.4-32.7s-32.6,16.6-29.1,23.7c3.5,7.1,10-0.6,12.9,2.2
						s10,14.3,5.8,34.8C191.3,220.8,238.9,201.7,238.9,201.7z"/>
				</g>
				<g>
					<defs>
						<path id="SVGID_4_" d="M238.9,201.7c-7.9-19.8-33.4-42.8-59.4-32.7s-32.6,16.6-29.1,23.7c3.5,7.1,10-0.6,12.9,2.2
							s10,14.3,5.8,34.8C191.3,220.8,238.9,201.7,238.9,201.7z"/>
					</defs>
					<clipPath id="SVGID_5_">
						<use xlink:href="#SVGID_4_"  style="overflow:visible;"/>
					</clipPath>
					<g class="st7">
						
							<ellipse transform="matrix(0.9284 -0.3715 0.3715 0.9284 -50.5062 82.2058)" class="st8" cx="188.1" cy="172.2" rx="12.6" ry="10.4"/>
						<path class="st8" d="M193.5,179.3l6.6,1.9c0.2,0.1,0.4-0.2,0.3-0.4l-2.4-6.2c-0.1-0.2-0.3-0.2-0.4-0.1l-4.2,4.3
							C193.2,179,193.3,179.2,193.5,179.3z"/>
					</g>
				</g>
				<g>
					<defs>
						<path id="SVGID_6_" d="M238.9,201.7c-7.9-19.8-33.4-42.8-59.4-32.7s-32.6,16.6-29.1,23.7c3.5,7.1,10-0.6,12.9,2.2
							s10,14.3,5.8,34.8C191.3,220.8,238.9,201.7,238.9,201.7z"/>
					</defs>
					<clipPath id="SVGID_7_">
						<use xlink:href="#SVGID_6_"  style="overflow:visible;"/>
					</clipPath>
					<g class="st9">
						
							<ellipse transform="matrix(0.4846 -0.8748 0.8748 0.4846 -57.9399 299.181)" class="st8" cx="224.9" cy="198.8" rx="20.2" ry="16.7"/>
						<path class="st8" d="M211,195.4l-10.1,4.4c-0.3,0.1-0.4,0.6,0,0.8l9.3,5.2c0.3,0.2,0.6,0,0.7-0.3l0.9-9.6
							C211.6,195.5,211.3,195.3,211,195.4z"/>
					</g>
				</g>
				<g>
					<defs>
						<path id="SVGID_8_" d="M238.9,201.7c-7.9-19.8-33.4-42.8-59.4-32.7s-32.6,16.6-29.1,23.7c3.5,7.1,10-0.6,12.9,2.2
							s10,14.3,5.8,34.8C191.3,220.8,238.9,201.7,238.9,201.7z"/>
					</defs>
					<clipPath id="SVGID_9_">
						<use xlink:href="#SVGID_8_"  style="overflow:visible;"/>
					</clipPath>
					<g class="st10">
						
							<ellipse transform="matrix(0.9107 -0.4131 0.4131 0.9107 -68.7635 91.5367)" class="st8" cx="177.3" cy="204.8" rx="9.7" ry="8"/>
						<path class="st8" d="M181.7,210.1l5.2,1.2c0.2,0,0.3-0.1,0.2-0.3l-2.1-4.7c-0.1-0.1-0.2-0.2-0.3-0.1l-3.1,3.5
							C181.5,209.9,181.5,210.1,181.7,210.1z"/>
					</g>
				</g>
				<g>
					<defs>
						<path id="SVGID_10_" d="M238.9,201.7c-7.9-19.8-33.4-42.8-59.4-32.7s-32.6,16.6-29.1,23.7c3.5,7.1,10-0.6,12.9,2.2
							s10,14.3,5.8,34.8C191.3,220.8,238.9,201.7,238.9,201.7z"/>
					</defs>
					<clipPath id="SVGID_11_">
						<use xlink:href="#SVGID_10_"  style="overflow:visible;"/>
					</clipPath>
					<g class="st11">
						
							<ellipse transform="matrix(0.9107 -0.4131 0.4131 0.9107 -59.4223 80.3046)" class="st8" cx="156" cy="177.6" rx="9.7" ry="8"/>
						<path class="st8" d="M160.4,182.9l5.2,1.2c0.2,0,0.3-0.1,0.2-0.3l-2.1-4.7c-0.1-0.1-0.2-0.2-0.3-0.1l-3.1,3.5
							C160.1,182.7,160.2,182.9,160.4,182.9z"/>
					</g>
				</g>
			</g>
			<path class="st12" d="M255,220.3l-88.2,35.3l-7.9-19.8c-0.4-1,0.1-2.2,1.1-2.6l84-33.6c1.3-0.5,2.8,0.1,3.3,1.4L255,220.3z"/>
			<path class="st6" d="M282.7,223.8l-133.8,53.5c-3.2,1.3-6.9-0.3-8.2-3.5l-2.7-6.7l145.7-58.3l2.6,6.5
				C287.7,218.7,286.1,222.5,282.7,223.8z"/>
			
				<linearGradient id="SVGID_12_" gradientUnits="userSpaceOnUse" x1="322.5269" y1="-1.8171" x2="322.5269" y2="-138.8386" gradientTransform="matrix(0.9284 -0.3715 -0.3715 -0.9284 -84.1612 368.5153)">
				<stop  offset="1.530612e-02" style="stop-color:#AACEFC"/>
				<stop  offset="0.153" style="stop-color:#D5E8FC"/>
				<stop  offset="1" style="stop-color:#FFFFFF"/>
			</linearGradient>
			<path class="st13" d="M175.6,266.7c-3.6,3.5-1.3,6.6,2.4,5.9c-10.6,10.6-9.4,26.3-4.7,32.1c4.7,5.8,14,9.7,25.7,1.8
				c-4.7,16.3,12.9,45.3,36.1,40.6c24.9-5,30.5-25.2,27.9-38.5c10.5,7,17.2-1.1,18.7-4.3c2.5-5.6-3.3-13.5-9.8-14.6
				c15.6-2.2,17.9-15.6,15.6-22.7c-2.3-7-10.2-16.1-20.4-15.2c10.4-6.5,1.6-10.7-1.5-7.1c5.7-7.6,0.6-14.3-2.3-13.1
				C246,238.5,175.6,266.7,175.6,266.7z"/>
			<path class="st4" d="M227.3,229.5c0.4,0.9-0.1,1.9-1,2.3l-29.1,11.6c-0.9,0.4-1.9-0.1-2.3-1l-8.1-20.2c-0.4-0.9,0.1-1.9,1-2.3
				l29.2-11.7c0.9-0.4,1.9,0.1,2.3,1L227.3,229.5z M197.8,239l25.2-10.1l-6.5-16.2l-25.2,10.1L197.8,239z"/>
			<path class="st4" d="M220.6,223.6l-7.1,2.8c-0.9,0.4-2-0.3-2.3-1.2c-0.4-0.9,0-2.1,0.9-2.4l7.1-2.8c0.9-0.4,2,0.3,2.3,1.2
				C221.9,222.1,221.5,223.3,220.6,223.6z"/>
			<path class="st12" d="M210.6,271.1c-0.8,0-1.4-0.6-1.5-1.4c-0.2-2,0.6-6.4,4.8-8c4.7-1.9,8.1,1.2,9.2,3.1
				c0.4,0.7,0.2,1.6-0.5,2.1c-0.7,0.4-1.6,0.2-2.1-0.5c-0.2-0.3-2.1-3.2-5.6-1.9c-3.2,1.3-3,4.8-3,5c0.1,0.8-0.6,1.5-1.4,1.6
				C210.7,271.1,210.6,271.1,210.6,271.1z"/>
			<path class="st12" d="M231.7,263.1c-0.7,0-1.4-0.5-1.5-1.3c0-0.2-0.8-5.9,4.2-8.4c4.6-2.3,8.2,0.6,9.5,2.5
				c0.5,0.7,0.3,1.6-0.4,2.1c-0.7,0.5-1.6,0.3-2.1-0.4c-0.2-0.3-2.3-3.1-5.7-1.5c-3.1,1.5-2.6,5.2-2.6,5.2c0.1,0.8-0.4,1.6-1.3,1.7
				C231.8,263.1,231.8,263.1,231.7,263.1z"/>
		</g>
		
			<linearGradient id="SVGID_13_" gradientUnits="userSpaceOnUse" x1="457.5659" y1="75.0584" x2="450.4395" y2="75.0584" gradientTransform="matrix(0.9284 -0.3715 -0.3715 -0.9284 -84.1612 368.5153)">
			<stop  offset="1.530612e-02" style="stop-color:#AACEFC"/>
			<stop  offset="0.153" style="stop-color:#D5E8FC"/>
			<stop  offset="1" style="stop-color:#FFFFFF"/>
		</linearGradient>
		<path class="st14" d="M306.9,133.4c0,0-3.8-13.1,1.2-11.2c6.1,2.4,5.2,15.6,5.2,15.6L306.9,133.4z"/>
	</g>
</g>
<g id="Warstwa_7">
	<g id="Warstwa_8">
	</g>
</g>
<g id="Warstwa_4">
</g>
<g id="Warstwa_9">
</g>
</svg>
