<?xml version="1.0" encoding="utf-8"?>
<!-- Generator: Adobe Illustrator 20.1.0, SVG Export Plug-In . SVG Version: 6.00 Build 0)  -->
<svg version="1.1" id="Layer_1" xmlns="http://www.w3.org/2000/svg" xmlns:xlink="http://www.w3.org/1999/xlink" x="0px" y="0px"
	 viewBox="0 0 182.5 229.4" style="enable-background:new 0 0 182.5 229.4;" xml:space="preserve">
<style type="text/css">
	.st0{fill:url(#SVGID_1_);}
	.st1{fill:url(#SVGID_2_);}
	.st2{fill:#22134A;}
	.st3{fill:#FFFFFF;}
	.st4{fill:#E1E8FF;}
</style>
<g id="Warstwa_10">
	<g>
		<g>
			
				<linearGradient id="SVGID_1_" gradientUnits="userSpaceOnUse" x1="-65.5687" y1="71.1472" x2="47.2608" y2="71.1472" gradientTransform="matrix(0.9492 0.3147 0.3147 -0.9492 89.449 192.9637)">
				<stop  offset="0" style="stop-color:#FFC000"/>
				<stop  offset="1" style="stop-color:#FFEB23"/>
			</linearGradient>
			<path class="st0" d="M105,228.3l-66.5-22c-11.2-3.7-17.3-15.8-13.6-27L74.3,30.4c3.7-11.2,15.8-17.3,27-13.6l66.5,22
				c11.2,3.7,17.3,15.8,13.6,27L132,214.7C128.3,226,116.2,232.1,105,228.3z"/>
			
				<linearGradient id="SVGID_2_" gradientUnits="userSpaceOnUse" x1="43.1" y1="103.85" x2="167.4" y2="103.85" gradientTransform="matrix(1 0 0 -1 0 220.2)">
				<stop  offset="1.530612e-02" style="stop-color:#AACEFC"/>
				<stop  offset="0.3061" style="stop-color:#D5E8FC"/>
				<stop  offset="1" style="stop-color:#FFFFFF"/>
			</linearGradient>
			<polygon class="st1" points="125.2,193.5 43.1,166.3 85.2,39.2 167.4,66.4 			"/>
			<path class="st2" d="M141,50.1l-25-8.3c-1.7-0.6-2.6-2.3-2-4l0.2-0.7c0.6-1.7,2.3-2.6,4-2l25,8.3c1.7,0.6,2.6,2.3,2,4l-0.2,0.7
				C144.5,49.8,142.7,50.7,141,50.1z"/>
			
				<ellipse transform="matrix(0.3147 -0.9492 0.9492 0.3147 -135.1745 210.1037)" class="st3" cx="77.9" cy="198.7" rx="12.3" ry="12.3"/>
		</g>
		<path class="st4" d="M13.3,0L13.3,0c3.1,5.6,7.7,10.3,13.3,13.3l0,0l0,0C21,16.4,16.3,21,13.3,26.6l0,0l0,0
			C10.2,21,5.6,16.3,0,13.3l0,0l0,0C5.6,10.2,10.2,5.6,13.3,0L13.3,0z"/>
	</g>
</g>
<g id="Warstwa_7">
	<g id="Warstwa_8">
	</g>
</g>
<g id="Warstwa_4">
</g>
<g id="Warstwa_9">
</g>
</svg>
