<?xml version="1.0" encoding="utf-8"?>
<!-- Generator: Adobe Illustrator 20.1.0, SVG Export Plug-In . SVG Version: 6.00 Build 0)  -->
<svg version="1.1" id="Layer_1" xmlns="http://www.w3.org/2000/svg" xmlns:xlink="http://www.w3.org/1999/xlink" x="0px" y="0px"
	 viewBox="0 0 473 237" style="enable-background:new 0 0 473 237;" xml:space="preserve">
<style type="text/css">
	.st0{fill:url(#SVGID_1_);}
	.st1{fill:url(#SVGID_2_);}
	.st2{fill:url(#SVGID_3_);}
	.st3{fill:url(#SVGID_4_);}
	.st4{fill:#FFFFFF;}
	.st5{fill:#E1E8FF;}
</style>
<g id="Warstwa_10">
</g>
<g id="Warstwa_7">
	<g id="Warstwa_8">
		<g>
			<g>
				
					<linearGradient id="SVGID_1_" gradientUnits="userSpaceOnUse" x1="-2397.9985" y1="2786.1831" x2="-2249.259" y2="2663.9097" gradientTransform="matrix(-0.7941 -0.6077 0.6077 -0.7941 -3388.4619 850.3786)">
					<stop  offset="0" style="stop-color:#00BEED"/>
					<stop  offset="1" style="stop-color:#00DFED"/>
				</linearGradient>
				<polygon class="st0" points="29.7,14.2 222.4,161.7 206.6,182.4 13.8,34.9 				"/>
				
					<linearGradient id="SVGID_2_" gradientUnits="userSpaceOnUse" x1="-2450.8967" y1="2728.4697" x2="-2480.8284" y2="2728.4697" gradientTransform="matrix(-0.7941 -0.6077 0.6077 -0.7941 -3388.4619 850.3786)">
					<stop  offset="0" style="stop-color:#FFC000"/>
					<stop  offset="1" style="stop-color:#FFEB23"/>
				</linearGradient>
				<polygon class="st1" points="206.6,182.4 239.7,191.3 222.4,161.7 				"/>
				
					<linearGradient id="SVGID_3_" gradientUnits="userSpaceOnUse" x1="-2287.7068" y1="2708.5684" x2="-2206.4036" y2="2708.5684" gradientTransform="matrix(-0.7941 -0.6077 0.6077 -0.7941 -3388.4619 850.3786)">
					<stop  offset="0" style="stop-color:#FFC000"/>
					<stop  offset="1" style="stop-color:#FFEB23"/>
				</linearGradient>
				<path class="st2" d="M13.8,34.9L18,54.2c0.2,0.9,0.7,1.8,1.5,2.4l47.3,36.2c1.7,1.3,4.2,1,5.6-0.7l0,0c1.4-1.8,1.1-4.4-0.7-5.8
					L19.1,46l-1.9-8.6L13.8,34.9z"/>
				
					<linearGradient id="SVGID_4_" gradientUnits="userSpaceOnUse" x1="-2206.4631" y1="2729.2852" x2="-2185.7393" y2="2729.2852" gradientTransform="matrix(-0.7941 -0.6077 0.6077 -0.7941 -3388.4619 850.3786)">
					<stop  offset="0" style="stop-color:#FFC000"/>
					<stop  offset="1" style="stop-color:#FFEB23"/>
				</linearGradient>
				<path class="st3" d="M14.4,10.2L26,19.1l-7.4,9.7L7,19.8c-2.7-2-3.2-5.9-1.1-8.5l0,0C7.9,8.6,11.7,8.1,14.4,10.2z"/>
				
					<rect x="164.3" y="143" transform="matrix(0.6072 -0.7946 0.7946 0.6072 -44.3069 197.3049)" class="st4" width="26.2" height="1"/>
			</g>
			<path class="st4" d="M268.8,200.6c-1.3,0-2.5,0-3.8-0.1c-8.2-0.5-19.9-2.7-28.5-10.6l1.3-1.5c8.2,7.4,19.4,9.6,27.3,10
				c23.8,1.4,47.5-10.7,61.4-29.9c-2.3-0.3-4.6-0.6-6.7-1.2c-12.4-3.1-23.1-10-30.3-19.4c-8-10.6-10-24.2-5-34.7
				c6-13,23-19.6,36.3-14.1c8.8,3.7,16,12.4,18.7,22.8c3,11.3,0.6,22.4-1.9,29.7c-1.8,5.4-4.3,10.5-7.4,15.2c26.5,1.2,58.1-15,66-20
				l1.1,1.7c-3.4,2.2-15.5,8.9-30.5,14c-14.4,4.9-27.1,7-37.9,6.3C315.3,188,292.3,200.6,268.8,200.6z M310.6,99.3
				c-10,0-20.1,5.7-24.3,14.9c-4.6,9.7-2.7,22.8,4.8,32.7c6.7,8.9,17.4,15.7,29.1,18.6c2.4,0.6,5,1,7.6,1.2
				c3.3-4.8,5.9-10.1,7.8-15.7c2.4-7.1,4.7-17.7,1.9-28.5c-2.6-9.8-9.3-18-17.5-21.4C317,99.9,313.8,99.3,310.6,99.3z"/>
			<path class="st5" d="M282.5,64.7L282.5,64.7c3.1,5.6,7.7,10.3,13.3,13.3l0,0l0,0c-5.6,3.1-10.3,7.7-13.3,13.3l0,0l0,0
				c-3.1-5.6-7.7-10.3-13.3-13.3l0,0l0,0C274.8,75,279.4,70.3,282.5,64.7L282.5,64.7z"/>
			<path class="st5" d="M409.8,81.3L409.8,81.3c1.5,2.8,3.9,5.1,6.7,6.7l0,0l0,0c-2.8,1.5-5.1,3.9-6.7,6.7l0,0l0,0
				c-1.5-2.8-3.9-5.1-6.7-6.7l0,0l0,0C405.9,86.4,408.2,84.1,409.8,81.3L409.8,81.3z"/>
			<path class="st5" d="M449.2,187.6L449.2,187.6c3.6,6.7,9.1,12.1,15.8,15.8l0,0l0,0c-6.7,3.6-12.1,9.1-15.8,15.8l0,0l0,0
				c-3.6-6.7-9.1-12.1-15.8-15.8l0,0l0,0C440.1,199.7,445.6,194.2,449.2,187.6L449.2,187.6z"/>
		</g>
	</g>
</g>
<g id="Warstwa_4">
</g>
<g id="Warstwa_9">
</g>
</svg>
