<?xml version="1.0" encoding="utf-8"?>
<!-- Generator: Adobe Illustrator 20.1.0, SVG Export Plug-In . SVG Version: 6.00 Build 0)  -->
<svg version="1.1" id="Layer_1" xmlns="http://www.w3.org/2000/svg" xmlns:xlink="http://www.w3.org/1999/xlink" x="0px" y="0px"
	 viewBox="0 0 249.2 379" style="enable-background:new 0 0 249.2 379;" xml:space="preserve">
<style type="text/css">
	.st0{fill:#FFFFFF;}
	.st1{fill:#22134A;}
	.st2{fill:#E1E8FF;}
	.st3{fill:url(#SVGID_1_);}
	.st4{fill:#8F4BF6;}
	.st5{clip-path:url(#SVGID_3_);fill:#C2CEF2;}
	.st6{fill:#211648;}
	.st7{fill:#7832E7;}
	.st8{fill:#FFDE18;}
</style>
<g id="Warstwa_10">
</g>
<g id="Warstwa_7">
	<g id="Warstwa_8">
	</g>
</g>
<g id="Warstwa_4">
	<g>
		<g>
			<g>
				<path id="XMLID_8_" class="st0" d="M38,180.1C21.6,217.8,3.1,288.2,4.3,375.3H224c7.5-56,65.8-226.7-43.6-187.1
					c-31.7-11.2-78.8-21.3-106.8-26.8C58.9,158.4,44,166.2,38,180.1z"/>
			</g>
			<path class="st1" d="M224,375.3c7.5-56,65.8-226.7-43.6-187.1c-31.7-11.2-78.8-21.3-106.8-26.8c-14.7-3-29.6,4.8-35.6,18.7
				C21.6,217.8,3.1,288.2,4.3,375.3H224z"/>
		</g>
		<path class="st2" d="M196.2,152.2c0,0-11.6,9.4-15.8,36c-40.5,4.9-54.6-7.1-54.6-7.1l38.5-56.4L196.2,152.2z"/>
		<path class="st2" d="M209.8,53.7c0,0,34.9,24.5,35.4,27.5c0.5,2.9-7.7,16.1-15.2,18C225,96.8,209.8,53.7,209.8,53.7z"/>
		
			<linearGradient id="SVGID_1_" gradientUnits="userSpaceOnUse" x1="109.1079" y1="835.8148" x2="54.596" y2="721.0956" gradientTransform="matrix(0.9956 9.399969e-02 -9.399969e-02 0.9956 114.0867 -680.8196)">
			<stop  offset="0" style="stop-color:#9855FC"/>
			<stop  offset="1" style="stop-color:#752EE5"/>
		</linearGradient>
		<path class="st3" d="M191.1,22.6c-35.8-1.3-67.4-8.8-84.9,24.7s-4.6,39.6-31.5,44s-48.8,6-45.4,22.3s20,9.2,31.8,17.7
			c11.9,8.5-10.6,51.7,19.2,60.2s53.4-9.4,79-50S191.1,22.6,191.1,22.6z"/>
		<path class="st4" d="M111.1,39.4c-16.8-17.8-41.2-9.8-48.7,8.4C55,66.1,31,60.6,24.5,60.8c-6.6,0.2,0,42.9,46.8,36.3
			C118.1,90.4,111.1,39.4,111.1,39.4z"/>
		<g>
			<g>
				<path id="XMLID_7_" class="st0" d="M166.9,140c11.7,18.7,43.1,28.6,63,12.5s-5.1-67.1-14-85.9s-19.5-40.7-24.9-44
					c-5.4-3.4-53.3,23.9-37.2,64.9c6.4,16.5,8.7,25.2,8.7,25.2c-20.3-6-27.7,8.9-26.5,16.3C137.7,138.5,145.2,145.3,166.9,140z"/>
			</g>
			<g>
				<g>
					<defs>
						<path id="SVGID_2_" d="M166.9,140c11.7,18.7,43.1,28.6,63,12.5s-5.1-67.1-14-85.9s-19.5-40.7-24.9-44
							c-5.4-3.4-53.3,23.9-37.2,64.9c6.4,16.5,8.7,25.2,8.7,25.2c-20.3-6-27.7,8.9-26.5,16.3C137.7,138.5,145.2,145.3,166.9,140z"/>
					</defs>
					<clipPath id="SVGID_3_">
						<use xlink:href="#SVGID_2_"  style="overflow:visible;"/>
					</clipPath>
					<path class="st5" d="M217.1,121c-4.1,0-9.1-1.4-13.3-6.6l0.8-0.6c5.1,6.3,11.4,6.7,15.7,5.9c7.2-1.3,13.2-6.3,14.2-9.2l0.9,0.3
						c-1.1,3.2-7.4,8.5-15,9.8C219.4,120.9,218.3,121,217.1,121z"/>
				</g>
			</g>
		</g>
		
			<ellipse transform="matrix(0.9092 -0.4164 0.4164 0.9092 -10.6533 88.7389)" class="st6" cx="198.1" cy="68.8" rx="5.6" ry="6.8"/>
		<path class="st7" d="M178.9,58c-3.7-2.6,1.3-15.4,10.7-13.3S186.3,63.4,178.9,58z"/>
		<path class="st4" d="M191.9,20c-8.2-14.5-61.7-25.3-80.8,19.4c20.5-9.8,43-9.7,55-7.3C179.6,34.7,197.7,30,191.9,20z"/>
		<path class="st8" d="M116.4,42.6c6.6-5-0.5-14.3-8.5-14.8c-8.1-0.5-7.5,5.2-2.3,11.2C109.1,43,111,46.6,116.4,42.6z"/>
	</g>
</g>
<g id="Warstwa_9">
</g>
</svg>
