<?xml version="1.0" encoding="utf-8"?>
<!-- Generator: Adobe Illustrator 20.1.0, SVG Export Plug-In . SVG Version: 6.00 Build 0)  -->
<svg version="1.1" id="Layer_1" xmlns="http://www.w3.org/2000/svg" xmlns:xlink="http://www.w3.org/1999/xlink" x="0px" y="0px"
	 viewBox="0 0 195.4 595.2" style="enable-background:new 0 0 195.4 595.2;" xml:space="preserve">
<style type="text/css">
	.st0{fill:#22134A;}
	.st1{fill:#4C18B2;}
	.st2{fill:#FF9827;}
	.st3{fill:url(#SVGID_1_);}
	.st4{fill:#E1E8FF;}
	.st5{fill:url(#SVGID_2_);}
</style>
<g id="Warstwa_10">
</g>
<g id="Warstwa_7">
	<g id="Warstwa_8">
	</g>
</g>
<g id="Warstwa_4">
</g>
<g id="Warstwa_9">
	<g>
		<path class="st0" d="M130,595.2L130,595.2c-11.7,0-21.1-9.4-21.1-21.1V202h42.2v372.1C151.1,585.8,141.7,595.2,130,595.2z"/>
		<path class="st1" d="M148.1,202H112c-12.2,0-22.2-9.9-22.2-22.2v-14.2c0-0.6,0.5-1.1,1.1-1.1h78.2c0.6,0,1.1,0.5,1.1,1.1v14.2
			C170.3,192.1,160.4,202,148.1,202z"/>
		<circle class="st2" cx="130" cy="117.8" r="61"/>
		
			<linearGradient id="SVGID_1_" gradientUnits="userSpaceOnUse" x1="108.8064" y1="833.8302" x2="157.299" y2="769.6948" gradientTransform="matrix(1 0 0 1 0 -688)">
			<stop  offset="0" style="stop-color:#FFC000"/>
			<stop  offset="1" style="stop-color:#FFEB23"/>
		</linearGradient>
		<circle class="st3" cx="130" cy="117.8" r="40.2"/>
		<path class="st4" d="M194.6,38.8c0.3-0.1,0.5-0.2,0.8-0.2h-1.7C163.6,31.3,156.3,0,156.3,0s-7.3,31.3-37.4,38.6h-1.7
			c0.3,0.1,0.5,0.2,0.8,0.2c-0.3,0.1-0.5,0.2-0.8,0.2h1.7c30.1,7.3,37.4,38.6,37.4,38.6s7.3-31.3,37.4-38.6h1.7
			C195.2,38.9,194.9,38.8,194.6,38.8z"/>
		<path class="st4" d="M54.1,115.7c0.2,0,0.3-0.1,0.5-0.1h-1.1c-19.3-4.7-23.9-24.7-23.9-24.7s-4.7,20-23.9,24.7H4.6
			c0.2,0,0.3,0.1,0.5,0.1c-0.2,0-0.3,0.1-0.5,0.1h1.1c19.3,4.7,23.9,24.7,23.9,24.7s4.7-20,23.9-24.7h1.1
			C54.4,115.8,54.3,115.7,54.1,115.7z"/>
		
			<linearGradient id="SVGID_2_" gradientUnits="userSpaceOnUse" x1="106.0922" y1="806.5625" x2="154.0422" y2="806.5625" gradientTransform="matrix(1 0 0 1 0 -688)">
			<stop  offset="0" style="stop-color:#FF9827"/>
			<stop  offset="1" style="stop-color:#FFC000"/>
		</linearGradient>
		<path class="st5" d="M150.6,102.2L150.6,102.2c-4.5-4.5-11.8-4.5-16.3,0l-4.3,4.3l-4.3-4.3c-4.5-4.5-11.8-4.5-16.3,0l0,0
			c-4.5,4.5-4.5,11.8,0,16.3l4.8,4.8l13,13c0.8,0.8,1.8,1.5,2.8,2c1-0.5,1.9-1.2,2.8-2l13-13l4.8-4.8
			C155.1,114,155.1,106.7,150.6,102.2z"/>
	</g>
</g>
</svg>
