<?xml version="1.0" encoding="UTF-8"?>
<svg width="202px" height="236px" viewBox="0 0 202 236" version="1.1" xmlns="http://www.w3.org/2000/svg" xmlns:xlink="http://www.w3.org/1999/xlink">
    <!-- Generator: Sketch 51.3 (57544) - http://www.bohemiancoding.com/sketch -->
    <title>wizard-head</title>
    <desc>Created with Sketch.</desc>
    <defs>
        <filter x="-14.4%" y="-15.9%" width="140.2%" height="133.8%" filterUnits="objectBoundingBox" id="filter-1">
            <feOffset dx="10" dy="2" in="SourceAlpha" result="shadowOffsetOuter1"></feOffset>
            <feGaussianBlur stdDeviation="10" in="shadowOffsetOuter1" result="shadowBlurOuter1"></feGaussianBlur>
            <feColorMatrix values="0 0 0 0 0.249461812   0 0 0 0 0.1671321   0 0 0 0 0.517033376  0 0 0 0.2 0" type="matrix" in="shadowBlurOuter1" result="shadowMatrixOuter1"></feColorMatrix>
            <feMerge>
                <feMergeNode in="shadowMatrixOuter1"></feMergeNode>
                <feMergeNode in="SourceGraphic"></feMergeNode>
            </feMerge>
        </filter>
        <linearGradient x1="50.0222648%" y1="0.0224471725%" x2="50.0222648%" y2="81.1299543%" id="linearGradient-2">
            <stop stop-color="#AACEFC" offset="1.530612%"></stop>
            <stop stop-color="#D5E8FC" offset="15.3%"></stop>
            <stop stop-color="#FFFFFF" offset="100%"></stop>
        </linearGradient>
    </defs>
    <g id="Website" stroke="none" stroke-width="1" fill="none" fill-rule="evenodd">
        <g id="wizard-head" filter="url(#filter-1)" transform="translate(94.575697, 112.938043) rotate(-24.000000) translate(-94.575697, -112.938043) translate(7.575697, 9.438043)" fill-rule="nonzero">
            <path d="M130.359677,58.4511864 C130.359677,35.0145763 113.731452,1.12271186 83.0008065,0.701694915 C52.2701613,0.280677966 42.8685484,4.35050847 43.6403226,13.0515254 C44.4120968,21.7525424 54.0943548,16.56 55.9185484,20.559661 C57.7427419,24.559322 60.2685484,39.2247458 47.6395161,58.4511864 C74.0201613,58.4511864 130.359677,58.4511864 130.359677,58.4511864 Z" id="Shape" fill="#9855FC"></path>
            <g id="Group" transform="translate(47.008065, 0.701695)" fill="#752EE5">
                <path d="M43.5701613,18.2440678 C45.1137097,18.2440678 46.5870968,18.0335593 47.9201613,17.6827119 L52.1298387,20.9105085 C52.3403226,21.0508475 52.6209677,20.9105085 52.6209677,20.7 L52.691129,15.4372881 C55.5677419,13.3322034 57.4620968,10.2447458 57.4620968,6.80644068 C57.4620968,6.73627119 57.4620968,6.5959322 57.4620968,6.52576271 C51.3580645,2.52610169 44.2016129,0.0701694915 36.0629032,7.10542736e-15 C34.8701613,7.10542736e-15 33.6774194,7.10542736e-15 32.4846774,7.10542736e-15 C30.8008065,1.89457627 29.7483871,4.28033898 29.7483871,6.80644068 C29.7483871,13.1216949 35.9225806,18.2440678 43.5701613,18.2440678 Z" id="Shape"></path>
                <path d="M76.4758065,29.1905085 C70.6524194,28.4888136 64.1274194,30.3833898 58.6548387,34.8040678 C56.7604839,36.3477966 55.1467742,38.1020339 53.8137097,39.9966102 L45.3241935,40.2071186 C44.9032258,40.2071186 44.6927419,40.6983051 44.9733871,40.9789831 L50.2354839,47.5047458 C49.3233871,50.9430508 49.3233871,54.5216949 50.2354839,57.679322 C68.4072581,57.679322 83.4217742,57.679322 83.4217742,57.679322 C83.3516129,48.9081356 81.0362903,38.5932203 76.4758065,29.1905085 Z" id="Shape"></path>
                <path d="M19.6451613,44.5576271 C20.8379032,44.4874576 21.9604839,44.2769492 23.0129032,43.9261017 L26.3806452,46.2416949 C26.5209677,46.3820339 26.7314516,46.2416949 26.7314516,46.0311864 L26.591129,41.9613559 C28.766129,40.2071186 30.0991935,37.8213559 29.958871,35.1549153 C29.7483871,30.2430508 24.7669355,26.5240678 18.8733871,26.8047458 C15.2951613,26.9450847 12.2782258,28.5589831 10.383871,30.8044068 C10.2435484,33.1901695 9.89274194,35.7864407 9.19112903,38.7335593 C10.7346774,42.3823729 14.8741935,44.7681356 19.6451613,44.5576271 Z" id="Shape"></path>
                <path d="M8.98064516,8.06949153 C10.1733871,7.99932203 11.2959677,7.78881356 12.3483871,7.4379661 L15.716129,9.75355932 C15.8564516,9.89389831 16.0669355,9.75355932 16.0669355,9.54305085 L15.9266129,5.47322034 C17.6104839,4.14 18.8032258,2.31559322 19.1540323,0.350847458 C9.68225806,0.982372881 3.6483871,2.52610169 0.280645161,4.84169492 C2.24516129,6.94677966 5.47258065,8.20983051 8.98064516,8.06949153 Z" id="Shape"></path>
            </g>
            <path d="M139.2,84.0630508 L34.8,84.0630508 L34.8,60.9772881 C34.8,59.7142373 36.4137097,58.4511864 37.6766129,58.4511864 L135.972581,58.4511864 C137.235484,58.4511864 139.270161,59.7142373 139.270161,60.9772881 L139.270161,84.0630508 L139.2,84.0630508 Z" id="Shape" fill="#22134A"></path>
            <path d="M164.879032,98.9389831 L8.77016129,98.9389831 C4.70080645,98.9389831 0.631451613,94.5884746 0.631451613,90.5186441 L0.631451613,83.9928814 L173.299199,83.9928814 L173.298387,90.5186441 C173.368548,94.5884746 168.878226,98.9389831 164.879032,98.9389831 Z" id="Shape" fill="#9855FC"></path>
            <path d="M39.15,98.9389831 C34.0282258,101.044068 35.0806452,105.184068 39.15,105.955932 C23.9951613,112.481695 18.8032258,128.971525 21.258871,136.830508 C23.7145161,144.689492 31.5725806,152.408136 46.7274194,149.180339 C35.291129,163.986102 41.3951613,200.684746 67.0741935,205.456271 C94.5774194,210.578644 108.539516,192.194237 111.275806,177.528814 C119.133871,188.896271 129.377419,183.423051 132.11371,180.75661 C137.025,176.125424 134.28871,165.6 128.044355,161.740678 C144.812903,165.810508 152.670968,153.039661 153.232258,144.9 C153.793548,136.760339 149.443548,124.270169 138.568548,121.042373 C151.829032,118.586441 144.532258,110.727458 139.901613,113.18339 C148.812097,107.780339 146.426613,98.7986441 142.848387,98.7986441 C122.641935,98.9389831 39.15,98.9389831 39.15,98.9389831 Z" id="Shape" fill="url(#linearGradient-2)"></path>
            <ellipse id="Oval" fill="#252049" cx="91.0693548" cy="110.587119" rx="5.12177419" ry="5.12237288"></ellipse>
            <ellipse id="Oval" fill="#252049" cx="111.275806" cy="110.587119" rx="5.12177419" ry="5.12237288"></ellipse>
            <path d="M107.276613,82.0983051 C107.276613,83.1508475 106.434677,83.9928814 105.382258,83.9928814 L70.7927419,83.9928814 C69.7403226,83.9928814 68.8983871,83.1508475 68.8983871,82.0983051 L68.8983871,58.240678 C68.8983871,57.1881356 69.7403226,56.3461017 70.7927419,56.3461017 L105.382258,56.3461017 C106.434677,56.3461017 107.276613,57.1881356 107.276613,58.240678 L107.276613,82.0983051 Z M73.1080645,79.7827119 L102.926613,79.7827119 L102.926613,60.5562712 L73.1080645,60.5562712 L73.1080645,79.7827119 Z" id="Shape" fill="#FFFFFF"></path>
            <path d="M102.78629,73.3972881 L94.4370968,73.3972881 C93.3846774,73.3972881 92.5427419,72.3447458 92.5427419,71.2922034 C92.5427419,70.239661 93.3846774,69.1871186 94.4370968,69.1871186 L102.78629,69.1871186 C103.83871,69.1871186 104.680645,70.239661 104.680645,71.2922034 C104.680645,72.2745763 103.83871,73.3972881 102.78629,73.3972881 Z" id="Shape" fill="#FFFFFF"></path>
        </g>
    </g>
</svg>